<svg width="746" height="624" viewBox="0 0 746 624" fill="none" xmlns="http://www.w3.org/2000/svg">
<rect x="367.467" y="500.168" width="48" height="12.6747" transform="rotate(-39.4391 367.467 500.168)" fill="#1C1514"/>
<rect x="598.5" y="152.325" width="48" height="12.6747" transform="rotate(-54.7036 598.5 152.325)" fill="#1C1514"/>
<rect x="156.5" y="34.2539" width="48" height="12.6747" transform="rotate(-14.6077 156.5 34.2539)" fill="#1C1514"/>
<path d="M3 357.648L29 474.648L294 471.648V518.148H355L413 470.148L467 458.648L605 205.648L591 174.648L638.5 100.648L447.5 33.6483L218.5 23.6483L15 81.1483L3 357.648Z" fill="#989592" stroke="black" stroke-width="4"/>
<rect x="108.5" y="129.148" width="359" height="254" fill="#CDCAC7"/>
<rect x="120.5" y="145.148" width="26" height="223" fill="#5E992B"/>
<rect x="172.5" y="145.148" width="26" height="223" fill="#5E992B"/>
<rect x="276.5" y="145.148" width="26" height="223" fill="#5E992B"/>
<rect x="380.5" y="145.148" width="26" height="223" fill="#5E992B"/>
<rect x="224.5" y="145.148" width="26" height="223" fill="#5E992B"/>
<rect x="328.5" y="145.148" width="26" height="223" fill="#5E992B"/>
<rect x="432.5" y="145.148" width="26" height="223" fill="#5E992B"/>
<rect x="146.5" y="145.148" width="26" height="223" fill="#63A327"/>
<rect x="250.5" y="145.148" width="26" height="223" fill="#63A327"/>
<rect x="354.5" y="145.148" width="26" height="223" fill="#63A327"/>
<rect x="198.5" y="145.148" width="26" height="223" fill="#63A327"/>
<rect x="302.5" y="145.148" width="26" height="223" fill="#63A327"/>
<rect x="406.5" y="145.148" width="26" height="223" fill="#63A327"/>
<rect x="138.5" y="156.148" width="301" height="201" stroke="#FAFAFA" stroke-width="2"/>
<rect x="139.5" y="231.148" width="14" height="51" stroke="#FAFAFA" stroke-width="2"/>
<rect x="138.5" y="200.148" width="47" height="113" stroke="#FAFAFA" stroke-width="2"/>
<path d="M186 276.148C193 270.648 195.5 264.148 195.5 256.648C195.5 246.648 191 241.148 185.5 236.648" stroke="#FAFAFA" stroke-width="2"/>
<circle cx="170" cy="256.648" r="1.5" fill="#FAFAFA"/>
<rect x="128" y="241.648" width="10" height="30" stroke="#FAFAFA"/>
<line x1="130" y1="271.148" x2="130" y2="242.148" stroke="#FAFAFA"/>
<line x1="132" y1="271.148" x2="132" y2="242.148" stroke="#FAFAFA"/>
<line x1="134" y1="271.148" x2="134" y2="242.148" stroke="#FAFAFA"/>
<line x1="136" y1="271.148" x2="136" y2="242.148" stroke="#FAFAFA"/>
<line x1="137.5" y1="269.648" x2="128.5" y2="269.648" stroke="#FAFAFA"/>
<line x1="137.5" y1="267.648" x2="128.5" y2="267.648" stroke="#FAFAFA"/>
<line x1="137.5" y1="265.648" x2="128.5" y2="265.648" stroke="#FAFAFA"/>
<line x1="137.5" y1="263.648" x2="128.5" y2="263.648" stroke="#FAFAFA"/>
<line x1="137.5" y1="261.648" x2="128.5" y2="261.648" stroke="#FAFAFA"/>
<line x1="137.5" y1="259.648" x2="128.5" y2="259.648" stroke="#FAFAFA"/>
<line x1="137.5" y1="257.648" x2="128.5" y2="257.648" stroke="#FAFAFA"/>
<line x1="137.5" y1="255.648" x2="128.5" y2="255.648" stroke="#FAFAFA"/>
<line x1="137.5" y1="253.648" x2="128.5" y2="253.648" stroke="#FAFAFA"/>
<line x1="137.5" y1="251.648" x2="128.5" y2="251.648" stroke="#FAFAFA"/>
<line x1="137.5" y1="249.648" x2="128.5" y2="249.648" stroke="#FAFAFA"/>
<line x1="137.5" y1="247.648" x2="128.5" y2="247.648" stroke="#FAFAFA"/>
<line x1="137.5" y1="245.648" x2="128.5" y2="245.648" stroke="#FAFAFA"/>
<line x1="137.5" y1="243.648" x2="128.5" y2="243.648" stroke="#FAFAFA"/>
<rect x="-1" y="1" width="14" height="51" transform="matrix(-1 0 0 1 437.5 230.148)" stroke="#FAFAFA" stroke-width="2"/>
<rect x="-1" y="1" width="47" height="113" transform="matrix(-1 0 0 1 438.5 199.148)" stroke="#FAFAFA" stroke-width="2"/>
<path d="M392 276.148C385 270.648 382.5 264.148 382.5 256.648C382.5 246.648 387 241.148 392.5 236.648" stroke="#FAFAFA" stroke-width="2"/>
<circle r="1.5" transform="matrix(-1 0 0 1 408 256.648)" fill="#FAFAFA"/>
<rect x="-0.5" y="0.5" width="10" height="30" transform="matrix(-1 0 0 1 449.5 241.148)" stroke="#FAFAFA"/>
<line y1="-0.5" x2="29" y2="-0.5" transform="matrix(0 -1 -1 0 447.5 271.148)" stroke="#FAFAFA"/>
<line y1="-0.5" x2="29" y2="-0.5" transform="matrix(0 -1 -1 0 445.5 271.148)" stroke="#FAFAFA"/>
<line y1="-0.5" x2="29" y2="-0.5" transform="matrix(0 -1 -1 0 443.5 271.148)" stroke="#FAFAFA"/>
<line y1="-0.5" x2="29" y2="-0.5" transform="matrix(0 -1 -1 0 441.5 271.148)" stroke="#FAFAFA"/>
<line y1="-0.5" x2="9" y2="-0.5" transform="matrix(1 0 0 -1 440.5 269.148)" stroke="#FAFAFA"/>
<line y1="-0.5" x2="9" y2="-0.5" transform="matrix(1 0 0 -1 440.5 267.148)" stroke="#FAFAFA"/>
<line y1="-0.5" x2="9" y2="-0.5" transform="matrix(1 0 0 -1 440.5 265.148)" stroke="#FAFAFA"/>
<line y1="-0.5" x2="9" y2="-0.5" transform="matrix(1 0 0 -1 440.5 263.148)" stroke="#FAFAFA"/>
<line y1="-0.5" x2="9" y2="-0.5" transform="matrix(1 0 0 -1 440.5 261.148)" stroke="#FAFAFA"/>
<line y1="-0.5" x2="9" y2="-0.5" transform="matrix(1 0 0 -1 440.5 259.148)" stroke="#FAFAFA"/>
<line y1="-0.5" x2="9" y2="-0.5" transform="matrix(1 0 0 -1 440.5 257.148)" stroke="#FAFAFA"/>
<line y1="-0.5" x2="9" y2="-0.5" transform="matrix(1 0 0 -1 440.5 255.148)" stroke="#FAFAFA"/>
<line y1="-0.5" x2="9" y2="-0.5" transform="matrix(1 0 0 -1 440.5 253.148)" stroke="#FAFAFA"/>
<line y1="-0.5" x2="9" y2="-0.5" transform="matrix(1 0 0 -1 440.5 251.148)" stroke="#FAFAFA"/>
<line y1="-0.5" x2="9" y2="-0.5" transform="matrix(1 0 0 -1 440.5 249.148)" stroke="#FAFAFA"/>
<line y1="-0.5" x2="9" y2="-0.5" transform="matrix(1 0 0 -1 440.5 247.148)" stroke="#FAFAFA"/>
<line y1="-0.5" x2="9" y2="-0.5" transform="matrix(1 0 0 -1 440.5 245.148)" stroke="#FAFAFA"/>
<line y1="-0.5" x2="9" y2="-0.5" transform="matrix(1 0 0 -1 440.5 243.148)" stroke="#FAFAFA"/>
<line x1="289.5" y1="156.148" x2="289.5" y2="358.148" stroke="#FAFAFA" stroke-width="2"/>
<circle cx="289" cy="256.648" r="26.5" stroke="#FAFAFA" stroke-width="2"/>
<path d="M138.5 163.148C143.5 163.148 146 159.748 146 156.148" stroke="#FAFAFA" stroke-width="2"/>
<path d="M138.5 350.148C143.5 350.148 146 353.548 146 357.148" stroke="#FAFAFA" stroke-width="2"/>
<path d="M440 350.148C435 350.148 432.5 353.548 432.5 357.148" stroke="#FAFAFA" stroke-width="2"/>
<path d="M440 163.148C435 163.148 432.5 159.748 432.5 156.148" stroke="#FAFAFA" stroke-width="2"/>
<g filter="url(#filter0_d_1285_23573)">
<rect x="17.5" y="129.148" width="75" height="248" fill="#234673"/>
</g>
<g filter="url(#filter1_d_1285_23573)">
<rect x="135.5" y="387.148" width="297" height="54" fill="#CF3476"/>
</g>
<g filter="url(#filter2_d_1285_23573)">
<rect x="496.5" y="262.148" width="36" height="74" fill="#A77F49"/>
</g>
<g filter="url(#filter3_d_1285_23573)">
<rect x="498.5" y="128.148" width="41" height="127" fill="#F3A712"/>
</g>
<g filter="url(#filter4_d_1285_23573)">
<rect x="263.5" y="67.1484" width="46" height="46" fill="#CC2936"/>
</g>
<g filter="url(#filter5_d_1285_23573)">
<path d="M259.5 113.148H196.5V41.6483H377.5V113.148H313.5V64.1483H259.5V113.148Z" fill="#4DA167"/>
</g>
<g filter="url(#filter6_d_1285_23573)">
<rect x="132.5" y="51.1484" width="40" height="74" fill="#FAFAFA"/>
</g>
<g filter="url(#filter7_d_1285_23573)">
<path d="M146.5 111.278L137.218 111.278L137.218 104.869L137.972 104.869L137.972 110.394L141.326 110.394L141.326 105.22L142.08 105.22L142.08 110.394L145.746 110.394L145.746 104.804L146.5 104.804L146.5 111.278ZM143.445 104.04L143.445 103.156C145.109 103.19 145.941 102.181 145.941 100.127C145.941 99.5375 145.794 99.0045 145.499 98.5278C145.152 97.9558 144.671 97.6698 144.056 97.6698C143.25 97.6698 142.691 98.3068 142.379 99.5808L141.872 101.648C141.534 103.043 140.789 103.741 139.636 103.741C139.012 103.741 138.462 103.533 137.985 103.117C137.344 102.553 137.023 101.695 137.023 100.543C137.023 99.5721 137.266 98.7705 137.751 98.1378C138.28 97.4445 138.999 97.1021 139.909 97.1108L139.909 97.9948C139.233 98.0208 138.7 98.2851 138.31 98.7878C137.955 99.2558 137.777 99.8365 137.777 100.53C137.777 101.206 137.911 101.743 138.18 102.142C138.501 102.618 138.982 102.857 139.623 102.857C140.334 102.857 140.806 102.389 141.04 101.453L141.599 99.1908C141.998 97.5875 142.812 96.7858 144.043 96.7858C144.641 96.7858 145.161 96.9678 145.603 97.3318C146.331 97.9211 146.695 98.9221 146.695 100.335C146.695 101.496 146.435 102.402 145.915 103.052C145.352 103.762 144.528 104.092 143.445 104.04ZM146.5 95.3833L137.218 95.3833L137.218 91.2623C137.218 90.4217 137.452 89.7543 137.92 89.2603C138.388 88.7577 139.038 88.5063 139.87 88.5063C140.702 88.5063 141.352 88.7577 141.82 89.2603C142.288 89.7543 142.522 90.4217 142.522 91.2623L142.522 94.4993L146.5 94.4993L146.5 95.3833ZM137.972 94.4993L141.768 94.4993L141.768 91.4573C141.768 90.8247 141.608 90.322 141.287 89.9493C140.958 89.5767 140.485 89.3903 139.87 89.3903C139.255 89.3903 138.778 89.581 138.44 89.9623C138.128 90.3263 137.972 90.8247 137.972 91.4573L137.972 94.4993ZM146.5 88.2219L137.218 84.4779L137.218 83.4899L146.5 79.8499L146.5 80.7989L143.614 81.9299L143.614 86.1549L146.5 87.2729L146.5 88.2219ZM138.102 84.0229L142.86 85.8819L142.86 82.2289L138.102 84.0229ZM140.026 71.3364L140.026 72.2204C139.324 72.3764 138.774 72.7187 138.375 73.2474C137.976 73.7674 137.777 74.374 137.777 75.0674C137.777 76.22 138.202 77.1084 139.051 77.7324C139.805 78.287 140.741 78.5644 141.859 78.5644C142.977 78.5644 143.909 78.287 144.654 77.7324C145.512 77.1084 145.941 76.22 145.941 75.0674C145.941 74.2354 145.651 73.5464 145.07 73.0004C144.524 72.4804 143.822 72.177 142.964 72.0904L142.964 71.2064C144.108 71.3277 145.018 71.735 145.694 72.4284C146.361 73.113 146.695 73.9927 146.695 75.0674C146.695 76.4627 146.205 77.559 145.226 78.3564C144.333 79.0844 143.211 79.4484 141.859 79.4484C140.507 79.4484 139.385 79.0844 138.492 78.3564C137.513 77.559 137.023 76.4627 137.023 75.0674C137.023 74.14 137.279 73.3297 137.79 72.6364C138.353 71.8824 139.099 71.449 140.026 71.3364ZM146.5 69.8531L137.218 69.8531L137.218 63.4441L137.972 63.4441L137.972 68.9691L141.326 68.9691L141.326 63.7951L142.08 63.7951L142.08 68.9691L145.746 68.9691L145.746 63.3791L146.5 63.3791L146.5 69.8531ZM167.5 93.6826L158.218 97.1276L158.218 96.1786L166.525 93.1626L166.525 93.1366L158.218 90.1466L158.218 89.2106L167.5 92.6556L167.5 93.6826ZM167.5 88.3296L158.218 88.3296L158.218 87.4456L167.5 87.4456L167.5 88.3296ZM167.5 85.5127L158.218 85.5127L158.218 81.3917C158.218 80.5511 158.452 79.8837 158.92 79.3897C159.388 78.8871 160.038 78.6357 160.87 78.6357C161.702 78.6357 162.352 78.8871 162.82 79.3897C163.288 79.8837 163.522 80.5511 163.522 81.3917L163.522 84.6287L167.5 84.6287L167.5 85.5127ZM158.972 84.6287L162.768 84.6287L162.768 81.5867C162.768 80.9541 162.608 80.4514 162.287 80.0787C161.958 79.7061 161.485 79.5197 160.87 79.5197C160.255 79.5197 159.778 79.7104 159.44 80.0917C159.128 80.4557 158.972 80.9541 158.972 81.5867L158.972 84.6287Z" fill="black"/>
</g>
<g filter="url(#filter8_d_1285_23573)">
<path d="M40.972 279.816L40.218 279.816L40.218 272.458L40.972 272.458L40.972 275.695L49.5 275.695L49.5 276.579L40.972 276.579L40.972 279.816ZM49.5 271.592L40.218 271.592L40.218 267.341C40.218 266.517 40.413 265.854 40.803 265.352C41.2277 264.797 41.8387 264.52 42.636 264.52C43.2427 264.52 43.754 264.671 44.17 264.975C44.612 265.295 44.8893 265.746 45.002 266.327L45.028 266.327C45.158 265.321 45.8557 264.78 47.121 264.702C47.8663 264.658 48.2823 264.632 48.369 264.624C48.9237 264.554 49.3007 264.437 49.5 264.273L49.5 265.248C49.3093 265.369 48.8283 265.451 48.057 265.495C47.1817 265.547 46.575 265.655 46.237 265.82C45.665 266.097 45.379 266.608 45.379 267.354L45.379 270.708L49.5 270.708L49.5 271.592ZM40.972 270.708L44.625 270.708L44.625 267.406C44.625 266.842 44.4603 266.37 44.131 265.989C43.8017 265.599 43.364 265.404 42.818 265.404C42.2373 265.404 41.7867 265.577 41.466 265.924C41.1367 266.262 40.972 266.756 40.972 267.406L40.972 270.708ZM49.5 262.856L40.218 262.856L40.218 261.972L49.5 261.972L49.5 262.856ZM45.041 259.155L48.746 259.155L48.746 256.113C48.746 254.484 48.109 253.669 46.835 253.669C45.639 253.669 45.041 254.484 45.041 256.113L45.041 259.155ZM49.5 260.039L40.218 260.039L40.218 256.113C40.218 255.238 40.3827 254.544 40.712 254.033C41.0933 253.435 41.687 253.136 42.493 253.136C42.987 253.136 43.4333 253.288 43.832 253.591C44.222 253.886 44.469 254.271 44.573 254.748L44.599 254.748C44.677 254.15 44.924 253.673 45.34 253.318C45.7473 252.963 46.2543 252.785 46.861 252.785C48.6203 252.785 49.5 253.894 49.5 256.113L49.5 260.039ZM40.972 259.155L44.287 259.155L44.287 256.113C44.287 255.437 44.1353 254.913 43.832 254.54C43.546 254.193 43.1733 254.02 42.714 254.02C41.5527 254.02 40.972 254.718 40.972 256.113L40.972 259.155ZM46.159 251.459L40.218 251.459L40.218 250.575L45.964 250.575C47.9487 250.575 48.941 249.67 48.941 247.858C48.941 246.038 47.9487 245.128 45.964 245.128L40.218 245.128L40.218 244.244L46.159 244.244C47.199 244.244 48.0267 244.522 48.642 245.076C49.344 245.709 49.695 246.636 49.695 247.858C49.695 249.072 49.344 249.995 48.642 250.627C48.018 251.182 47.1903 251.459 46.159 251.459ZM49.5 242.482L40.218 242.482L40.218 241.494L48.07 236.086L48.07 236.06L40.218 236.06L40.218 235.176L49.5 235.176L49.5 236.164L41.648 241.572L41.648 241.598L49.5 241.598L49.5 242.482ZM49.5 233.315L40.218 233.315L40.218 226.906L40.972 226.906L40.972 232.431L44.326 232.431L44.326 227.257L45.08 227.257L45.08 232.431L48.746 232.431L48.746 226.841L49.5 226.841L49.5 233.315ZM67.445 265.674L67.445 264.79C69.109 264.825 69.941 263.815 69.941 261.761C69.941 261.172 69.7937 260.639 69.499 260.162C69.1523 259.59 68.6713 259.304 68.056 259.304C67.25 259.304 66.691 259.941 66.379 261.215L65.872 263.282C65.534 264.677 64.7887 265.375 63.636 265.375C63.012 265.375 62.4617 265.167 61.985 264.751C61.3437 264.188 61.023 263.33 61.023 262.177C61.023 261.206 61.2657 260.405 61.751 259.772C62.2797 259.079 62.999 258.736 63.909 258.745L63.909 259.629C63.233 259.655 62.7 259.919 62.31 260.422C61.9547 260.89 61.777 261.471 61.777 262.164C61.777 262.84 61.9113 263.377 62.18 263.776C62.5007 264.253 62.9817 264.491 63.623 264.491C64.3337 264.491 64.806 264.023 65.04 263.087L65.599 260.825C65.9977 259.222 66.8123 258.42 68.043 258.42C68.641 258.42 69.161 258.602 69.603 258.966C70.331 259.555 70.695 260.556 70.695 261.969C70.695 263.13 70.435 264.036 69.915 264.686C69.3517 265.397 68.5283 265.726 67.445 265.674ZM67.159 257.109L61.218 257.109L61.218 256.225L66.964 256.225C68.9487 256.225 69.941 255.319 69.941 253.508C69.941 251.688 68.9487 250.778 66.964 250.778L61.218 250.778L61.218 249.894L67.159 249.894C68.199 249.894 69.0267 250.171 69.642 250.726C70.344 251.358 70.695 252.286 70.695 253.508C70.695 254.721 70.344 255.644 69.642 256.277C69.018 256.831 68.1903 257.109 67.159 257.109ZM61.972 247.234L69.746 247.234L69.746 245.349C69.746 244.006 69.4427 243.035 68.836 242.437C68.2293 241.831 67.237 241.527 65.859 241.527C64.481 241.527 63.4887 241.831 62.882 242.437C62.2753 243.035 61.972 244.006 61.972 245.349L61.972 247.234ZM70.5 248.118L61.218 248.118L61.218 244.907C61.218 243.512 61.6123 242.455 62.401 241.735C63.181 241.007 64.3337 240.643 65.859 240.643C67.3843 240.643 68.5413 241.007 69.33 241.735C70.11 242.455 70.5 243.512 70.5 244.907L70.5 248.118Z" fill="#FAFAFA"/>
</g>
<g filter="url(#filter9_d_1285_23573)">
<path d="M244.464 410.62V409.866H251.822V410.62H248.585V419.148H247.701V410.62H244.464ZM252.688 419.148V409.866H256.939C257.763 409.866 258.426 410.061 258.928 410.451C259.483 410.876 259.76 411.487 259.76 412.284C259.76 412.891 259.609 413.402 259.305 413.818C258.985 414.26 258.534 414.538 257.953 414.65V414.676C258.959 414.806 259.5 415.504 259.578 416.769C259.622 417.515 259.648 417.931 259.656 418.017C259.726 418.572 259.843 418.949 260.007 419.148H259.032C258.911 418.958 258.829 418.477 258.785 417.705C258.733 416.83 258.625 416.223 258.46 415.885C258.183 415.313 257.672 415.027 256.926 415.027H253.572V419.148H252.688ZM253.572 410.62V414.273H256.874C257.438 414.273 257.91 414.109 258.291 413.779C258.681 413.45 258.876 413.012 258.876 412.466C258.876 411.886 258.703 411.435 258.356 411.114C258.018 410.785 257.524 410.62 256.874 410.62H253.572ZM261.424 419.148V409.866H262.308V419.148H261.424ZM265.125 414.689V418.394H268.167C269.797 418.394 270.611 417.757 270.611 416.483C270.611 415.287 269.797 414.689 268.167 414.689H265.125ZM264.241 419.148V409.866H268.167C269.043 409.866 269.736 410.031 270.247 410.36C270.845 410.742 271.144 411.335 271.144 412.141C271.144 412.635 270.993 413.082 270.689 413.48C270.395 413.87 270.009 414.117 269.532 414.221V414.247C270.13 414.325 270.607 414.572 270.962 414.988C271.318 415.396 271.495 415.903 271.495 416.509C271.495 418.269 270.386 419.148 268.167 419.148H264.241ZM265.125 410.62V413.935H268.167C268.843 413.935 269.368 413.784 269.74 413.48C270.087 413.194 270.26 412.822 270.26 412.362C270.26 411.201 269.563 410.62 268.167 410.62H265.125ZM272.821 415.807V409.866H273.705V415.612C273.705 417.597 274.611 418.589 276.422 418.589C278.242 418.589 279.152 417.597 279.152 415.612V409.866H280.036V415.807C280.036 416.847 279.759 417.675 279.204 418.29C278.571 418.992 277.644 419.343 276.422 419.343C275.209 419.343 274.286 418.992 273.653 418.29C273.098 417.666 272.821 416.839 272.821 415.807ZM281.798 419.148V409.866H282.786L288.194 417.718H288.22V409.866H289.104V419.148H288.116L282.708 411.296H282.682V419.148H281.798ZM290.965 419.148V409.866H297.374V410.62H291.849V413.974H297.023V414.728H291.849V418.394H297.439V419.148H290.965ZM302.289 419.148V409.866H308.698V410.62H303.173V413.974H308.347V414.728H303.173V418.394H308.763V419.148H302.289ZM309.527 416.093H310.411C310.376 417.757 311.386 418.589 313.44 418.589C314.029 418.589 314.562 418.442 315.039 418.147C315.611 417.801 315.897 417.32 315.897 416.704C315.897 415.898 315.26 415.339 313.986 415.027L311.919 414.52C310.524 414.182 309.826 413.437 309.826 412.284C309.826 411.66 310.034 411.11 310.45 410.633C311.013 409.992 311.871 409.671 313.024 409.671C313.995 409.671 314.796 409.914 315.429 410.399C316.122 410.928 316.465 411.647 316.456 412.557H315.572C315.546 411.881 315.282 411.348 314.779 410.958C314.311 410.603 313.73 410.425 313.037 410.425C312.361 410.425 311.824 410.56 311.425 410.828C310.948 411.149 310.71 411.63 310.71 412.271C310.71 412.982 311.178 413.454 312.114 413.688L314.376 414.247C315.979 414.646 316.781 415.461 316.781 416.691C316.781 417.289 316.599 417.809 316.235 418.251C315.646 418.979 314.645 419.343 313.232 419.343C312.071 419.343 311.165 419.083 310.515 418.563C309.804 418 309.475 417.177 309.527 416.093ZM317.183 410.62V409.866H324.541V410.62H321.304V419.148H320.42V410.62H317.183Z" fill="white"/>
</g>
<g filter="url(#filter10_d_1285_23573)">
<path d="M519.219 176.8L514.5 176.8L514.5 176.163L516.19 176.046L516.19 176.02C514.933 175.43 514.305 174.36 514.305 172.809C514.305 171.413 514.795 170.317 515.774 169.52C516.667 168.792 517.789 168.428 519.141 168.428C520.493 168.428 521.615 168.792 522.508 169.52C523.487 170.317 523.977 171.413 523.977 172.809C523.977 173.814 523.717 174.663 523.197 175.357C522.651 176.076 521.884 176.518 520.896 176.683L520.896 175.799C521.485 175.738 522.005 175.448 522.456 174.928C522.967 174.347 523.223 173.641 523.223 172.809C523.223 171.656 522.798 170.768 521.949 170.144C521.195 169.589 520.259 169.312 519.141 169.312C518.023 169.312 517.091 169.589 516.346 170.144C515.488 170.768 515.059 171.656 515.059 172.809C515.059 173.814 515.38 174.611 516.021 175.201C516.645 175.764 517.46 176.037 518.465 176.02L518.465 172.861L519.219 172.861L519.219 176.8ZM514.5 178.505L523.782 178.505L523.782 182.756C523.782 183.58 523.587 184.243 523.197 184.745C522.772 185.3 522.161 185.577 521.364 185.577C520.757 185.577 520.246 185.426 519.83 185.122C519.388 184.802 519.111 184.351 518.998 183.77L518.972 183.77C518.842 184.776 518.144 185.317 516.879 185.395C516.134 185.439 515.718 185.465 515.631 185.473C515.076 185.543 514.699 185.66 514.5 185.824L514.5 184.849C514.691 184.728 515.172 184.646 515.943 184.602C516.818 184.55 517.425 184.442 517.763 184.277C518.335 184 518.621 183.489 518.621 182.743L518.621 179.389L514.5 179.389L514.5 178.505ZM523.028 179.389L519.375 179.389L519.375 182.691C519.375 183.255 519.54 183.727 519.869 184.108C520.198 184.498 520.636 184.693 521.182 184.693C521.763 184.693 522.213 184.52 522.534 184.173C522.863 183.835 523.028 183.341 523.028 182.691L523.028 179.389ZM514.5 186.149L523.782 189.893L523.782 190.881L514.5 194.521L514.5 193.572L517.386 192.441L517.386 188.216L514.5 187.098L514.5 186.149ZM522.898 190.348L518.14 188.489L518.14 192.142L522.898 190.348ZM523.028 196.249L515.254 196.249L515.254 198.134C515.254 199.477 515.557 200.448 516.164 201.046C516.771 201.652 517.763 201.956 519.141 201.956C520.519 201.956 521.511 201.652 522.118 201.046C522.725 200.448 523.028 199.477 523.028 198.134L523.028 196.249ZM514.5 195.365L523.782 195.365L523.782 198.576C523.782 199.971 523.388 201.028 522.599 201.748C521.819 202.476 520.666 202.84 519.141 202.84C517.616 202.84 516.459 202.476 515.67 201.748C514.89 201.028 514.5 199.971 514.5 198.576L514.5 195.365ZM514.5 204.329L523.782 204.329L523.782 205.213L514.5 205.213L514.5 204.329ZM514.5 207.133L523.782 207.133L523.782 208.121L515.93 213.529L515.93 213.555L523.782 213.555L523.782 214.439L514.5 214.439L514.5 213.451L522.352 208.043L522.352 208.017L514.5 208.017L514.5 207.133Z" fill="#1C1514"/>
</g>
<g filter="url(#filter11_d_1285_23573)">
<path d="M509.5 275.423L518.782 271.978L518.782 272.927L510.475 275.943L510.475 275.969L518.782 278.959L518.782 279.895L509.5 276.45L509.5 275.423ZM509.5 280.776L518.782 280.776L518.782 281.66L509.5 281.66L509.5 280.776ZM512.555 283.125L512.555 284.009C510.891 283.975 510.059 284.984 510.059 287.038C510.059 287.628 510.206 288.161 510.501 288.637C510.848 289.209 511.329 289.495 511.944 289.495C512.75 289.495 513.309 288.858 513.621 287.584L514.128 285.517C514.466 284.122 515.211 283.424 516.364 283.424C516.988 283.424 517.538 283.632 518.015 284.048C518.656 284.612 518.977 285.47 518.977 286.622C518.977 287.593 518.734 288.395 518.249 289.027C517.72 289.721 517.001 290.063 516.091 290.054L516.091 289.17C516.767 289.144 517.3 288.88 517.69 288.377C518.045 287.909 518.223 287.329 518.223 286.635C518.223 285.959 518.089 285.422 517.82 285.023C517.499 284.547 517.018 284.308 516.377 284.308C515.666 284.308 515.194 284.776 514.96 285.712L514.401 287.974C514.002 289.578 513.188 290.379 511.957 290.379C511.359 290.379 510.839 290.197 510.397 289.833C509.669 289.244 509.305 288.243 509.305 286.83C509.305 285.669 509.565 284.763 510.085 284.113C510.648 283.403 511.472 283.073 512.555 283.125ZM509.5 291.847L518.782 291.847L518.782 292.731L509.5 292.731L509.5 291.847ZM518.028 293.663L518.782 293.663L518.782 301.021L518.028 301.021L518.028 297.784L509.5 297.784L509.5 296.9L518.028 296.9L518.028 293.663ZM509.5 301.887L518.782 301.887L518.782 308.296L518.028 308.296L518.028 302.771L514.674 302.771L514.674 307.945L513.92 307.945L513.92 302.771L510.254 302.771L510.254 308.361L509.5 308.361L509.5 301.887ZM512.841 309.502L518.782 309.502L518.782 310.386L513.036 310.386C511.051 310.386 510.059 311.292 510.059 313.103C510.059 314.923 511.051 315.833 513.036 315.833L518.782 315.833L518.782 316.717L512.841 316.717C511.801 316.717 510.973 316.44 510.358 315.885C509.656 315.253 509.305 314.325 509.305 313.103C509.305 311.89 509.656 310.967 510.358 310.334C510.982 309.78 511.81 309.502 512.841 309.502ZM509.5 318.493L518.782 318.493L518.782 322.744C518.782 323.567 518.587 324.23 518.197 324.733C517.772 325.287 517.161 325.565 516.364 325.565C515.757 325.565 515.246 325.413 514.83 325.11C514.388 324.789 514.111 324.338 513.998 323.758L513.972 323.758C513.842 324.763 513.144 325.305 511.879 325.383C511.134 325.426 510.718 325.452 510.631 325.461C510.076 325.53 509.699 325.647 509.5 325.812L509.5 324.837C509.691 324.715 510.172 324.633 510.943 324.59C511.818 324.538 512.425 324.429 512.763 324.265C513.335 323.987 513.621 323.476 513.621 322.731L513.621 319.377L509.5 319.377L509.5 318.493ZM518.028 319.377L514.375 319.377L514.375 322.679C514.375 323.242 514.54 323.714 514.869 324.096C515.198 324.486 515.636 324.681 516.182 324.681C516.763 324.681 517.213 324.507 517.534 324.161C517.863 323.823 518.028 323.329 518.028 322.679L518.028 319.377Z" fill="#FAFAFA"/>
</g>
<path d="M256.75 57.1483V47.8663H257.634V51.8963H263.146V47.8663H264.03V57.1483H263.146V52.6503H257.634V57.1483H256.75ZM265.409 52.5073C265.409 51.1553 265.773 50.033 266.501 49.1403C267.299 48.161 268.395 47.6713 269.79 47.6713C271.177 47.6713 272.269 48.161 273.066 49.1403C273.794 50.033 274.158 51.1553 274.158 52.5073C274.158 53.8593 273.794 54.9816 273.066 55.8743C272.269 56.8536 271.177 57.3433 269.79 57.3433C268.395 57.3433 267.299 56.8536 266.501 55.8743C265.773 54.9816 265.409 53.8593 265.409 52.5073ZM266.293 52.5073C266.293 53.6253 266.571 54.557 267.125 55.3023C267.749 56.1603 268.638 56.5893 269.79 56.5893C270.934 56.5893 271.823 56.1603 272.455 55.3023C273.001 54.557 273.274 53.6253 273.274 52.5073C273.274 51.3893 273.001 50.4533 272.455 49.6993C271.823 48.85 270.934 48.4253 269.79 48.4253C268.638 48.4253 267.749 48.85 267.125 49.6993C266.571 50.4533 266.293 51.3893 266.293 52.5073ZM275.526 57.1483V47.8663H276.514L281.922 55.7183H281.948V47.8663H282.832V57.1483H281.844L276.436 49.2963H276.41V57.1483H275.526ZM284.679 57.1483V47.8663H285.667L291.075 55.7183H291.101V47.8663H291.985V57.1483H290.997L285.589 49.2963H285.563V57.1483H284.679ZM293.846 57.1483V47.8663H300.255V48.6203H294.73V51.9743H299.904V52.7283H294.73V56.3943H300.32V57.1483H293.846ZM301.461 53.8073V47.8663H302.345V53.6123C302.345 55.597 303.25 56.5893 305.062 56.5893C306.882 56.5893 307.792 55.597 307.792 53.6123V47.8663H308.676V53.8073C308.676 54.8473 308.398 55.675 307.844 56.2903C307.211 56.9923 306.284 57.3433 305.062 57.3433C303.848 57.3433 302.925 56.9923 302.293 56.2903C301.738 55.6663 301.461 54.8386 301.461 53.8073ZM310.451 57.1483V47.8663H314.702C315.525 47.8663 316.188 48.0613 316.691 48.4513C317.246 48.876 317.523 49.487 317.523 50.2843C317.523 50.891 317.371 51.4023 317.068 51.8183C316.747 52.2603 316.297 52.5376 315.716 52.6503V52.6763C316.721 52.8063 317.263 53.504 317.341 54.7693C317.384 55.5146 317.41 55.9306 317.419 56.0173C317.488 56.572 317.605 56.949 317.77 57.1483H316.795C316.674 56.9576 316.591 56.4766 316.548 55.7053C316.496 54.83 316.388 54.2233 316.223 53.8853C315.946 53.3133 315.434 53.0273 314.689 53.0273H311.335V57.1483H310.451ZM311.335 48.6203V52.2733H314.637C315.2 52.2733 315.673 52.1086 316.054 51.7793C316.444 51.45 316.639 51.0123 316.639 50.4663C316.639 49.8856 316.466 49.435 316.119 49.1143C315.781 48.785 315.287 48.6203 314.637 48.6203H311.335Z" fill="white"/>
<path d="M256.75 57.1483V47.8663H257.634V51.8963H263.146V47.8663H264.03V57.1483H263.146V52.6503H257.634V57.1483H256.75ZM265.409 52.5073C265.409 51.1553 265.773 50.033 266.501 49.1403C267.299 48.161 268.395 47.6713 269.79 47.6713C271.177 47.6713 272.269 48.161 273.066 49.1403C273.794 50.033 274.158 51.1553 274.158 52.5073C274.158 53.8593 273.794 54.9816 273.066 55.8743C272.269 56.8536 271.177 57.3433 269.79 57.3433C268.395 57.3433 267.299 56.8536 266.501 55.8743C265.773 54.9816 265.409 53.8593 265.409 52.5073ZM266.293 52.5073C266.293 53.6253 266.571 54.557 267.125 55.3023C267.749 56.1603 268.638 56.5893 269.79 56.5893C270.934 56.5893 271.823 56.1603 272.455 55.3023C273.001 54.557 273.274 53.6253 273.274 52.5073C273.274 51.3893 273.001 50.4533 272.455 49.6993C271.823 48.85 270.934 48.4253 269.79 48.4253C268.638 48.4253 267.749 48.85 267.125 49.6993C266.571 50.4533 266.293 51.3893 266.293 52.5073ZM275.526 57.1483V47.8663H276.514L281.922 55.7183H281.948V47.8663H282.832V57.1483H281.844L276.436 49.2963H276.41V57.1483H275.526ZM284.679 57.1483V47.8663H285.667L291.075 55.7183H291.101V47.8663H291.985V57.1483H290.997L285.589 49.2963H285.563V57.1483H284.679ZM293.846 57.1483V47.8663H300.255V48.6203H294.73V51.9743H299.904V52.7283H294.73V56.3943H300.32V57.1483H293.846ZM301.461 53.8073V47.8663H302.345V53.6123C302.345 55.597 303.25 56.5893 305.062 56.5893C306.882 56.5893 307.792 55.597 307.792 53.6123V47.8663H308.676V53.8073C308.676 54.8473 308.398 55.675 307.844 56.2903C307.211 56.9923 306.284 57.3433 305.062 57.3433C303.848 57.3433 302.925 56.9923 302.293 56.2903C301.738 55.6663 301.461 54.8386 301.461 53.8073ZM310.451 57.1483V47.8663H314.702C315.525 47.8663 316.188 48.0613 316.691 48.4513C317.246 48.876 317.523 49.487 317.523 50.2843C317.523 50.891 317.371 51.4023 317.068 51.8183C316.747 52.2603 316.297 52.5376 315.716 52.6503V52.6763C316.721 52.8063 317.263 53.504 317.341 54.7693C317.384 55.5146 317.41 55.9306 317.419 56.0173C317.488 56.572 317.605 56.949 317.77 57.1483H316.795C316.674 56.9576 316.591 56.4766 316.548 55.7053C316.496 54.83 316.388 54.2233 316.223 53.8853C315.946 53.3133 315.434 53.0273 314.689 53.0273H311.335V57.1483H310.451ZM311.335 48.6203V52.2733H314.637C315.2 52.2733 315.673 52.1086 316.054 51.7793C316.444 51.45 316.639 51.0123 316.639 50.4663C316.639 49.8856 316.466 49.435 316.119 49.1143C315.781 48.785 315.287 48.6203 314.637 48.6203H311.335Z" fill="black" fill-opacity="0.2"/>
<g filter="url(#filter12_d_1285_23573)">
<path d="M269.25 103.148V93.8664H273.371C274.212 93.8664 274.879 94.1004 275.373 94.5684C275.876 95.0364 276.127 95.6864 276.127 96.5184C276.127 97.3504 275.876 98.0004 275.373 98.4684C274.879 98.9364 274.212 99.1704 273.371 99.1704H270.134V103.148H269.25ZM270.134 94.6204V98.4164H273.176C273.809 98.4164 274.311 98.2561 274.684 97.9354C275.057 97.6061 275.243 97.1338 275.243 96.5184C275.243 95.9031 275.052 95.4264 274.671 95.0884C274.307 94.7764 273.809 94.6204 273.176 94.6204H270.134ZM277.438 103.148V93.8664H281.689C282.513 93.8664 283.176 94.0614 283.678 94.4514C284.233 94.8761 284.51 95.4871 284.51 96.2844C284.51 96.8911 284.359 97.4024 284.055 97.8184C283.735 98.2604 283.284 98.5378 282.703 98.6504V98.6764C283.709 98.8064 284.25 99.5041 284.328 100.769C284.372 101.515 284.398 101.931 284.406 102.017C284.476 102.572 284.593 102.949 284.757 103.148H283.782C283.661 102.958 283.579 102.477 283.535 101.705C283.483 100.83 283.375 100.223 283.21 99.8854C282.933 99.3134 282.422 99.0274 281.676 99.0274H278.322V103.148H277.438ZM278.322 94.6204V98.2734H281.624C282.188 98.2734 282.66 98.1088 283.041 97.7794C283.431 97.4501 283.626 97.0124 283.626 96.4664C283.626 95.8858 283.453 95.4351 283.106 95.1144C282.768 94.7851 282.274 94.6204 281.624 94.6204H278.322ZM286.109 103.148V93.8664H292.518V94.6204H286.993V97.9744H292.167V98.7284H286.993V102.394H292.583V103.148H286.109ZM293.347 100.093H294.231C294.197 101.757 295.206 102.589 297.26 102.589C297.85 102.589 298.383 102.442 298.859 102.147C299.431 101.801 299.717 101.32 299.717 100.704C299.717 99.8984 299.08 99.3394 297.806 99.0274L295.739 98.5204C294.344 98.1824 293.646 97.4371 293.646 96.2844C293.646 95.6604 293.854 95.1101 294.27 94.6334C294.834 93.9921 295.692 93.6714 296.844 93.6714C297.815 93.6714 298.617 93.9141 299.249 94.3994C299.943 94.9281 300.285 95.6474 300.276 96.5574H299.392C299.366 95.8814 299.102 95.3484 298.599 94.9584C298.131 94.6031 297.551 94.4254 296.857 94.4254C296.181 94.4254 295.644 94.5598 295.245 94.8284C294.769 95.1491 294.53 95.6301 294.53 96.2714C294.53 96.9821 294.998 97.4544 295.934 97.6884L298.196 98.2474C299.8 98.6461 300.601 99.4608 300.601 100.691C300.601 101.289 300.419 101.809 300.055 102.251C299.466 102.979 298.465 103.343 297.052 103.343C295.891 103.343 294.985 103.083 294.335 102.563C293.625 102 293.295 101.177 293.347 100.093ZM303.421 103.148H302.329V101.77H303.421V103.148Z" fill="#FAFAFA"/>
</g>
<path d="M745.5 88.1484L454.5 623.148L449.5 591.148L417.5 601.648L713 62.1484L744.5 57.6484L745.5 88.1484Z" fill="#CDCAC7"/>
<path d="M533.119 450.999L534.816 447.933L526.346 438.574C526.152 438.359 525.963 438.169 525.777 438.004C525.596 437.832 525.415 437.674 525.236 437.531L525.281 437.449C525.502 437.517 525.732 437.586 525.97 437.656C526.208 437.725 526.47 437.785 526.755 437.835L539.206 439.996L541.101 436.571L523.079 433.78L521.15 437.266L533.119 450.999ZM531.613 446.121L536.049 438.102L533.331 437.496L529.649 444.151L531.613 446.121ZM525.575 429.388L543.506 432.344L545.446 428.837L533.409 415.227L531.679 418.355L539.748 427.372C539.889 427.521 540.028 427.665 540.165 427.804C540.3 427.932 540.455 428.071 540.63 428.222L540.585 428.304C540.364 428.235 540.164 428.178 539.984 428.132C539.808 428.079 539.612 428.038 539.396 428.008L527.498 425.912L525.575 429.388ZM548.969 422.348L554.539 412.279L552.068 410.911L548.273 417.772L544.284 415.565L547.506 409.74L545.117 408.419L541.895 414.243L538.316 412.263L542.049 405.516L539.547 404.132L534.039 414.089L548.969 422.348ZM555.628 410.31L557.183 407.5L548.354 402.616C548.121 402.487 547.89 402.364 547.661 402.246C547.429 402.118 547.192 401.996 546.952 401.881L546.992 401.809C547.242 401.858 547.492 401.898 547.742 401.93C547.997 401.954 548.26 401.97 548.533 401.978L560.252 401.953L562.158 398.507L547.227 390.248L545.679 393.047L554.58 397.971C554.812 398.1 555.038 398.224 555.256 398.345C555.472 398.456 555.698 398.572 555.934 398.694L555.894 398.765C555.641 398.723 555.39 398.692 555.143 398.671C554.899 398.643 554.641 398.626 554.369 398.618L542.587 398.636L540.698 402.05L555.628 410.31ZM558.201 392.756C560.177 393.849 561.93 394.109 563.461 393.536C564.985 392.96 566.213 391.831 567.143 390.149C568.062 388.488 568.359 386.862 568.033 385.271C567.705 383.67 566.553 382.323 564.577 381.23L555.112 375.994L553.348 379.183L563.059 384.555C564.187 385.179 564.851 385.85 565.052 386.569C565.253 387.287 565.142 388.029 564.718 388.795C564.291 389.567 563.723 390.061 563.015 390.276C562.3 390.488 561.375 390.279 560.24 389.652L550.529 384.28L548.736 387.52L558.201 392.756ZM571.546 381.536L577.116 371.467L574.645 370.099L570.85 376.96L566.861 374.753L570.083 368.928L567.694 367.607L564.472 373.431L560.893 371.451L564.626 364.704L562.124 363.32L556.616 373.277L571.546 381.536ZM581.019 364.412L586.317 354.834L583.815 353.45L580.321 359.767L567.893 352.891L566.089 356.152L581.019 364.412ZM587.304 353.05L592.875 342.98L590.404 341.613L586.609 348.473L582.62 346.266L585.842 340.442L583.453 339.12L580.231 344.945L576.652 342.965L580.384 336.218L577.882 334.834L572.374 344.79L587.304 353.05ZM571.695 340.571L573.784 339.022L572.277 334.17L569.494 335.858L571.695 340.571ZM586.672 337.634C589.092 338.972 591.251 339.372 593.148 338.832C595.041 338.281 596.521 337.042 597.588 335.114C598.654 333.187 598.919 331.271 598.383 329.367C597.84 327.46 596.359 325.837 593.939 324.498L593.037 323.999C590.617 322.66 588.458 322.269 586.56 322.827C584.656 323.38 583.17 324.621 582.104 326.549C581.037 328.477 580.778 330.391 581.324 332.291C581.868 334.181 583.35 335.796 585.77 337.134L586.672 337.634ZM588.983 334.546L587.168 333.542C585.657 332.706 584.705 331.805 584.312 330.837C583.922 329.863 584 328.883 584.544 327.899C585.089 326.914 585.879 326.325 586.916 326.13C587.952 325.936 589.225 326.256 590.736 327.092L592.551 328.096C594.055 328.928 595.003 329.837 595.396 330.822C595.788 331.807 595.712 332.791 595.168 333.776C594.623 334.76 593.831 335.344 592.792 335.528C591.757 335.705 590.487 335.378 588.983 334.546ZM596.707 323.9L600.037 317.881L597.402 316.423L594.072 322.442L596.707 323.9ZM606.296 318.719L611.595 309.141L609.093 307.757L605.598 314.074L593.17 307.198L591.366 310.459L606.296 318.719ZM611.754 308.854L613.45 305.788L604.98 296.429C604.786 296.214 604.597 296.025 604.411 295.859C604.23 295.688 604.049 295.53 603.87 295.386L603.915 295.304C604.136 295.372 604.366 295.441 604.604 295.511C604.843 295.58 605.104 295.64 605.389 295.69L617.84 297.851L619.735 294.426L601.713 291.635L599.784 295.121L611.754 308.854ZM610.247 303.976L614.683 295.957L611.965 295.351L608.283 302.006L610.247 303.976ZM613.005 290.033C615.39 291.353 617.537 291.75 619.443 291.225C621.35 290.699 622.886 289.384 624.051 287.278C624.83 285.87 625.258 284.571 625.336 283.382C625.41 282.182 625.332 281.202 625.102 280.44L619.041 277.088L615.791 282.963L618.139 284.262L619.637 281.555L622.262 283.007C622.332 283.51 622.32 283.991 622.228 284.448C622.132 284.896 621.935 285.389 621.636 285.929C621.043 287.003 620.213 287.646 619.148 287.861C618.083 288.075 616.813 287.774 615.336 286.957L613.49 285.936C612.02 285.123 611.083 284.234 610.68 283.27C610.273 282.295 610.336 281.325 610.869 280.361C611.368 279.459 611.967 278.901 612.664 278.689C613.362 278.477 614.042 278.554 614.706 278.921L614.859 279.006L616.641 275.786L616.415 275.662C615.051 274.916 613.639 274.813 612.179 275.354C610.713 275.891 609.476 277.068 608.47 278.887C607.366 280.883 607.098 282.828 607.666 284.723C608.238 286.611 609.716 288.214 612.102 289.534L613.005 290.033ZM628.193 279.137L629.997 275.876L624.593 272.887L625.869 270.579C626.784 268.925 627.076 267.381 626.744 265.948C626.412 264.514 625.501 263.385 624.011 262.561C622.541 261.747 621.128 261.582 619.772 262.064C618.416 262.546 617.277 263.621 616.354 265.289L613.263 270.878L628.193 279.137ZM622.275 271.605L617.466 268.944L618.601 266.893C619.077 266.032 619.627 265.546 620.251 265.436C620.871 265.315 621.547 265.456 622.279 265.861C623.017 266.27 623.51 266.774 623.758 267.376C624.002 267.966 623.886 268.692 623.41 269.554L622.275 271.605ZM632.618 271.139L634.614 267.529L625.462 267.247L623.97 270.721L632.618 271.139ZM634.558 267.632L636.254 264.566L627.784 255.206C627.59 254.992 627.401 254.802 627.215 254.637C627.034 254.465 626.853 254.307 626.674 254.164L626.719 254.082C626.94 254.15 627.17 254.219 627.408 254.289C627.647 254.358 627.908 254.418 628.193 254.468L640.644 256.629L642.539 253.204L624.517 250.412L622.588 253.899L634.558 267.632ZM633.051 262.754L637.487 254.735L634.769 254.129L631.087 260.784L633.051 262.754ZM643.191 252.025L644.746 249.215L635.917 244.331C635.684 244.202 635.453 244.079 635.224 243.961C634.992 243.832 634.755 243.711 634.515 243.596L634.555 243.524C634.805 243.573 635.055 243.613 635.305 243.644C635.56 243.669 635.823 243.685 636.095 243.693L647.815 243.667L649.721 240.222L634.79 231.963L633.242 234.762L642.142 239.686C642.375 239.814 642.6 239.939 642.819 240.06C643.035 240.171 643.261 240.287 643.497 240.409L643.457 240.48C643.204 240.438 642.953 240.407 642.706 240.386C642.462 240.358 642.204 240.341 641.932 240.333L630.15 240.351L628.261 243.765L643.191 252.025ZM644.011 233.983C646.397 235.303 648.543 235.7 650.45 235.175C652.357 234.649 653.893 233.334 655.057 231.228C655.836 229.82 656.265 228.521 656.342 227.332C656.417 226.132 656.339 225.152 656.108 224.39L650.048 221.038L646.797 226.913L649.146 228.212L650.643 225.505L653.268 226.958C653.338 227.461 653.327 227.941 653.235 228.399C653.139 228.846 652.942 229.339 652.643 229.879C652.049 230.953 651.22 231.596 650.155 231.811C649.09 232.025 647.819 231.724 646.343 230.907L644.497 229.886C643.027 229.073 642.09 228.184 641.686 227.22C641.279 226.245 641.342 225.275 641.876 224.311C642.375 223.409 642.973 222.852 643.671 222.639C644.369 222.427 645.049 222.504 645.712 222.871L645.866 222.956L647.647 219.737L647.422 219.612C646.057 218.866 644.646 218.763 643.186 219.304C641.719 219.841 640.483 221.019 639.477 222.837C638.373 224.833 638.105 226.778 638.673 228.673C639.244 230.561 640.723 232.164 643.109 233.484L644.011 233.983ZM659.199 223.087L664.77 213.017L662.299 211.65L658.504 218.51L654.515 216.304L657.737 210.479L655.348 209.158L652.126 214.982L648.547 213.002L652.279 206.255L649.777 204.871L644.269 214.828L659.199 223.087Z" fill="#1C1514"/>
<path d="M632.568 138.148H638.63V136.987H634.021V133.965H637.982V132.804H634.021V130.068H638.566V128.906H632.568V138.148ZM639.963 138.148H641.378V133.477C641.531 133.163 641.744 132.912 642.02 132.721C642.295 132.531 642.608 132.436 642.959 132.436C643.374 132.436 643.693 132.543 643.917 132.759C644.142 132.975 644.254 133.335 644.254 133.838V138.148H645.669V133.87C645.669 132.931 645.46 132.266 645.041 131.877C644.626 131.488 644.074 131.293 643.384 131.293C642.961 131.293 642.572 131.38 642.216 131.553C641.865 131.727 641.577 131.962 641.353 132.258H641.315L641.271 131.42H639.963V138.148ZM646.52 132.48H650.475V131.42H646.52V132.48ZM647.669 136.377C647.669 137.055 647.83 137.552 648.151 137.869C648.477 138.182 648.909 138.339 649.446 138.339C649.658 138.339 649.853 138.32 650.03 138.282C650.212 138.244 650.356 138.199 650.462 138.148V137.05C650.352 137.093 650.242 137.126 650.132 137.152C650.022 137.177 649.91 137.19 649.795 137.19C649.554 137.19 649.374 137.129 649.256 137.006C649.142 136.879 649.084 136.667 649.084 136.371V129.833H647.669V131.839V132.029V136.377ZM651.693 138.148H653.109V133.553C653.232 133.265 653.422 133.026 653.68 132.835C653.938 132.641 654.247 132.543 654.607 132.543C654.717 132.543 654.816 132.548 654.905 132.556C654.998 132.565 655.085 132.577 655.166 132.594V131.325C655.123 131.308 655.053 131.289 654.956 131.268C654.859 131.246 654.764 131.236 654.67 131.236C654.311 131.236 653.995 131.337 653.725 131.541C653.458 131.739 653.244 131.974 653.083 132.245H653.052L653.001 131.42H651.693V138.148ZM655.762 134.886C655.762 135.906 656.052 136.737 656.632 137.38C657.212 138.019 658.035 138.339 659.101 138.339C659.761 138.339 660.324 138.203 660.79 137.933C661.259 137.662 661.602 137.355 661.818 137.012L660.872 136.308C660.686 136.557 660.445 136.775 660.148 136.961C659.852 137.143 659.501 137.234 659.095 137.234C658.447 137.234 657.967 137.014 657.654 136.574C657.345 136.13 657.19 135.576 657.19 134.911V134.651C657.19 133.986 657.336 133.434 657.628 132.994C657.925 132.55 658.363 132.328 658.942 132.328C659.45 132.328 659.833 132.488 660.091 132.81C660.349 133.127 660.479 133.513 660.479 133.965V134.092H656.67V135.121H661.894V134.568C661.894 133.54 661.634 132.728 661.113 132.131C660.597 131.53 659.865 131.229 658.917 131.229C657.978 131.229 657.216 131.551 656.632 132.194C656.052 132.833 655.762 133.663 655.762 134.683V134.886ZM657.774 129.725L658.523 130.341L660.472 128.538L659.349 127.764L657.774 129.725ZM662.884 134.886C662.884 135.906 663.174 136.737 663.754 137.38C664.334 138.019 665.157 138.339 666.223 138.339C666.883 138.339 667.446 138.203 667.912 137.933C668.381 137.662 668.724 137.355 668.94 137.012L667.994 136.308C667.808 136.557 667.567 136.775 667.271 136.961C666.974 137.143 666.623 137.234 666.217 137.234C665.569 137.234 665.089 137.014 664.776 136.574C664.467 136.13 664.312 135.576 664.312 134.911V134.651C664.312 133.986 664.458 133.434 664.75 132.994C665.047 132.55 665.485 132.328 666.064 132.328C666.572 132.328 666.955 132.488 667.213 132.81C667.472 133.127 667.601 133.513 667.601 133.965V134.092H663.792V135.121H669.016V134.568C669.016 133.54 668.756 132.728 668.235 132.131C667.719 131.53 666.987 131.229 666.039 131.229C665.1 131.229 664.338 131.551 663.754 132.194C663.174 132.833 662.884 133.663 662.884 134.683V134.886ZM625.973 159.148H627.433V154.965H631.851V159.148H633.311V149.906H631.851V153.797H627.433V149.906H625.973V159.148ZM634.885 155.886C634.885 156.914 635.183 157.748 635.78 158.387C636.381 159.021 637.178 159.339 638.173 159.339C639.163 159.339 639.959 159.021 640.56 158.387C641.16 157.748 641.461 156.914 641.461 155.886V155.683C641.461 154.654 641.16 153.823 640.56 153.188C639.959 152.549 639.163 152.229 638.173 152.229C637.178 152.229 636.381 152.549 635.78 153.188C635.183 153.823 634.885 154.654 634.885 155.683V155.886ZM636.332 155.651C636.332 154.982 636.486 154.432 636.795 154C637.109 153.569 637.568 153.353 638.173 153.353C638.774 153.353 639.231 153.569 639.544 154C639.857 154.432 640.014 154.982 640.014 155.651V155.911C640.014 156.584 639.857 157.136 639.544 157.568C639.235 158 638.778 158.215 638.173 158.215C637.568 158.215 637.109 158 636.795 157.568C636.486 157.136 636.332 156.586 636.332 155.917V155.651ZM642.889 159.148H644.305V154.477C644.457 154.163 644.671 153.912 644.946 153.721C645.221 153.531 645.534 153.436 645.885 153.436C646.3 153.436 646.619 153.543 646.844 153.759C647.068 153.975 647.18 154.335 647.18 154.838V159.148H648.596V154.87C648.596 153.931 648.386 153.266 647.967 152.877C647.553 152.488 647 152.293 646.311 152.293C645.887 152.293 645.498 152.38 645.143 152.553C644.791 152.727 644.504 152.962 644.279 153.258H644.241L644.197 152.42H642.889V159.148ZM650.354 159.148H651.77V154.477C651.922 154.163 652.136 153.912 652.411 153.721C652.686 153.531 652.999 153.436 653.35 153.436C653.765 153.436 654.084 153.543 654.309 153.759C654.533 153.975 654.645 154.335 654.645 154.838V159.148H656.061V154.87C656.061 153.931 655.851 153.266 655.432 152.877C655.017 152.488 654.465 152.293 653.775 152.293C653.352 152.293 652.963 152.38 652.607 152.553C652.256 152.727 651.968 152.962 651.744 153.258H651.706L651.662 152.42H650.354V159.148ZM657.432 155.886C657.432 156.906 657.722 157.737 658.301 158.38C658.881 159.019 659.704 159.339 660.771 159.339C661.431 159.339 661.993 159.203 662.459 158.933C662.929 158.662 663.271 158.355 663.487 158.012L662.542 157.308C662.355 157.557 662.114 157.775 661.818 157.961C661.522 158.143 661.17 158.234 660.764 158.234C660.117 158.234 659.636 158.014 659.323 157.574C659.014 157.13 658.86 156.576 658.86 155.911V155.651C658.86 154.986 659.006 154.434 659.298 153.994C659.594 153.55 660.032 153.328 660.612 153.328C661.12 153.328 661.503 153.488 661.761 153.81C662.019 154.127 662.148 154.513 662.148 154.965V155.092H658.339V156.121H663.563V155.568C663.563 154.54 663.303 153.728 662.783 153.131C662.266 152.53 661.534 152.229 660.586 152.229C659.647 152.229 658.885 152.551 658.301 153.194C657.722 153.833 657.432 154.663 657.432 155.683V155.886ZM664.877 156.673C664.877 157.608 665.085 158.277 665.5 158.679C665.914 159.076 666.462 159.275 667.144 159.275C667.575 159.275 667.967 159.191 668.318 159.021C668.669 158.848 668.961 158.611 669.194 158.311H669.232L669.276 159.148H670.584V152.42H669.168V157.092C669.02 157.396 668.809 157.646 668.534 157.841C668.263 158.035 667.95 158.133 667.594 158.133C667.18 158.133 666.858 158.025 666.629 157.809C666.405 157.589 666.293 157.219 666.293 156.698V152.42H664.877V156.673ZM672.406 159.148H673.821V154.553C673.944 154.265 674.134 154.026 674.393 153.835C674.651 153.641 674.96 153.543 675.319 153.543C675.429 153.543 675.529 153.548 675.618 153.556C675.711 153.565 675.798 153.577 675.878 153.594V152.325C675.836 152.308 675.766 152.289 675.668 152.268C675.571 152.246 675.476 152.236 675.383 152.236C675.023 152.236 674.708 152.337 674.437 152.541C674.17 152.739 673.957 152.974 673.796 153.245H673.764L673.713 152.42H672.406V159.148Z" fill="black"/>
<path d="M397.961 514.148H404.023V512.987H399.415V509.965H403.375V508.804H399.415V506.068H403.959V504.906H397.961V514.148ZM405.356 514.148H406.771V509.477C406.924 509.163 407.138 508.912 407.413 508.721C407.688 508.531 408.001 508.436 408.352 508.436C408.767 508.436 409.086 508.543 409.311 508.759C409.535 508.975 409.647 509.335 409.647 509.838V514.148H411.062V509.87C411.062 508.931 410.853 508.266 410.434 507.877C410.019 507.488 409.467 507.293 408.777 507.293C408.354 507.293 407.965 507.38 407.609 507.553C407.258 507.727 406.97 507.962 406.746 508.258H406.708L406.664 507.42H405.356V514.148ZM411.913 508.48H415.868V507.42H411.913V508.48ZM413.062 512.377C413.062 513.055 413.223 513.552 413.544 513.869C413.87 514.182 414.302 514.339 414.839 514.339C415.051 514.339 415.246 514.32 415.423 514.282C415.605 514.244 415.749 514.199 415.855 514.148V513.05C415.745 513.093 415.635 513.126 415.525 513.152C415.415 513.177 415.303 513.19 415.188 513.19C414.947 513.19 414.767 513.129 414.649 513.006C414.535 512.879 414.478 512.667 414.478 512.371V505.833H413.062V507.839V508.029V512.377ZM417.086 514.148H418.502V509.553C418.625 509.265 418.815 509.026 419.073 508.835C419.331 508.641 419.64 508.543 420 508.543C420.11 508.543 420.209 508.548 420.298 508.556C420.391 508.565 420.478 508.577 420.559 508.594V507.325C420.516 507.308 420.446 507.289 420.349 507.268C420.252 507.246 420.157 507.236 420.063 507.236C419.704 507.236 419.389 507.337 419.118 507.541C418.851 507.739 418.637 507.974 418.477 508.245H418.445L418.394 507.42H417.086V514.148ZM421.155 510.886C421.155 511.906 421.445 512.737 422.025 513.38C422.605 514.019 423.428 514.339 424.494 514.339C425.154 514.339 425.717 514.203 426.183 513.933C426.652 513.662 426.995 513.355 427.211 513.012L426.265 512.308C426.079 512.557 425.838 512.775 425.542 512.961C425.245 513.143 424.894 513.234 424.488 513.234C423.84 513.234 423.36 513.014 423.047 512.574C422.738 512.13 422.583 511.576 422.583 510.911V510.651C422.583 509.986 422.729 509.434 423.021 508.994C423.318 508.55 423.756 508.328 424.335 508.328C424.843 508.328 425.226 508.488 425.484 508.81C425.743 509.127 425.872 509.513 425.872 509.965V510.092H422.063V511.121H427.287V510.568C427.287 509.54 427.027 508.728 426.506 508.131C425.99 507.53 425.258 507.229 424.31 507.229C423.371 507.229 422.609 507.551 422.025 508.194C421.445 508.833 421.155 509.663 421.155 510.683V510.886ZM423.167 505.725L423.917 506.341L425.865 504.538L424.742 503.764L423.167 505.725ZM428.277 510.886C428.277 511.906 428.567 512.737 429.147 513.38C429.727 514.019 430.55 514.339 431.616 514.339C432.276 514.339 432.839 514.203 433.305 513.933C433.774 513.662 434.117 513.355 434.333 513.012L433.387 512.308C433.201 512.557 432.96 512.775 432.664 512.961C432.367 513.143 432.016 513.234 431.61 513.234C430.962 513.234 430.482 513.014 430.169 512.574C429.86 512.13 429.706 511.576 429.706 510.911V510.651C429.706 509.986 429.852 509.434 430.144 508.994C430.44 508.55 430.878 508.328 431.458 508.328C431.965 508.328 432.348 508.488 432.606 508.81C432.865 509.127 432.994 509.513 432.994 509.965V510.092H429.185V511.121H434.409V510.568C434.409 509.54 434.149 508.728 433.628 508.131C433.112 507.53 432.38 507.229 431.432 507.229C430.493 507.229 429.731 507.551 429.147 508.194C428.567 508.833 428.277 509.663 428.277 510.683V510.886ZM438.573 510.886C438.573 511.906 438.863 512.737 439.443 513.38C440.023 514.019 440.846 514.339 441.912 514.339C442.572 514.339 443.135 514.203 443.601 513.933C444.07 513.662 444.413 513.355 444.629 513.012L443.683 512.308C443.497 512.557 443.256 512.775 442.959 512.961C442.663 513.143 442.312 513.234 441.906 513.234C441.258 513.234 440.778 513.014 440.465 512.574C440.156 512.13 440.001 511.576 440.001 510.911V510.651C440.001 509.986 440.147 509.434 440.439 508.994C440.736 508.55 441.174 508.328 441.753 508.328C442.261 508.328 442.644 508.488 442.902 508.81C443.16 509.127 443.29 509.513 443.29 509.965V510.092H439.481V511.121H444.705V510.568C444.705 509.54 444.445 508.728 443.924 508.131C443.408 507.53 442.676 507.229 441.728 507.229C440.789 507.229 440.027 507.551 439.443 508.194C438.863 508.833 438.573 509.663 438.573 510.683V510.886ZM445.651 512.124V512.168C445.651 512.837 445.896 513.366 446.387 513.755C446.882 514.144 447.595 514.339 448.526 514.339C449.453 514.339 450.151 514.146 450.621 513.761C451.095 513.376 451.332 512.873 451.332 512.25C451.332 511.658 451.137 511.201 450.748 510.879C450.363 510.554 449.794 510.308 449.041 510.143C448.292 509.982 447.803 509.832 447.574 509.692C447.346 509.553 447.231 509.362 447.231 509.121C447.231 508.888 447.331 508.694 447.53 508.537C447.729 508.381 448.046 508.302 448.482 508.302C448.922 508.302 449.246 508.391 449.453 508.569C449.665 508.742 449.771 508.979 449.771 509.28V509.35H451.167V509.305C451.167 508.67 450.922 508.167 450.431 507.794C449.944 507.418 449.297 507.229 448.488 507.229C447.68 507.229 447.035 507.416 446.552 507.788C446.074 508.156 445.835 508.63 445.835 509.21C445.835 509.756 446.038 510.19 446.444 510.511C446.851 510.829 447.43 511.07 448.184 511.235C448.924 511.4 449.4 511.554 449.612 511.698C449.823 511.842 449.929 512.054 449.929 512.333C449.929 512.612 449.804 512.839 449.555 513.012C449.309 513.181 448.964 513.266 448.52 513.266C448.08 513.266 447.727 513.177 447.46 513C447.193 512.818 447.06 512.545 447.06 512.181V512.124H445.651ZM451.827 508.48H455.782V507.42H451.827V508.48ZM452.976 512.377C452.976 513.055 453.137 513.552 453.458 513.869C453.784 514.182 454.216 514.339 454.753 514.339C454.965 514.339 455.16 514.32 455.337 514.282C455.519 514.244 455.663 514.199 455.769 514.148V513.05C455.659 513.093 455.549 513.126 455.439 513.152C455.329 513.177 455.217 513.19 455.103 513.19C454.861 513.19 454.681 513.129 454.563 513.006C454.449 512.879 454.392 512.667 454.392 512.371V505.833H452.976V507.839V508.029V512.377Z" fill="black"/>
<path d="M202.575 543.148H204.562V538.306H206.979C208.396 538.306 209.483 537.945 210.239 537.225C210.995 536.504 211.373 535.534 211.373 534.315C211.373 533.097 210.995 532.133 210.239 531.424C209.483 530.709 208.396 530.352 206.979 530.352H202.575V543.148ZM204.562 536.741V531.925H206.882C207.813 531.925 208.464 532.15 208.833 532.602C209.202 533.053 209.387 533.624 209.387 534.315C209.387 535.013 209.202 535.593 208.833 536.056C208.464 536.513 207.813 536.741 206.882 536.741H204.562ZM212.437 540.459C212.437 541.396 212.735 542.108 213.333 542.595C213.937 543.075 214.681 543.315 215.565 543.315C216.321 543.315 216.942 543.175 217.429 542.894C217.921 542.606 218.267 542.278 218.466 541.909C218.489 542.132 218.53 542.36 218.589 542.595C218.653 542.823 218.727 543.008 218.809 543.148H220.681V543.008C220.575 542.756 220.49 542.463 220.426 542.129C220.367 541.789 220.338 541.432 220.338 541.057V536.882C220.338 535.827 220.021 535.042 219.389 534.526C218.756 534.005 217.868 533.744 216.726 533.744C215.583 533.744 214.669 534.014 213.983 534.553C213.298 535.086 212.955 535.733 212.955 536.495V536.583H214.862V536.495C214.862 536.138 215 535.83 215.275 535.572C215.557 535.309 216.017 535.177 216.655 535.177C217.3 535.177 217.751 535.335 218.009 535.651C218.272 535.962 218.404 536.369 218.404 536.873V537.479H216.418C215.258 537.485 214.303 537.746 213.553 538.262C212.809 538.777 212.437 539.51 212.437 540.459ZM214.37 540.327C214.37 539.841 214.561 539.46 214.941 539.185C215.328 538.903 215.905 538.763 216.673 538.763H218.404V539.923C218.404 540.415 218.17 540.866 217.701 541.276C217.238 541.687 216.702 541.892 216.093 541.892C215.501 541.892 215.064 541.754 214.783 541.479C214.508 541.197 214.37 540.813 214.37 540.327ZM222.772 543.148H224.706V536.899C224.876 536.501 225.137 536.173 225.488 535.915C225.846 535.651 226.265 535.52 226.745 535.52C226.892 535.52 227.026 535.525 227.149 535.537C227.278 535.549 227.398 535.566 227.51 535.59V533.867C227.451 533.844 227.354 533.82 227.22 533.797C227.085 533.768 226.953 533.753 226.824 533.753C226.338 533.753 225.913 533.891 225.55 534.166C225.187 534.436 224.894 534.758 224.671 535.133H224.627L224.565 533.999H222.772V543.148ZM228.978 543.148H230.902V540.143L236.686 533.999H234.515L230.902 537.893V529.728H228.978V543.148ZM234.831 543.148H237.099L232.625 537.198L231.403 538.552L234.831 543.148ZM238.215 543.148H240.148V533.999H238.215V543.148ZM238.004 531.257C238.004 531.567 238.104 531.831 238.303 532.048C238.508 532.259 238.801 532.364 239.182 532.364C239.557 532.364 239.844 532.259 240.043 532.048C240.248 531.831 240.351 531.567 240.351 531.257C240.351 530.946 240.248 530.686 240.043 530.475C239.844 530.264 239.557 530.158 239.182 530.158C238.801 530.158 238.508 530.264 238.303 530.475C238.104 530.686 238.004 530.946 238.004 531.257ZM242.653 543.148H244.578V536.794C244.783 536.372 245.07 536.032 245.439 535.774C245.814 535.511 246.236 535.379 246.705 535.379C247.256 535.379 247.681 535.525 247.979 535.818C248.284 536.105 248.437 536.592 248.437 537.277V543.148H250.37V537.286C250.37 536.026 250.089 535.136 249.526 534.614C248.97 534.087 248.229 533.823 247.303 533.823C246.717 533.823 246.184 533.943 245.703 534.184C245.229 534.418 244.845 534.737 244.552 535.142H244.499L244.446 533.999H242.653V543.148ZM252.603 545.697C253.042 546.066 253.584 546.371 254.229 546.611C254.879 546.857 255.591 546.98 256.364 546.98C257.618 546.98 258.641 546.623 259.432 545.908C260.223 545.193 260.618 544.162 260.618 542.814V533.999H258.834L258.772 535.15H258.72C258.497 534.781 258.148 534.468 257.674 534.21C257.199 533.952 256.654 533.823 256.039 533.823C254.873 533.823 253.938 534.254 253.235 535.115C252.538 535.977 252.189 537.084 252.189 538.438V538.719C252.189 540.066 252.538 541.171 253.235 542.032C253.938 542.888 254.87 543.315 256.03 543.315C256.657 543.315 257.193 543.207 257.639 542.99C258.084 542.768 258.436 542.469 258.693 542.094V542.858C258.693 543.69 258.474 544.323 258.034 544.757C257.595 545.196 257.009 545.416 256.276 545.416C255.696 545.416 255.169 545.305 254.694 545.082C254.22 544.865 253.859 544.622 253.613 544.353L252.603 545.697ZM254.158 538.754V538.394C254.158 537.521 254.349 536.794 254.729 536.214C255.11 535.634 255.702 535.344 256.505 535.344C257.044 535.344 257.501 535.493 257.876 535.792C258.251 536.085 258.523 536.431 258.693 536.829V540.327C258.529 540.708 258.257 541.048 257.876 541.347C257.501 541.646 257.047 541.795 256.514 541.795C255.705 541.795 255.11 541.508 254.729 540.934C254.349 540.354 254.158 539.627 254.158 538.754ZM177.192 572.148H185.015V570.558H179.179V559.352H177.192V572.148ZM186.113 567.71C186.113 569.104 186.506 570.235 187.291 571.103C188.076 571.97 189.187 572.403 190.622 572.403C191.524 572.403 192.292 572.219 192.925 571.85C193.558 571.475 194.018 571.047 194.305 570.566L192.995 569.644C192.749 569.983 192.427 570.279 192.028 570.531C191.63 570.777 191.155 570.9 190.604 570.9C189.749 570.9 189.11 570.604 188.688 570.013C188.272 569.415 188.064 568.662 188.064 567.754V567.376C188.064 566.468 188.261 565.718 188.653 565.126C189.052 564.534 189.644 564.238 190.429 564.238C191.097 564.238 191.604 564.455 191.949 564.889C192.301 565.316 192.477 565.835 192.477 566.444V566.638H187.344V568.018H194.401V567.279C194.401 565.879 194.05 564.774 193.347 563.966C192.649 563.151 191.662 562.744 190.385 562.744C189.113 562.744 188.082 563.178 187.291 564.045C186.506 564.912 186.113 566.04 186.113 567.429V567.71ZM188.829 560.74L189.866 561.566L192.529 559.07L190.982 558.077L188.829 560.74ZM195.711 567.71C195.711 569.11 196.115 570.244 196.924 571.111C197.738 571.973 198.816 572.403 200.158 572.403C201.5 572.403 202.575 571.973 203.384 571.111C204.198 570.244 204.605 569.11 204.605 567.71V567.429C204.605 566.034 204.198 564.906 203.384 564.045C202.575 563.178 201.5 562.744 200.158 562.744C198.816 562.744 197.738 563.178 196.924 564.045C196.115 564.906 195.711 566.034 195.711 567.429V567.71ZM197.688 567.385C197.688 566.471 197.896 565.724 198.312 565.144C198.734 564.563 199.35 564.273 200.158 564.273C200.967 564.273 201.579 564.563 201.995 565.144C202.417 565.724 202.628 566.471 202.628 567.385V567.763C202.628 568.677 202.417 569.427 201.995 570.013C201.579 570.593 200.967 570.883 200.158 570.883C199.35 570.883 198.734 570.593 198.312 570.013C197.896 569.427 197.688 568.677 197.688 567.763V567.385ZM206.144 567.464H211.101V565.75H206.144V567.464ZM213.104 572.148H220.927V570.558H215.091V559.352H213.104V572.148ZM222.069 569.459C222.069 570.396 222.368 571.108 222.966 571.595C223.569 572.075 224.313 572.315 225.198 572.315C225.954 572.315 226.575 572.175 227.062 571.894C227.554 571.606 227.899 571.278 228.099 570.909C228.122 571.132 228.163 571.36 228.222 571.595C228.286 571.823 228.359 572.008 228.441 572.148H230.313V572.008C230.208 571.756 230.123 571.463 230.059 571.129C230 570.789 229.971 570.432 229.971 570.057V565.882C229.971 564.827 229.654 564.042 229.021 563.526C228.389 563.005 227.501 562.744 226.358 562.744C225.216 562.744 224.302 563.014 223.616 563.553C222.931 564.086 222.588 564.733 222.588 565.495V565.583H224.495V565.495C224.495 565.138 224.633 564.83 224.908 564.572C225.189 564.309 225.649 564.177 226.288 564.177C226.933 564.177 227.384 564.335 227.642 564.651C227.905 564.962 228.037 565.369 228.037 565.873V566.479H226.051C224.891 566.485 223.936 566.746 223.186 567.262C222.441 567.777 222.069 568.51 222.069 569.459ZM224.003 569.327C224.003 568.841 224.193 568.46 224.574 568.185C224.961 567.903 225.538 567.763 226.306 567.763H228.037V568.923C228.037 569.415 227.803 569.866 227.334 570.276C226.871 570.687 226.335 570.892 225.726 570.892C225.134 570.892 224.697 570.754 224.416 570.479C224.141 570.197 224.003 569.813 224.003 569.327ZM232.282 574.697C232.722 575.066 233.264 575.371 233.908 575.611C234.559 575.857 235.271 575.98 236.044 575.98C237.298 575.98 238.32 575.623 239.111 574.908C239.902 574.193 240.298 573.162 240.298 571.814V562.999H238.514L238.452 564.15H238.399C238.177 563.781 237.828 563.468 237.354 563.21C236.879 562.952 236.334 562.823 235.719 562.823C234.553 562.823 233.618 563.254 232.915 564.115C232.218 564.977 231.869 566.084 231.869 567.438V567.719C231.869 569.066 232.218 570.171 232.915 571.032C233.618 571.888 234.55 572.315 235.71 572.315C236.337 572.315 236.873 572.207 237.318 571.99C237.764 571.768 238.115 571.469 238.373 571.094V571.858C238.373 572.69 238.153 573.323 237.714 573.757C237.274 574.196 236.688 574.416 235.956 574.416C235.376 574.416 234.849 574.305 234.374 574.082C233.899 573.865 233.539 573.622 233.293 573.353L232.282 574.697ZM233.838 567.754V567.394C233.838 566.521 234.028 565.794 234.409 565.214C234.79 564.634 235.382 564.344 236.185 564.344C236.724 564.344 237.181 564.493 237.556 564.792C237.931 565.085 238.203 565.431 238.373 565.829V569.327C238.209 569.708 237.937 570.048 237.556 570.347C237.181 570.646 236.727 570.795 236.193 570.795C235.385 570.795 234.79 570.508 234.409 569.934C234.028 569.354 233.838 568.627 233.838 567.754ZM242.741 572.148H244.675V565.899C244.845 565.501 245.105 565.173 245.457 564.915C245.814 564.651 246.233 564.52 246.714 564.52C246.86 564.52 246.995 564.525 247.118 564.537C247.247 564.549 247.367 564.566 247.479 564.59V562.867C247.42 562.844 247.323 562.82 247.188 562.797C247.054 562.768 246.922 562.753 246.793 562.753C246.307 562.753 245.882 562.891 245.519 563.166C245.155 563.436 244.862 563.758 244.64 564.133H244.596L244.534 562.999H242.741V572.148ZM248.103 569.459C248.103 570.396 248.401 571.108 248.999 571.595C249.603 572.075 250.347 572.315 251.231 572.315C251.987 572.315 252.608 572.175 253.095 571.894C253.587 571.606 253.933 571.278 254.132 570.909C254.155 571.132 254.196 571.36 254.255 571.595C254.319 571.823 254.393 572.008 254.475 572.148H256.347V572.008C256.241 571.756 256.156 571.463 256.092 571.129C256.033 570.789 256.004 570.432 256.004 570.057V565.882C256.004 564.827 255.688 564.042 255.055 563.526C254.422 563.005 253.534 562.744 252.392 562.744C251.249 562.744 250.335 563.014 249.649 563.553C248.964 564.086 248.621 564.733 248.621 565.495V565.583H250.528V565.495C250.528 565.138 250.666 564.83 250.941 564.572C251.223 564.309 251.683 564.177 252.321 564.177C252.966 564.177 253.417 564.335 253.675 564.651C253.938 564.962 254.07 565.369 254.07 565.873V566.479H252.084C250.924 566.485 249.969 566.746 249.219 567.262C248.475 567.777 248.103 568.51 248.103 569.459ZM250.036 569.327C250.036 568.841 250.227 568.46 250.607 568.185C250.994 567.903 251.571 567.763 252.339 567.763H254.07V568.923C254.07 569.415 253.836 569.866 253.367 570.276C252.904 570.687 252.368 570.892 251.759 570.892C251.167 570.892 250.73 570.754 250.449 570.479C250.174 570.197 250.036 569.813 250.036 569.327ZM258.438 572.148H260.363V565.794C260.568 565.372 260.855 565.032 261.225 564.774C261.6 564.511 262.021 564.379 262.49 564.379C263.041 564.379 263.466 564.525 263.765 564.818C264.069 565.105 264.222 565.592 264.222 566.277V572.148H266.155V566.286C266.155 565.026 265.874 564.136 265.312 563.614C264.755 563.087 264.014 562.823 263.088 562.823C262.502 562.823 261.969 562.943 261.488 563.184C261.014 563.418 260.63 563.737 260.337 564.142H260.284L260.231 562.999H258.438V572.148ZM268.388 574.697C268.827 575.066 269.369 575.371 270.014 575.611C270.664 575.857 271.376 575.98 272.149 575.98C273.403 575.98 274.426 575.623 275.217 574.908C276.008 574.193 276.403 573.162 276.403 571.814V562.999H274.619L274.558 564.15H274.505C274.282 563.781 273.934 563.468 273.459 563.21C272.984 562.952 272.439 562.823 271.824 562.823C270.658 562.823 269.724 563.254 269.021 564.115C268.323 564.977 267.975 566.084 267.975 567.438V567.719C267.975 569.066 268.323 570.171 269.021 571.032C269.724 571.888 270.655 572.315 271.815 572.315C272.442 572.315 272.979 572.207 273.424 571.99C273.869 571.768 274.221 571.469 274.479 571.094V571.858C274.479 572.69 274.259 573.323 273.819 573.757C273.38 574.196 272.794 574.416 272.062 574.416C271.481 574.416 270.954 574.305 270.479 574.082C270.005 573.865 269.645 573.622 269.398 573.353L268.388 574.697ZM269.943 567.754V567.394C269.943 566.521 270.134 565.794 270.515 565.214C270.896 564.634 271.487 564.344 272.29 564.344C272.829 564.344 273.286 564.493 273.661 564.792C274.036 565.085 274.309 565.431 274.479 565.829V569.327C274.314 569.708 274.042 570.048 273.661 570.347C273.286 570.646 272.832 570.795 272.299 570.795C271.49 570.795 270.896 570.508 270.515 569.934C270.134 569.354 269.943 568.627 269.943 567.754ZM278.311 567.71C278.311 569.104 278.703 570.235 279.488 571.103C280.273 571.97 281.384 572.403 282.819 572.403C283.722 572.403 284.489 572.219 285.122 571.85C285.755 571.475 286.215 571.047 286.502 570.566L285.192 569.644C284.946 569.983 284.624 570.279 284.226 570.531C283.827 570.777 283.353 570.9 282.802 570.9C281.946 570.9 281.308 570.604 280.886 570.013C280.47 569.415 280.262 568.662 280.262 567.754V567.376C280.262 566.468 280.458 565.718 280.851 565.126C281.249 564.534 281.841 564.238 282.626 564.238C283.294 564.238 283.801 564.455 284.146 564.889C284.498 565.316 284.674 565.835 284.674 566.444V566.638H279.541V568.018H286.599V567.279C286.599 565.879 286.247 564.774 285.544 563.966C284.847 563.151 283.859 562.744 282.582 562.744C281.311 562.744 280.279 563.178 279.488 564.045C278.703 564.912 278.311 566.04 278.311 567.429V567.71Z" fill="black"/>
<circle cx="425" cy="52.6483" r="12" fill="#FAFAFA" stroke="#1C1514"/>
<path d="M426.66 51.494C426.66 52.7441 427.2 53.7127 428.001 54.2188V58.6295C428.001 58.9982 428.302 59.2998 428.671 59.2998C429.04 59.2998 429.341 58.9982 429.341 58.6295V45.8936C427.86 45.8902 426.66 50.1567 426.66 51.494Z" stroke="#1C1514" stroke-width="0.670312" stroke-linejoin="round"/>
<path d="M422.304 49.2417V45.8901" stroke="#1C1514" stroke-width="0.670312" stroke-linecap="round" stroke-linejoin="round"/>
<path d="M423.645 45.8901V49.2417" stroke="#1C1514" stroke-width="0.670312" stroke-linecap="round" stroke-linejoin="round"/>
<path d="M420.963 45.8904V49.9123C420.963 50.6529 421.563 51.2529 422.304 51.2529V58.6263C422.304 58.995 422.605 59.2966 422.974 59.2966C423.342 59.2966 423.644 58.995 423.644 58.6263V51.2529C424.385 51.2529 424.985 50.6529 424.985 49.9123V45.8904" stroke="#1C1514" stroke-width="0.670312" stroke-linecap="round" stroke-linejoin="round"/>
<circle cx="287" cy="32.6483" r="12" fill="#FAFAFA" stroke="#1C1514"/>
<path d="M288.66 31.4939C288.66 32.744 289.2 33.7126 290.001 34.2187V38.6294C290.001 38.998 290.302 39.2997 290.671 39.2997C291.04 39.2997 291.341 38.998 291.341 38.6294V25.8934C289.86 25.8901 288.66 30.1566 288.66 31.4939Z" stroke="#1C1514" stroke-width="0.670312" stroke-linejoin="round"/>
<path d="M284.304 29.2418V25.8903" stroke="#1C1514" stroke-width="0.670312" stroke-linecap="round" stroke-linejoin="round"/>
<path d="M285.645 25.8903V29.2418" stroke="#1C1514" stroke-width="0.670312" stroke-linecap="round" stroke-linejoin="round"/>
<path d="M282.963 25.8904V29.9123C282.963 30.6529 283.563 31.2529 284.304 31.2529V38.6263C284.304 38.995 284.605 39.2966 284.974 39.2966C285.342 39.2966 285.644 38.995 285.644 38.6263V31.2529C286.385 31.2529 286.985 30.6529 286.985 29.9123V25.8904" stroke="#1C1514" stroke-width="0.670312" stroke-linecap="round" stroke-linejoin="round"/>
<circle cx="25.5" cy="256.648" r="12" fill="#FAFAFA" stroke="#1C1514"/>
<path d="M27.1602 255.494C27.1602 256.744 27.6998 257.713 28.5008 258.219V262.629C28.5008 262.998 28.8024 263.3 29.1711 263.3C29.5398 263.3 29.8414 262.998 29.8414 262.629V249.894C28.36 249.89 27.1602 254.157 27.1602 255.494Z" stroke="#1C1514" stroke-width="0.670312" stroke-linejoin="round"/>
<path d="M22.8037 253.242V249.89" stroke="#1C1514" stroke-width="0.670312" stroke-linecap="round" stroke-linejoin="round"/>
<path d="M24.1445 249.89V253.242" stroke="#1C1514" stroke-width="0.670312" stroke-linecap="round" stroke-linejoin="round"/>
<path d="M21.4629 249.89V253.912C21.4629 254.653 22.0628 255.253 22.8035 255.253V262.626C22.8035 262.995 23.1052 263.297 23.4738 263.297C23.8425 263.297 24.1441 262.995 24.1441 262.626V255.253C24.8848 255.253 25.4848 254.653 25.4848 253.912V249.89" stroke="#1C1514" stroke-width="0.670312" stroke-linecap="round" stroke-linejoin="round"/>
<circle cx="55" cy="374.648" r="12" fill="#FAFAFA" stroke="#1C1514"/>
<path d="M56.6602 373.494C56.6602 374.744 57.1998 375.713 58.0008 376.219V380.629C58.0008 380.998 58.3024 381.3 58.6711 381.3C59.0398 381.3 59.3414 380.998 59.3414 380.629V367.894C57.86 367.89 56.6602 372.157 56.6602 373.494Z" stroke="#1C1514" stroke-width="0.670312" stroke-linejoin="round"/>
<path d="M52.3037 371.242V367.89" stroke="#1C1514" stroke-width="0.670312" stroke-linecap="round" stroke-linejoin="round"/>
<path d="M53.6445 367.89V371.242" stroke="#1C1514" stroke-width="0.670312" stroke-linecap="round" stroke-linejoin="round"/>
<path d="M50.9629 367.89V371.912C50.9629 372.653 51.5628 373.253 52.3035 373.253V380.626C52.3035 380.995 52.6052 381.297 52.9738 381.297C53.3425 381.297 53.6441 380.995 53.6441 380.626V373.253C54.3848 373.253 54.9848 372.653 54.9848 371.912V367.89" stroke="#1C1514" stroke-width="0.670312" stroke-linecap="round" stroke-linejoin="round"/>
<circle cx="215" cy="442.648" r="12" fill="#FAFAFA" stroke="#1C1514"/>
<path d="M216.66 441.494C216.66 442.744 217.2 443.713 218.001 444.219V448.629C218.001 448.998 218.302 449.3 218.671 449.3C219.04 449.3 219.341 448.998 219.341 448.629V435.894C217.86 435.89 216.66 440.157 216.66 441.494Z" stroke="#1C1514" stroke-width="0.670312" stroke-linejoin="round"/>
<path d="M212.304 439.242V435.89" stroke="#1C1514" stroke-width="0.670312" stroke-linecap="round" stroke-linejoin="round"/>
<path d="M213.645 435.89V439.242" stroke="#1C1514" stroke-width="0.670312" stroke-linecap="round" stroke-linejoin="round"/>
<path d="M210.963 435.89V439.912C210.963 440.653 211.563 441.253 212.304 441.253V448.626C212.304 448.995 212.605 449.297 212.974 449.297C213.342 449.297 213.644 448.995 213.644 448.626V441.253C214.385 441.253 214.985 440.653 214.985 439.912V435.89" stroke="#1C1514" stroke-width="0.670312" stroke-linecap="round" stroke-linejoin="round"/>
<circle cx="352" cy="441.648" r="12" fill="#FAFAFA" stroke="#1C1514"/>
<path d="M353.66 440.494C353.66 441.744 354.2 442.713 355.001 443.219V447.629C355.001 447.998 355.302 448.3 355.671 448.3C356.04 448.3 356.341 447.998 356.341 447.629V434.894C354.86 434.89 353.66 439.157 353.66 440.494Z" stroke="#1C1514" stroke-width="0.670312" stroke-linejoin="round"/>
<path d="M349.304 438.242V434.89" stroke="#1C1514" stroke-width="0.670312" stroke-linecap="round" stroke-linejoin="round"/>
<path d="M350.645 434.89V438.242" stroke="#1C1514" stroke-width="0.670312" stroke-linecap="round" stroke-linejoin="round"/>
<path d="M347.963 434.89V438.912C347.963 439.653 348.563 440.253 349.304 440.253V447.626C349.304 447.995 349.605 448.297 349.974 448.297C350.342 448.297 350.644 447.995 350.644 447.626V440.253C351.385 440.253 351.985 439.653 351.985 438.912V434.89" stroke="#1C1514" stroke-width="0.670312" stroke-linecap="round" stroke-linejoin="round"/>
<circle cx="537" cy="284.648" r="12" fill="#FAFAFA" stroke="#1C1514"/>
<path d="M538.66 283.494C538.66 284.744 539.2 285.713 540.001 286.219V290.629C540.001 290.998 540.302 291.3 540.671 291.3C541.04 291.3 541.341 290.998 541.341 290.629V277.894C539.86 277.89 538.66 282.157 538.66 283.494Z" stroke="#1C1514" stroke-width="0.670312" stroke-linejoin="round"/>
<path d="M534.304 281.242V277.89" stroke="#1C1514" stroke-width="0.670312" stroke-linecap="round" stroke-linejoin="round"/>
<path d="M535.645 277.89V281.242" stroke="#1C1514" stroke-width="0.670312" stroke-linecap="round" stroke-linejoin="round"/>
<path d="M532.963 277.89V281.912C532.963 282.653 533.563 283.253 534.304 283.253V290.626C534.304 290.995 534.605 291.297 534.974 291.297C535.342 291.297 535.644 290.995 535.644 290.626V283.253C536.385 283.253 536.985 282.653 536.985 281.912V277.89" stroke="#1C1514" stroke-width="0.670312" stroke-linecap="round" stroke-linejoin="round"/>
<circle cx="545" cy="191.648" r="12" fill="#FAFAFA" stroke="#1C1514"/>
<path d="M546.66 190.494C546.66 191.744 547.2 192.713 548.001 193.219V197.629C548.001 197.998 548.302 198.3 548.671 198.3C549.04 198.3 549.341 197.998 549.341 197.629V184.894C547.86 184.89 546.66 189.157 546.66 190.494Z" stroke="#1C1514" stroke-width="0.670312" stroke-linejoin="round"/>
<path d="M542.304 188.242V184.89" stroke="#1C1514" stroke-width="0.670312" stroke-linecap="round" stroke-linejoin="round"/>
<path d="M543.645 184.89V188.242" stroke="#1C1514" stroke-width="0.670312" stroke-linecap="round" stroke-linejoin="round"/>
<path d="M540.963 184.89V188.912C540.963 189.653 541.563 190.253 542.304 190.253V197.626C542.304 197.995 542.605 198.297 542.974 198.297C543.342 198.297 543.644 197.995 543.644 197.626V190.253C544.385 190.253 544.985 189.653 544.985 188.912V184.89" stroke="#1C1514" stroke-width="0.670312" stroke-linecap="round" stroke-linejoin="round"/>
<circle cx="173" cy="16.6483" r="16.5" fill="#CC2936"/>
<rect x="160.5" y="13.1483" width="24" height="8" fill="#FAFAFA"/>
<rect x="218.5" y="60.1484" width="20" height="19" rx="3" fill="#FAFAFA"/>
<path d="M224.799 69.813C224.799 71.2476 225.172 72.3605 225.917 73.1519C226.666 73.9432 227.616 74.3389 228.767 74.3389C229.905 74.3389 230.779 74.0363 231.388 73.4312C232.002 72.8218 232.345 72.077 232.417 71.1968V71.1079H230.95L230.944 71.1968C230.897 71.7469 230.698 72.2103 230.347 72.5869C229.996 72.9593 229.471 73.1455 228.773 73.1455C228.032 73.1455 227.431 72.8599 226.97 72.2886C226.513 71.7131 226.285 70.9069 226.285 69.8701V69.1846C226.285 68.0758 226.515 67.2528 226.977 66.7153C227.442 66.1779 228.039 65.9092 228.767 65.9092C229.499 65.9092 230.042 66.0933 230.398 66.4614C230.758 66.8254 230.942 67.2887 230.95 67.8516V67.9468H232.417V67.8579C232.404 66.9777 232.076 66.235 231.433 65.6299C230.794 65.0205 229.905 64.7158 228.767 64.7158C227.62 64.7158 226.672 65.1115 225.923 65.9028C225.174 66.6899 224.799 67.8029 224.799 69.2417V69.813Z" fill="#1C1514"/>
<rect x="276.5" y="61.1484" width="20" height="19" rx="3" fill="#FAFAFA"/>
<path d="M282.26 75.1484H283.675L286.176 68.3184C286.231 68.1745 286.276 68.0369 286.31 67.9058C286.348 67.7703 286.382 67.6328 286.411 67.4932H286.475C286.504 67.6328 286.536 67.7703 286.57 67.9058C286.608 68.0369 286.654 68.1745 286.709 68.3184L289.198 75.1484H290.74L287.205 65.8491H285.783L282.26 75.1484ZM283.917 72.8569L289.02 72.8633L288.62 71.708H284.323L283.917 72.8569Z" fill="#1C1514"/>
<rect x="336.5" y="61.1484" width="20" height="19" rx="3" fill="#FAFAFA"/>
<path d="M343.428 75.1484H346.824C347.78 75.1484 348.548 74.9157 349.128 74.4502C349.712 73.9847 350.004 73.3288 350.004 72.4824C350.004 71.89 349.858 71.4118 349.566 71.0479C349.274 70.6797 348.899 70.43 348.442 70.2988V70.2734C348.815 70.1423 349.126 69.918 349.375 69.6006C349.629 69.279 349.756 68.8643 349.756 68.3564C349.756 67.5101 349.477 66.8901 348.918 66.4966C348.364 66.103 347.602 65.9062 346.633 65.9062H343.428V75.1484ZM344.862 74.0186V70.8892H346.811C347.412 70.8892 347.852 71.0288 348.131 71.3081C348.415 71.5874 348.557 71.9683 348.557 72.4507C348.557 72.9289 348.415 73.3097 348.131 73.5933C347.852 73.8768 347.412 74.0186 346.811 74.0186H344.862ZM344.862 69.791V67.0361H346.621C347.222 67.0361 347.653 67.1546 347.916 67.3916C348.182 67.6243 348.315 67.9608 348.315 68.4009C348.315 68.8368 348.182 69.1774 347.916 69.4229C347.653 69.6683 347.222 69.791 346.621 69.791H344.862Z" fill="#1C1514"/>
<defs>
<filter id="filter0_d_1285_23573" x="13.5" y="129.148" width="83" height="256" filterUnits="userSpaceOnUse" color-interpolation-filters="sRGB">
<feFlood flood-opacity="0" result="BackgroundImageFix"/>
<feColorMatrix in="SourceAlpha" type="matrix" values="0 0 0 0 0 0 0 0 0 0 0 0 0 0 0 0 0 0 127 0" result="hardAlpha"/>
<feOffset dy="4"/>
<feGaussianBlur stdDeviation="2"/>
<feComposite in2="hardAlpha" operator="out"/>
<feColorMatrix type="matrix" values="0 0 0 0 0 0 0 0 0 0 0 0 0 0 0 0 0 0 0.25 0"/>
<feBlend mode="normal" in2="BackgroundImageFix" result="effect1_dropShadow_1285_23573"/>
<feBlend mode="normal" in="SourceGraphic" in2="effect1_dropShadow_1285_23573" result="shape"/>
</filter>
<filter id="filter1_d_1285_23573" x="131.5" y="387.148" width="305" height="62" filterUnits="userSpaceOnUse" color-interpolation-filters="sRGB">
<feFlood flood-opacity="0" result="BackgroundImageFix"/>
<feColorMatrix in="SourceAlpha" type="matrix" values="0 0 0 0 0 0 0 0 0 0 0 0 0 0 0 0 0 0 127 0" result="hardAlpha"/>
<feOffset dy="4"/>
<feGaussianBlur stdDeviation="2"/>
<feComposite in2="hardAlpha" operator="out"/>
<feColorMatrix type="matrix" values="0 0 0 0 0 0 0 0 0 0 0 0 0 0 0 0 0 0 0.25 0"/>
<feBlend mode="normal" in2="BackgroundImageFix" result="effect1_dropShadow_1285_23573"/>
<feBlend mode="normal" in="SourceGraphic" in2="effect1_dropShadow_1285_23573" result="shape"/>
</filter>
<filter id="filter2_d_1285_23573" x="492.5" y="262.148" width="44" height="82" filterUnits="userSpaceOnUse" color-interpolation-filters="sRGB">
<feFlood flood-opacity="0" result="BackgroundImageFix"/>
<feColorMatrix in="SourceAlpha" type="matrix" values="0 0 0 0 0 0 0 0 0 0 0 0 0 0 0 0 0 0 127 0" result="hardAlpha"/>
<feOffset dy="4"/>
<feGaussianBlur stdDeviation="2"/>
<feComposite in2="hardAlpha" operator="out"/>
<feColorMatrix type="matrix" values="0 0 0 0 0 0 0 0 0 0 0 0 0 0 0 0 0 0 0.25 0"/>
<feBlend mode="normal" in2="BackgroundImageFix" result="effect1_dropShadow_1285_23573"/>
<feBlend mode="normal" in="SourceGraphic" in2="effect1_dropShadow_1285_23573" result="shape"/>
</filter>
<filter id="filter3_d_1285_23573" x="494.5" y="128.148" width="49" height="135" filterUnits="userSpaceOnUse" color-interpolation-filters="sRGB">
<feFlood flood-opacity="0" result="BackgroundImageFix"/>
<feColorMatrix in="SourceAlpha" type="matrix" values="0 0 0 0 0 0 0 0 0 0 0 0 0 0 0 0 0 0 127 0" result="hardAlpha"/>
<feOffset dy="4"/>
<feGaussianBlur stdDeviation="2"/>
<feComposite in2="hardAlpha" operator="out"/>
<feColorMatrix type="matrix" values="0 0 0 0 0 0 0 0 0 0 0 0 0 0 0 0 0 0 0.25 0"/>
<feBlend mode="normal" in2="BackgroundImageFix" result="effect1_dropShadow_1285_23573"/>
<feBlend mode="normal" in="SourceGraphic" in2="effect1_dropShadow_1285_23573" result="shape"/>
</filter>
<filter id="filter4_d_1285_23573" x="259.5" y="67.1484" width="54" height="54" filterUnits="userSpaceOnUse" color-interpolation-filters="sRGB">
<feFlood flood-opacity="0" result="BackgroundImageFix"/>
<feColorMatrix in="SourceAlpha" type="matrix" values="0 0 0 0 0 0 0 0 0 0 0 0 0 0 0 0 0 0 127 0" result="hardAlpha"/>
<feOffset dy="4"/>
<feGaussianBlur stdDeviation="2"/>
<feComposite in2="hardAlpha" operator="out"/>
<feColorMatrix type="matrix" values="0 0 0 0 0 0 0 0 0 0 0 0 0 0 0 0 0 0 0.25 0"/>
<feBlend mode="normal" in2="BackgroundImageFix" result="effect1_dropShadow_1285_23573"/>
<feBlend mode="normal" in="SourceGraphic" in2="effect1_dropShadow_1285_23573" result="shape"/>
</filter>
<filter id="filter5_d_1285_23573" x="192.5" y="41.6483" width="189" height="79.5001" filterUnits="userSpaceOnUse" color-interpolation-filters="sRGB">
<feFlood flood-opacity="0" result="BackgroundImageFix"/>
<feColorMatrix in="SourceAlpha" type="matrix" values="0 0 0 0 0 0 0 0 0 0 0 0 0 0 0 0 0 0 127 0" result="hardAlpha"/>
<feOffset dy="4"/>
<feGaussianBlur stdDeviation="2"/>
<feComposite in2="hardAlpha" operator="out"/>
<feColorMatrix type="matrix" values="0 0 0 0 0 0 0 0 0 0 0 0 0 0 0 0 0 0 0.25 0"/>
<feBlend mode="normal" in2="BackgroundImageFix" result="effect1_dropShadow_1285_23573"/>
<feBlend mode="normal" in="SourceGraphic" in2="effect1_dropShadow_1285_23573" result="shape"/>
</filter>
<filter id="filter6_d_1285_23573" x="128.5" y="51.1484" width="48" height="82" filterUnits="userSpaceOnUse" color-interpolation-filters="sRGB">
<feFlood flood-opacity="0" result="BackgroundImageFix"/>
<feColorMatrix in="SourceAlpha" type="matrix" values="0 0 0 0 0 0 0 0 0 0 0 0 0 0 0 0 0 0 127 0" result="hardAlpha"/>
<feOffset dy="4"/>
<feGaussianBlur stdDeviation="2"/>
<feComposite in2="hardAlpha" operator="out"/>
<feColorMatrix type="matrix" values="0 0 0 0 0 0 0 0 0 0 0 0 0 0 0 0 0 0 0.25 0"/>
<feBlend mode="normal" in2="BackgroundImageFix" result="effect1_dropShadow_1285_23573"/>
<feBlend mode="normal" in="SourceGraphic" in2="effect1_dropShadow_1285_23573" result="shape"/>
</filter>
<filter id="filter7_d_1285_23573" x="133.023" y="63.3792" width="38.4766" height="55.8987" filterUnits="userSpaceOnUse" color-interpolation-filters="sRGB">
<feFlood flood-opacity="0" result="BackgroundImageFix"/>
<feColorMatrix in="SourceAlpha" type="matrix" values="0 0 0 0 0 0 0 0 0 0 0 0 0 0 0 0 0 0 127 0" result="hardAlpha"/>
<feOffset dy="4"/>
<feGaussianBlur stdDeviation="2"/>
<feComposite in2="hardAlpha" operator="out"/>
<feColorMatrix type="matrix" values="0 0 0 0 0 0 0 0 0 0 0 0 0 0 0 0 0 0 0.25 0"/>
<feBlend mode="normal" in2="BackgroundImageFix" result="effect1_dropShadow_1285_23573"/>
<feBlend mode="normal" in="SourceGraphic" in2="effect1_dropShadow_1285_23573" result="shape"/>
</filter>
<filter id="filter8_d_1285_23573" x="36.2178" y="226.842" width="38.4775" height="60.9749" filterUnits="userSpaceOnUse" color-interpolation-filters="sRGB">
<feFlood flood-opacity="0" result="BackgroundImageFix"/>
<feColorMatrix in="SourceAlpha" type="matrix" values="0 0 0 0 0 0 0 0 0 0 0 0 0 0 0 0 0 0 127 0" result="hardAlpha"/>
<feOffset dy="4"/>
<feGaussianBlur stdDeviation="2"/>
<feComposite in2="hardAlpha" operator="out"/>
<feColorMatrix type="matrix" values="0 0 0 0 0 0 0 0 0 0 0 0 0 0 0 0 0 0 0.25 0"/>
<feBlend mode="normal" in2="BackgroundImageFix" result="effect1_dropShadow_1285_23573"/>
<feBlend mode="normal" in="SourceGraphic" in2="effect1_dropShadow_1285_23573" result="shape"/>
</filter>
<filter id="filter9_d_1285_23573" x="240.464" y="409.671" width="88.0771" height="17.6721" filterUnits="userSpaceOnUse" color-interpolation-filters="sRGB">
<feFlood flood-opacity="0" result="BackgroundImageFix"/>
<feColorMatrix in="SourceAlpha" type="matrix" values="0 0 0 0 0 0 0 0 0 0 0 0 0 0 0 0 0 0 127 0" result="hardAlpha"/>
<feOffset dy="4"/>
<feGaussianBlur stdDeviation="2"/>
<feComposite in2="hardAlpha" operator="out"/>
<feColorMatrix type="matrix" values="0 0 0 0 0 0 0 0 0 0 0 0 0 0 0 0 0 0 0.25 0"/>
<feBlend mode="normal" in2="BackgroundImageFix" result="effect1_dropShadow_1285_23573"/>
<feBlend mode="normal" in="SourceGraphic" in2="effect1_dropShadow_1285_23573" result="shape"/>
</filter>
<filter id="filter10_d_1285_23573" x="510.305" y="168.427" width="17.6719" height="54.0115" filterUnits="userSpaceOnUse" color-interpolation-filters="sRGB">
<feFlood flood-opacity="0" result="BackgroundImageFix"/>
<feColorMatrix in="SourceAlpha" type="matrix" values="0 0 0 0 0 0 0 0 0 0 0 0 0 0 0 0 0 0 127 0" result="hardAlpha"/>
<feOffset dy="4"/>
<feGaussianBlur stdDeviation="2"/>
<feComposite in2="hardAlpha" operator="out"/>
<feColorMatrix type="matrix" values="0 0 0 0 0 0 0 0 0 0 0 0 0 0 0 0 0 0 0.25 0"/>
<feBlend mode="normal" in2="BackgroundImageFix" result="effect1_dropShadow_1285_23573"/>
<feBlend mode="normal" in="SourceGraphic" in2="effect1_dropShadow_1285_23573" result="shape"/>
</filter>
<filter id="filter11_d_1285_23573" x="505.305" y="271.978" width="17.6719" height="61.8333" filterUnits="userSpaceOnUse" color-interpolation-filters="sRGB">
<feFlood flood-opacity="0" result="BackgroundImageFix"/>
<feColorMatrix in="SourceAlpha" type="matrix" values="0 0 0 0 0 0 0 0 0 0 0 0 0 0 0 0 0 0 127 0" result="hardAlpha"/>
<feOffset dy="4"/>
<feGaussianBlur stdDeviation="2"/>
<feComposite in2="hardAlpha" operator="out"/>
<feColorMatrix type="matrix" values="0 0 0 0 0 0 0 0 0 0 0 0 0 0 0 0 0 0 0.25 0"/>
<feBlend mode="normal" in2="BackgroundImageFix" result="effect1_dropShadow_1285_23573"/>
<feBlend mode="normal" in="SourceGraphic" in2="effect1_dropShadow_1285_23573" result="shape"/>
</filter>
<filter id="filter12_d_1285_23573" x="265.25" y="93.6714" width="42.1709" height="17.6721" filterUnits="userSpaceOnUse" color-interpolation-filters="sRGB">
<feFlood flood-opacity="0" result="BackgroundImageFix"/>
<feColorMatrix in="SourceAlpha" type="matrix" values="0 0 0 0 0 0 0 0 0 0 0 0 0 0 0 0 0 0 127 0" result="hardAlpha"/>
<feOffset dy="4"/>
<feGaussianBlur stdDeviation="2"/>
<feComposite in2="hardAlpha" operator="out"/>
<feColorMatrix type="matrix" values="0 0 0 0 0 0 0 0 0 0 0 0 0 0 0 0 0 0 0.25 0"/>
<feBlend mode="normal" in2="BackgroundImageFix" result="effect1_dropShadow_1285_23573"/>
<feBlend mode="normal" in="SourceGraphic" in2="effect1_dropShadow_1285_23573" result="shape"/>
</filter>
</defs>
</svg>
