<svg width="300" height="300" viewBox="0 0 300 300" fill="none" xmlns="http://www.w3.org/2000/svg">
<rect width="300" height="300" fill="white"/>
<rect width="150" height="300" fill="#1C1514"/>
<path d="M106.03 133.566C107.849 130.019 109.043 126.172 109.022 122.376C108.913 102.271 103.299 98.7796 99.1702 94.6514C93.654 89.1353 83.1455 87.3571 75.4236 87.3572C67.7017 87.3572 35.7815 87.3572 35.7815 87.3572V212.17" stroke="#0D2069" stroke-width="7" stroke-linecap="round"/>
<path d="M89.6602 129.815C90.418 128.884 91.6965 126.526 92.0475 124.699C92.5682 121.989 92.206 115.938 92.0475 114.24C91.8632 112.266 90.1149 108.442 86.7044 106.396C83.2939 104.35 81.0202 103.213 77.496 103.213C74.6767 103.213 59.1172 103.213 51.6899 103.213L52.372 195.637H83.7486C85.5676 195.751 90.0012 195.024 93.1843 191.204C97.1633 186.429 97.1633 183.928 97.2769 179.153C97.3679 175.334 97.3148 173.166 97.2769 172.56C97.2769 166.001 95.6514 163.527 94.9492 162.689C94.2469 161.852 91.6007 158.326 80.6792 157.781C76.1375 157.554 69.2351 157.781 66.3551 157.781" stroke="#FAFAFA" stroke-width="7" stroke-linecap="round"/>
<path d="M51.6899 212.643H77.0827C76.6174 212.643 73.1875 212.643 81.2522 212.643C94.7887 212.643 104.944 204.057 108.15 199.921C112.292 194.576 114.219 187.745 114.219 176.568C114.219 158.874 108.706 151.26 103.56 147.112C100.087 144.312 91.6415 140.991 82.9565 140.991C76.0085 140.991 70.6626 140.991 67.1989 140.991" stroke="#CF3476" stroke-width="7" stroke-linecap="round"/>
<path d="M260.307 133.566C262.126 130.019 263.32 126.172 263.299 122.376C263.189 102.271 257.575 98.7796 253.447 94.6514C247.931 89.1353 237.422 87.3571 229.7 87.3572C221.978 87.3572 190.058 87.3572 190.058 87.3572V212.17" stroke="#0D2069" stroke-width="7" stroke-linecap="round"/>
<path d="M243.937 129.815C244.695 128.884 245.973 126.526 246.324 124.699C246.845 121.989 246.483 115.938 246.324 114.24C246.14 112.266 244.392 108.442 240.981 106.396C237.571 104.35 235.297 103.213 231.773 103.213C228.953 103.213 213.394 103.213 205.967 103.213L206.649 195.637H238.025C239.844 195.751 244.278 195.024 247.461 191.204C251.44 186.429 251.44 183.928 251.554 179.153C251.645 175.334 251.592 173.166 251.554 172.56C251.554 166.001 249.928 163.527 249.226 162.689C248.524 161.852 245.877 158.326 234.956 157.781C230.414 157.554 223.512 157.781 220.632 157.781" stroke="#1C1514" stroke-width="7" stroke-linecap="round"/>
<path d="M205.967 212.643H231.359C230.894 212.643 227.464 212.643 235.529 212.643C249.065 212.643 259.221 204.057 262.426 199.921C266.569 194.576 268.495 187.745 268.495 176.568C268.495 158.874 262.982 151.26 257.837 147.112C254.364 144.312 245.918 140.991 237.233 140.991C230.285 140.991 224.939 140.991 221.476 140.991" stroke="#CF3476" stroke-width="7" stroke-linecap="round"/>
</svg>
