<svg width="244" height="116" viewBox="0 0 244 116" fill="none" xmlns="http://www.w3.org/2000/svg">
<g clip-path="url(#clip0_1017_9208)">
<g filter="url(#filter0_d_1017_9208)">
<path d="M88.378 61.9333V65.3747H76.7336V76.1706H87.1994V79.612H76.7336V91.4921H88.378V94.9336H72.6321V61.9333H88.378ZM113.931 86.9192C113.931 89.5907 113.193 91.6021 111.716 92.9536C110.27 94.2736 108.18 94.9336 105.446 94.9336H98.7513V91.3507H105.917C107.08 91.3507 108.023 91.005 108.746 90.3135C109.469 89.6221 109.83 88.7892 109.83 87.815V82.912C109.83 81.9692 109.579 81.2149 109.076 80.6492C108.604 80.052 107.881 79.7534 106.907 79.7534H105.493C103.167 79.7534 101.329 79.0777 99.9771 77.7263C98.6256 76.3434 97.9499 74.3477 97.9499 71.7391V69.9476C97.9499 67.2762 98.6728 65.2804 100.118 63.9604C101.596 62.609 103.701 61.9333 106.436 61.9333H113.177V65.5162H105.964C104.801 65.5162 103.859 65.8619 103.136 66.5533C102.413 67.2447 102.051 68.0776 102.051 69.0519V72.6348C102.051 73.6091 102.366 74.4262 102.994 75.0863C103.623 75.7148 104.44 76.0291 105.446 76.0291H106.86C109.091 76.0291 110.82 76.6734 112.046 77.962C113.303 79.2506 113.931 81.1992 113.931 83.8078V86.9192ZM126.851 86.5892L125.012 94.9336H120.816L128.783 61.9333H134.205L142.031 94.9336H137.835L136.044 86.5892H126.851ZM135.289 83.0535L131.424 65.0447L127.605 83.0535H135.289ZM151.697 94.9336H147.878V61.9333H154.573L162.021 91.445V61.9333H165.84V94.9336H159.098L151.697 65.4219V94.9336ZM183.898 101.345C184.935 101.345 185.453 100.858 185.453 99.8836C185.453 99.3494 185.312 98.9879 185.029 98.7993C184.778 98.6108 184.369 98.5165 183.803 98.5165H181.493V94.8393C179.293 94.5879 177.612 93.8022 176.449 92.4821C175.318 91.1307 174.752 89.2764 174.752 86.9192V69.9476C174.752 67.2762 175.475 65.2804 176.92 63.9604C178.398 62.609 180.503 61.9333 183.238 61.9333H189.932V65.5162H182.766C181.603 65.5162 180.661 65.8619 179.938 66.5533C179.215 67.2447 178.853 68.0776 178.853 69.0519V87.815C178.853 88.7892 179.215 89.6221 179.938 90.3135C180.661 91.005 181.603 91.3507 182.766 91.3507H189.932V94.9336H184.793V95.9236C186.239 95.9236 187.276 96.1907 187.905 96.725C188.565 97.2908 188.895 98.3436 188.895 99.8836C188.895 101.707 188.486 102.901 187.669 103.467C186.883 104.064 185.909 104.362 184.746 104.362H180.739V101.345H183.898ZM217.23 86.9192C217.23 89.5907 216.491 91.6021 215.014 92.9536C213.568 94.2736 211.478 94.9336 208.744 94.9336H206.858C204.124 94.9336 202.018 94.2736 200.541 92.9536C199.095 91.6021 198.373 89.5907 198.373 86.9192V69.9476C198.373 67.2762 199.095 65.2804 200.541 63.9604C202.018 62.609 204.124 61.9333 206.858 61.9333H208.744C211.478 61.9333 213.568 62.609 215.014 63.9604C216.491 65.2804 217.23 67.2762 217.23 69.9476V86.9192ZM213.128 69.0519C213.128 68.0776 212.767 67.2447 212.044 66.5533C211.321 65.8619 210.378 65.5162 209.216 65.5162H206.387C205.224 65.5162 204.281 65.8619 203.558 66.5533C202.835 67.2447 202.474 68.0776 202.474 69.0519V87.815C202.474 88.7892 202.835 89.6221 203.558 90.3135C204.281 91.005 205.224 91.3507 206.387 91.3507H209.216C210.378 91.3507 211.321 91.005 212.044 90.3135C212.767 89.6221 213.128 88.7892 213.128 87.815V69.0519ZM228.075 94.9336H224.256V61.9333H230.95L238.399 91.445V61.9333H242.218V94.9336H235.476L228.075 65.4219V94.9336Z" fill="#FAFAFA"/>
</g>
<g filter="url(#filter1_d_1017_9208)">
<path d="M57.1774 39.2787C58.5173 36.666 59.3965 33.8318 59.3812 31.0361C59.3006 16.2261 55.1651 13.6544 52.1241 10.6135C48.0608 6.55026 40.3201 5.24045 34.632 5.24048C28.9439 5.2405 5.43106 5.24048 5.43106 5.24048V97.1795" stroke="#234673" stroke-width="5.1563" stroke-linecap="round"/>
<path d="M45.1189 36.5154C45.6771 35.8295 46.6189 34.0927 46.8774 32.747C47.2609 30.7509 46.9941 26.2936 46.8774 25.0429C46.7417 23.5886 45.4538 20.7721 42.9416 19.2648C40.4294 17.7575 38.7546 16.92 36.1586 16.92C34.0818 16.92 22.6205 16.92 17.1494 16.92L17.6519 85.0013H40.7643C42.1042 85.085 45.3701 84.5491 47.7148 81.7354C50.6457 78.2183 50.6457 76.376 50.7295 72.8589C50.7965 70.0452 50.7574 68.4485 50.7295 68.0019C50.7295 63.1708 49.5321 61.3481 49.0148 60.7313C48.4975 60.1145 46.5483 57.5171 38.5033 57.1156C35.1579 56.9486 30.0734 57.1156 27.952 57.1156" stroke="#FAFAFA" stroke-width="5.1563" stroke-linecap="round"/>
<path d="M17.1494 97.5276H35.8541C35.5114 97.5276 32.9849 97.5276 38.9254 97.5276C48.8966 97.5276 56.3774 91.2031 58.7384 88.1567C61.7901 84.2191 63.209 79.1877 63.209 70.9542C63.209 57.9205 59.148 52.3125 55.3578 49.2571C52.7993 47.1946 46.5784 44.7483 40.1809 44.7483C35.0629 44.7483 31.1249 44.7483 28.5736 44.7483" stroke="#CF3476" stroke-width="5.1563" stroke-linecap="round"/>
</g>
<g filter="url(#filter2_d_1017_9208)">
<path d="M78.8027 107.821V109.111H74.8781V114.68H73.34V102.305H79.2447V103.596H74.8781V107.821H78.8027ZM89.3223 111.675C89.3223 112.677 89.0453 113.431 88.4914 113.938C87.9492 114.433 87.1655 114.68 86.1401 114.68H85.433C84.4076 114.68 83.6179 114.433 83.064 113.938C82.5219 113.431 82.2508 112.677 82.2508 111.675V105.31C82.2508 104.309 82.5219 103.56 83.064 103.065C83.6179 102.558 84.4076 102.305 85.433 102.305H86.1401C87.1655 102.305 87.9492 102.558 88.4914 103.065C89.0453 103.56 89.3223 104.309 89.3223 105.31V111.675ZM87.7842 104.975C87.7842 104.609 87.6487 104.297 87.3776 104.038C87.1065 103.778 86.753 103.649 86.3169 103.649H85.2562C84.8201 103.649 84.4665 103.778 84.1954 104.038C83.9244 104.297 83.7888 104.609 83.7888 104.975V112.011C83.7888 112.376 83.9244 112.688 84.1954 112.948C84.4665 113.207 84.8201 113.337 85.2562 113.337H86.3169C86.753 113.337 87.1065 113.207 87.3776 112.948C87.6487 112.688 87.7842 112.376 87.7842 112.011V104.975ZM98.8695 111.675C98.8695 112.677 98.5925 113.431 98.0386 113.938C97.4964 114.433 96.7127 114.68 95.6873 114.68H94.9802C93.9548 114.68 93.1652 114.433 92.6112 113.938C92.0691 113.431 91.798 112.677 91.798 111.675V105.31C91.798 104.309 92.0691 103.56 92.6112 103.065C93.1652 102.558 93.9548 102.305 94.9802 102.305H95.6873C96.7127 102.305 97.4964 102.558 98.0386 103.065C98.5925 103.56 98.8695 104.309 98.8695 105.31V111.675ZM97.3314 104.975C97.3314 104.609 97.1959 104.297 96.9248 104.038C96.6538 103.778 96.3002 103.649 95.8641 103.649H94.8034C94.3673 103.649 94.0137 103.778 93.7427 104.038C93.4716 104.297 93.336 104.609 93.336 104.975V112.011C93.336 112.376 93.4716 112.688 93.7427 112.948C94.0137 113.207 94.3673 113.337 94.8034 113.337H95.8641C96.3002 113.337 96.6538 113.207 96.9248 112.948C97.1959 112.688 97.3314 112.376 97.3314 112.011V104.975ZM104.103 114.68V103.649H101.292V102.305H108.452V103.649H105.641V114.68H104.103ZM117.699 111.887C117.699 112.901 117.463 113.619 116.992 114.044C116.532 114.468 115.766 114.68 114.693 114.68H111.158V102.305H114.481C115.53 102.305 116.296 102.517 116.779 102.941C117.274 103.366 117.522 104.073 117.522 105.063V106.071C117.522 106.978 117.198 107.662 116.55 108.121C117.316 108.546 117.699 109.27 117.699 110.296V111.887ZM115.984 104.904C115.984 104.456 115.878 104.132 115.666 103.931C115.465 103.731 115.141 103.631 114.693 103.631H112.696V107.538H114.693C115.059 107.538 115.365 107.42 115.613 107.184C115.86 106.949 115.984 106.636 115.984 106.247V104.904ZM116.161 110.137C116.161 109.748 116.043 109.441 115.807 109.217C115.571 108.982 115.259 108.864 114.87 108.864H112.696V113.354H114.852C115.3 113.354 115.63 113.254 115.842 113.054C116.055 112.842 116.161 112.512 116.161 112.064V110.137ZM122.261 111.551L121.571 114.68H119.998L122.985 102.305H125.018L127.953 114.68H126.38L125.708 111.551H122.261ZM125.425 110.225L123.975 103.472L122.543 110.225H125.425ZM132.32 102.305V113.337H136.263V114.68H130.782V102.305H132.32ZM141.868 102.305V113.337H145.81V114.68H140.33V102.305H141.868Z" fill="#FAFAFA"/>
</g>
</g>
<defs>
<filter id="filter0_d_1017_9208" x="69.6857" y="61.9333" width="175.478" height="48.3219" filterUnits="userSpaceOnUse" color-interpolation-filters="sRGB">
<feFlood flood-opacity="0" result="BackgroundImageFix"/>
<feColorMatrix in="SourceAlpha" type="matrix" values="0 0 0 0 0 0 0 0 0 0 0 0 0 0 0 0 0 0 127 0" result="hardAlpha"/>
<feOffset dy="2.94646"/>
<feGaussianBlur stdDeviation="1.47323"/>
<feComposite in2="hardAlpha" operator="out"/>
<feColorMatrix type="matrix" values="0 0 0 0 0 0 0 0 0 0 0 0 0 0 0 0 0 0 0.25 0"/>
<feBlend mode="normal" in2="BackgroundImageFix" result="effect1_dropShadow_1017_9208"/>
<feBlend mode="normal" in="SourceGraphic" in2="effect1_dropShadow_1017_9208" result="shape"/>
</filter>
<filter id="filter1_d_1017_9208" x="-0.0935521" y="2.66235" width="68.8271" height="103.336" filterUnits="userSpaceOnUse" color-interpolation-filters="sRGB">
<feFlood flood-opacity="0" result="BackgroundImageFix"/>
<feColorMatrix in="SourceAlpha" type="matrix" values="0 0 0 0 0 0 0 0 0 0 0 0 0 0 0 0 0 0 127 0" result="hardAlpha"/>
<feOffset dy="2.94646"/>
<feGaussianBlur stdDeviation="1.47323"/>
<feComposite in2="hardAlpha" operator="out"/>
<feColorMatrix type="matrix" values="0 0 0 0 0 0 0 0 0 0 0 0 0 0 0 0 0 0 0.25 0"/>
<feBlend mode="normal" in2="BackgroundImageFix" result="effect1_dropShadow_1017_9208"/>
<feBlend mode="normal" in="SourceGraphic" in2="effect1_dropShadow_1017_9208" result="shape"/>
</filter>
<filter id="filter2_d_1017_9208" x="70.3935" y="102.305" width="78.3629" height="18.2679" filterUnits="userSpaceOnUse" color-interpolation-filters="sRGB">
<feFlood flood-opacity="0" result="BackgroundImageFix"/>
<feColorMatrix in="SourceAlpha" type="matrix" values="0 0 0 0 0 0 0 0 0 0 0 0 0 0 0 0 0 0 127 0" result="hardAlpha"/>
<feOffset dy="2.94646"/>
<feGaussianBlur stdDeviation="1.47323"/>
<feComposite in2="hardAlpha" operator="out"/>
<feColorMatrix type="matrix" values="0 0 0 0 0 0 0 0 0 0 0 0 0 0 0 0 0 0 0.25 0"/>
<feBlend mode="normal" in2="BackgroundImageFix" result="effect1_dropShadow_1017_9208"/>
<feBlend mode="normal" in="SourceGraphic" in2="effect1_dropShadow_1017_9208" result="shape"/>
</filter>
<clipPath id="clip0_1017_9208">
<rect width="242.683" height="115.809" fill="white" transform="translate(0.383362 0.0374756)"/>
</clipPath>
</defs>
</svg>
