<svg width="24" height="35" viewBox="0 0 24 35" fill="none" xmlns="http://www.w3.org/2000/svg">
<g filter="url(#filter0_d_1302_20154)">
<path d="M19.8777 12.5222C20.3216 11.6565 20.6129 10.7174 20.6079 9.79112C20.5811 4.88403 19.2109 4.03193 18.2033 3.02435C16.857 1.67806 14.2922 1.24407 12.4075 1.24408C10.5229 1.24409 2.73218 1.24408 2.73218 1.24408V31.7069" stroke="#FAFAFA" stroke-width="1.70847" stroke-linecap="round"/>
<path d="M15.8823 11.6066C16.0673 11.3794 16.3793 10.8039 16.465 10.358C16.592 9.69661 16.5036 8.21975 16.465 7.80535C16.42 7.32348 15.9933 6.39029 15.1609 5.89085C14.3285 5.39142 13.7736 5.11395 12.9134 5.11395C12.2253 5.11395 8.42776 5.11395 6.61499 5.11395L6.78147 27.6718H14.4395C14.8834 27.6995 15.9655 27.5219 16.7424 26.5897C17.7136 25.4243 17.7136 24.8139 17.7413 23.6485C17.7635 22.7163 17.7505 22.1872 17.7413 22.0393C17.7413 20.4385 17.3446 19.8346 17.1732 19.6302C17.0018 19.4259 16.3559 18.5652 13.6903 18.4322C12.5818 18.3769 10.8972 18.4322 10.1943 18.4322" stroke="#FAFAFA" stroke-width="1.70847" stroke-linecap="round"/>
<path d="M6.61499 31.8222H12.8125C12.699 31.8222 11.8618 31.8222 13.8302 31.8222C17.134 31.8222 19.6127 29.7267 20.3949 28.7173C21.4061 27.4126 21.8762 25.7455 21.8762 23.0175C21.8762 18.6989 20.5307 16.8408 19.2748 15.8284C18.4271 15.145 16.3659 14.3345 14.2462 14.3345C12.5504 14.3345 11.2456 14.3345 10.4002 14.3345" stroke="#FAFAFA" stroke-width="1.70847" stroke-linecap="round"/>
</g>
<defs>
<filter id="filter0_d_1302_20154" x="0.901659" y="0.389832" width="22.8051" height="34.2392" filterUnits="userSpaceOnUse" color-interpolation-filters="sRGB">
<feFlood flood-opacity="0" result="BackgroundImageFix"/>
<feColorMatrix in="SourceAlpha" type="matrix" values="0 0 0 0 0 0 0 0 0 0 0 0 0 0 0 0 0 0 127 0" result="hardAlpha"/>
<feOffset dy="0.97627"/>
<feGaussianBlur stdDeviation="0.488135"/>
<feComposite in2="hardAlpha" operator="out"/>
<feColorMatrix type="matrix" values="0 0 0 0 0 0 0 0 0 0 0 0 0 0 0 0 0 0 0.25 0"/>
<feBlend mode="normal" in2="BackgroundImageFix" result="effect1_dropShadow_1302_20154"/>
<feBlend mode="normal" in="SourceGraphic" in2="effect1_dropShadow_1302_20154" result="shape"/>
</filter>
</defs>
</svg>
