<svg width="108" height="67" viewBox="0 0 108 67" fill="none" xmlns="http://www.w3.org/2000/svg">
<rect width="108" height="66.5361" fill="#0C1B59"/>
<path d="M46 32.6014C44.6773 32.5979 43.4096 32.0719 42.473 31.1378C41.5365 30.2038 41.007 28.9375 41 27.6148V15.6148C41.0035 14.2898 41.5314 13.02 42.4684 12.0831C43.4053 11.1462 44.675 10.6183 46 10.6148H47.3333C47.577 10.643 47.8017 10.7599 47.9648 10.943C48.1279 11.1261 48.2181 11.3628 48.2181 11.6081C48.2181 11.8534 48.1279 12.0901 47.9648 12.2732C47.8017 12.4563 47.577 12.5732 47.3333 12.6014H46C45.6022 12.5978 45.2076 12.6738 44.8395 12.8248C44.4714 12.9758 44.1372 13.1988 43.8565 13.4808C43.5758 13.7627 43.3543 14.0979 43.2049 14.4666C43.0555 14.8354 42.9813 15.2303 42.9867 15.6281V27.6281C42.9867 28.0226 43.0648 28.4131 43.2165 28.7772C43.3683 29.1413 43.5907 29.4718 43.8708 29.7495C44.151 30.0272 44.4834 30.2466 44.8489 30.3951C45.2143 30.5436 45.6055 30.6183 46 30.6148H62C62.3933 30.6148 62.7828 30.5371 63.146 30.3862C63.5093 30.2352 63.8391 30.014 64.1166 29.7353C64.3941 29.4565 64.6138 29.1257 64.7632 28.7618C64.9125 28.3979 64.9884 28.0081 64.9867 27.6148V15.6148C64.9884 15.2208 64.9126 14.8303 64.7634 14.4657C64.6143 14.101 64.3948 13.7693 64.1174 13.4895C63.8401 13.2097 63.5103 12.9873 63.147 12.8349C62.7837 12.6825 62.394 12.6032 62 12.6014H60.6667C60.4037 12.6015 60.1514 12.4979 59.9642 12.3133C59.7771 12.1286 59.6702 11.8777 59.6667 11.6148C59.6631 11.4806 59.6863 11.347 59.7348 11.2219C59.7833 11.0967 59.8562 10.9824 59.9492 10.8857C60.0422 10.7889 60.1536 10.7116 60.2767 10.6582C60.3999 10.6049 60.5324 10.5765 60.6667 10.5748H62C63.3227 10.5783 64.5904 11.1043 65.527 12.0384C66.4635 12.9724 66.993 14.2387 67 15.5614V27.5614C67.0071 28.2219 66.8829 28.8772 66.6346 29.4892C66.3863 30.1013 66.0189 30.6579 65.5537 31.1268C65.0886 31.5957 64.5349 31.9675 63.9248 32.2207C63.3148 32.4738 62.6605 32.6032 62 32.6014H46Z" fill="#FAFAFA"/>
<path d="M51.3335 12.6014C51.0683 12.6014 50.8139 12.4961 50.6264 12.3085C50.4389 12.121 50.3335 11.8667 50.3335 11.6014C50.3335 11.3362 50.4389 11.0819 50.6264 10.8943C50.8139 10.7068 51.0683 10.6014 51.3335 10.6014H56.6668C56.932 10.6014 57.1864 10.7068 57.3739 10.8943C57.5615 11.0819 57.6668 11.3362 57.6668 11.6014C57.6668 11.8667 57.5615 12.121 57.3739 12.3085C57.1864 12.4961 56.932 12.6014 56.6668 12.6014H51.3335Z" fill="#FAFAFA"/>
<path d="M49.3068 14.6148C48.5111 14.6148 47.748 14.2987 47.1854 13.7361C46.6228 13.1735 46.3068 12.4104 46.3068 11.6148V8.94809C46.3032 8.55363 46.3779 8.16239 46.5264 7.79695C46.6749 7.43151 46.8944 7.0991 47.1721 6.81893C47.4497 6.53877 47.7802 6.31638 48.1443 6.16462C48.5084 6.01286 48.899 5.93474 49.2934 5.93475V5.93475C50.0857 5.93823 50.8447 6.25359 51.4062 6.81257C51.9677 7.37155 52.2864 8.12917 52.2934 8.92142V11.5881C52.2956 11.9811 52.2201 12.3707 52.0714 12.7345C51.9227 13.0983 51.7036 13.4291 51.4268 13.7081C50.8644 14.2721 50.1032 14.5928 49.3068 14.6014V14.6014V14.6148ZM49.3068 7.94809C49.1761 7.94807 49.0467 7.97403 48.9261 8.02445C48.8055 8.07486 48.6961 8.14874 48.6043 8.24177C48.5125 8.33481 48.4401 8.44516 48.3913 8.56641C48.3425 8.68766 48.3183 8.8174 48.3201 8.94809V11.6148C48.3271 11.7499 48.3614 11.8822 48.421 12.0036C48.4806 12.1251 48.5642 12.2332 48.6668 12.3214C48.8358 12.4941 49.0652 12.5945 49.3068 12.6014V12.6014C49.5732 12.5979 49.8275 12.4896 50.0147 12.2999C50.2019 12.1103 50.3068 11.8545 50.3068 11.5881V8.92142C50.2998 8.66085 50.1914 8.4133 50.0046 8.23149C49.8178 8.04968 49.5674 7.94799 49.3068 7.94809V7.94809Z" fill="#FAFAFA"/>
<path d="M58.6401 14.5881C58.246 14.5899 57.8554 14.5131 57.4914 14.362C57.1273 14.2108 56.7971 13.9885 56.5201 13.7081C55.9574 13.146 55.6408 12.3835 55.6401 11.5881V8.92142C55.6401 8.12931 55.9548 7.36964 56.5149 6.80953C57.075 6.24942 57.8347 5.93475 58.6268 5.93475V5.93475C59.4191 5.93823 60.1781 6.25359 60.7396 6.81257C61.3011 7.37155 61.6198 8.12917 61.6268 8.92142V11.5881C61.6286 11.9821 61.5527 12.3725 61.4036 12.7372C61.2544 13.1018 61.0349 13.4335 60.7576 13.7133C60.4802 13.9931 60.1505 14.2156 59.7872 14.368C59.4239 14.5203 59.0341 14.5997 58.6401 14.6014V14.5881ZM58.6401 7.92142C58.3772 7.92493 58.1263 8.03183 57.9416 8.21899C57.757 8.40614 57.6534 8.6585 57.6535 8.92142V11.5881C57.6535 11.8533 57.7588 12.1077 57.9464 12.2952C58.1339 12.4827 58.3883 12.5881 58.6535 12.5881V12.5881C58.7848 12.5881 58.9148 12.5622 59.0362 12.512C59.1575 12.4617 59.2677 12.3881 59.3606 12.2952C59.4534 12.2023 59.5271 12.0921 59.5773 11.9708C59.6276 11.8494 59.6535 11.7194 59.6535 11.5881V8.92142C59.6535 8.78897 59.6272 8.65783 59.5761 8.53563C59.525 8.41343 59.4502 8.30259 59.3559 8.20956C59.2616 8.11652 59.1498 8.04314 59.0269 7.99368C58.904 7.94422 58.7726 7.91965 58.6401 7.92142V7.92142Z" fill="#FAFAFA"/>
<path d="M42 19.2681C41.7348 19.2681 41.4804 19.1627 41.2929 18.9752C41.1054 18.7876 41 18.5333 41 18.2681C41 18.0028 41.1054 17.7485 41.2929 17.561C41.4804 17.3734 41.7348 17.2681 42 17.2681H66C66.2652 17.2681 66.5196 17.3734 66.7071 17.561C66.8946 17.7485 67 18.0028 67 18.2681C67.0037 18.4004 66.9803 18.5321 66.9314 18.6551C66.8824 18.778 66.8089 18.8898 66.7153 18.9834C66.6217 19.077 66.51 19.1505 66.387 19.1994C66.264 19.2484 66.1323 19.2717 66 19.2681H42Z" fill="#FAFAFA"/>
<path d="M33.3426 45.2681H34.2595L35.9025 40.8163C35.9384 40.714 35.9702 40.6171 35.9979 40.5259C36.0283 40.4318 36.0546 40.335 36.0767 40.2354H36.1224C36.1445 40.335 36.1694 40.4318 36.197 40.5259C36.2275 40.6171 36.262 40.714 36.3008 40.8163L37.9271 45.2681H38.9395L36.6202 39.1941H35.6618L33.3426 45.2681ZM34.3715 43.7662L37.8691 43.7745L37.5869 43.0152L34.6537 43.0111L34.3715 43.7662ZM38.4997 46.9691C38.5688 46.994 38.6739 47.0175 38.815 47.0396C38.9561 47.0645 39.0861 47.077 39.205 47.077C39.6282 47.077 39.9504 46.9608 40.1717 46.7285C40.3957 46.4989 40.5078 46.1352 40.5078 45.6373V40.7458H39.5826V45.7161C39.5826 45.9374 39.5342 46.0965 39.4373 46.1933C39.3405 46.2901 39.2064 46.3385 39.0349 46.3385C38.9464 46.3385 38.8496 46.3288 38.7445 46.3094C38.6366 46.2901 38.555 46.2721 38.4997 46.2555V46.9691ZM39.4996 39.4845C39.4996 39.6283 39.5466 39.75 39.6406 39.8496C39.7347 39.9492 39.8688 39.999 40.0431 39.999C40.2201 39.999 40.3556 39.9506 40.4497 39.8537C40.5437 39.7542 40.5907 39.6311 40.5907 39.4845C40.5907 39.3407 40.5437 39.219 40.4497 39.1194C40.3556 39.0198 40.2201 38.97 40.0431 38.97C39.8688 38.97 39.7347 39.0198 39.6406 39.1194C39.5466 39.2162 39.4996 39.3379 39.4996 39.4845ZM41.4993 43.0733C41.4993 43.7565 41.7054 44.3138 42.1175 44.7453C42.5324 45.1768 43.0842 45.3925 43.7729 45.3925C44.4617 45.3925 45.0121 45.1768 45.4242 44.7453C45.8391 44.3138 46.0465 43.7565 46.0465 43.0733V42.9405C46.0465 42.2573 45.8391 41.7 45.4242 41.2685C45.0121 40.837 44.4617 40.6213 43.7729 40.6213C43.0842 40.6213 42.5324 40.837 42.1175 41.2685C41.7054 41.7 41.4993 42.2573 41.4993 42.9405V43.0733ZM42.4494 42.9364C42.4494 42.4938 42.5601 42.1204 42.7814 41.8162C43.0054 41.5092 43.3359 41.3556 43.7729 41.3556C44.21 41.3556 44.5405 41.5092 44.7645 41.8162C44.9886 42.1204 45.1006 42.4938 45.1006 42.9364V43.0733C45.1006 43.5186 44.9886 43.8948 44.7645 44.2018C44.5405 44.5061 44.21 44.6582 43.7729 44.6582C43.3359 44.6582 43.0054 44.5061 42.7814 44.2018C42.5601 43.8948 42.4494 43.5186 42.4494 43.0733V42.9364ZM46.9635 43.5712C46.9635 44.2101 47.1073 44.6665 47.3949 44.9403C47.6826 45.2141 48.0671 45.351 48.5483 45.351C48.8471 45.351 49.1195 45.2943 49.3657 45.1809C49.6146 45.0648 49.8234 44.8988 49.9922 44.6831H50.0129L50.0461 45.2681H50.9008V40.7458H49.9756V43.8657C49.8622 44.0815 49.7073 44.2585 49.5109 44.3968C49.3145 44.5323 49.0891 44.6001 48.8346 44.6001C48.5331 44.6001 48.2994 44.5213 48.1334 44.3636C47.9703 44.2059 47.8887 43.9446 47.8887 43.5795V40.7458H46.9635V43.5712ZM51.5148 41.4386H54.2323V40.7458H51.5148V41.4386ZM52.3238 44.1022C52.3238 44.5475 52.4331 44.8739 52.6516 45.0814C52.8701 45.2888 53.1619 45.3925 53.527 45.3925C53.6681 45.3925 53.7981 45.3801 53.917 45.3552C54.036 45.3303 54.1328 45.3013 54.2074 45.2681V44.5462C54.13 44.5738 54.0526 44.5959 53.9751 44.6125C53.8977 44.6291 53.8202 44.6374 53.7428 44.6374C53.574 44.6374 53.4496 44.5973 53.3694 44.5171C53.2892 44.4341 53.249 44.2945 53.249 44.0981V39.8247H52.3238V41.0279V41.1524V44.1022ZM54.7883 43.0733C54.7883 43.7565 54.9861 44.3138 55.3816 44.7453C55.7799 45.1768 56.3497 45.3925 57.0909 45.3925C57.5445 45.3925 57.9318 45.304 58.2526 45.127C58.5762 44.95 58.81 44.7536 58.9538 44.5379L58.3522 44.0566C58.225 44.2225 58.0549 44.3664 57.8419 44.4881C57.6317 44.6098 57.3814 44.6706 57.0909 44.6706C56.6235 44.6706 56.2777 44.5171 56.0537 44.2101C55.8297 43.9003 55.7176 43.5214 55.7176 43.0733V42.9364C55.7176 42.4883 55.8241 42.1107 56.0371 41.8037C56.2501 41.4939 56.5571 41.3391 56.9582 41.3391C57.3648 41.3391 57.6538 41.4566 57.8253 41.6917C57.9968 41.924 58.0825 42.2034 58.0825 42.5298V42.5422H55.3857V43.2351H59.016V42.8659C59.016 42.1771 58.8376 41.6309 58.4808 41.227C58.1268 40.8232 57.6206 40.6213 56.9623 40.6213C56.3096 40.6213 55.784 40.837 55.3857 41.2685C54.9874 41.7 54.7883 42.2573 54.7883 42.9405V43.0733ZM59.9329 45.2681H60.8581V42.173C60.9467 41.9794 61.0822 41.8162 61.2647 41.6834C61.4473 41.5506 61.6686 41.4843 61.9286 41.4843C62.0032 41.4843 62.071 41.487 62.1319 41.4926C62.1955 41.4981 62.2563 41.5078 62.3144 41.5216V40.6794C62.2867 40.6683 62.2383 40.6559 62.1692 40.642C62.1 40.6282 62.035 40.6213 61.9742 40.6213C61.7114 40.6213 61.486 40.6904 61.2979 40.8287C61.1098 40.967 60.9577 41.1275 60.8415 41.31H60.8208L60.7876 40.7458H59.9329V45.2681ZM64.8784 43.9404C64.8784 44.3968 65.0375 44.7467 65.3556 44.9901C65.6736 45.2307 66.0567 45.351 66.5048 45.351C66.8948 45.351 67.2143 45.2805 67.4632 45.1395C67.7149 44.9984 67.8961 44.8352 68.0067 44.6499C68.015 44.7633 68.0344 44.8767 68.0648 44.9901C68.098 45.1035 68.1353 45.1962 68.1768 45.2681H69.073V45.2017C69.0232 45.08 68.9831 44.9403 68.9527 44.7826C68.925 44.6222 68.9112 44.4521 68.9112 44.2723V42.1232C68.9112 41.6253 68.7494 41.2505 68.4257 40.9988C68.1021 40.7471 67.6457 40.6213 67.0566 40.6213C66.4702 40.6213 66.0042 40.7582 65.6584 41.032C65.3127 41.3031 65.1398 41.6212 65.1398 41.9863V42.0112H66.065V41.9863C66.065 41.8093 66.1397 41.6544 66.2891 41.5216C66.4384 41.3861 66.6874 41.3183 67.0359 41.3183C67.3844 41.3183 67.6292 41.393 67.7702 41.5423C67.914 41.6917 67.986 41.8853 67.986 42.1232V42.4717H66.9487C66.3485 42.4717 65.8534 42.6003 65.4634 42.8576C65.0734 43.1148 64.8784 43.4757 64.8784 43.9404ZM65.8036 43.8948C65.8036 43.6514 65.9074 43.4578 66.1148 43.3139C66.325 43.1701 66.632 43.0982 67.0359 43.0982H67.986V43.6998C67.986 43.9294 67.856 44.1465 67.596 44.3512C67.336 44.5531 67.0442 44.654 66.7205 44.654C66.408 44.654 66.177 44.5876 66.0277 44.4549C65.8783 44.3194 65.8036 44.1326 65.8036 43.8948ZM70.0978 43.5712C70.0978 44.2101 70.2416 44.6665 70.5292 44.9403C70.8169 45.2141 71.2014 45.351 71.6826 45.351C71.9814 45.351 72.2538 45.2943 72.5 45.1809C72.7489 45.0648 72.9577 44.8988 73.1265 44.6831H73.1472L73.1804 45.2681H74.0351V40.7458H73.1099V43.8657C72.9965 44.0815 72.8416 44.2585 72.6452 44.3968C72.4488 44.5323 72.2234 44.6001 71.9689 44.6001C71.6674 44.6001 71.4337 44.5213 71.2677 44.3636C71.1046 44.2059 71.023 43.9446 71.023 43.5795V40.7458H70.0978V43.5712ZM33.5417 56.4178C33.5417 57.3554 33.799 58.0856 34.3134 58.6084C34.8279 59.1312 35.4724 59.3925 36.2468 59.3925C37.0268 59.3925 37.6243 59.1934 38.0392 58.7951C38.4541 58.394 38.6864 57.9058 38.7362 57.3305L38.7403 57.289H37.7819L37.7778 57.3305C37.7474 57.6541 37.6104 57.9487 37.367 58.2142C37.1264 58.477 36.753 58.6084 36.2468 58.6084C35.7407 58.6084 35.3244 58.4162 34.998 58.0317C34.6744 57.6445 34.5126 57.1079 34.5126 56.4219V56.0734C34.5126 55.3875 34.6744 54.8522 34.998 54.4678C35.3244 54.0806 35.7407 53.8869 36.2468 53.8869C36.753 53.8869 37.1278 54.0183 37.3712 54.2811C37.6146 54.5438 37.7501 54.8384 37.7778 55.1648L37.7819 55.2063H38.7403V55.1648C38.6905 54.5895 38.4568 54.1027 38.0392 53.7044C37.6243 53.3033 37.0268 53.1028 36.2468 53.1028C35.4724 53.1028 34.8279 53.3642 34.3134 53.8869C33.799 54.4097 33.5417 55.1399 33.5417 56.0776V56.4178ZM39.4705 57.9404C39.4705 58.3968 39.6296 58.7467 39.9477 58.9901C40.2657 59.2307 40.6488 59.351 41.0969 59.351C41.4869 59.351 41.8064 59.2805 42.0553 59.1395C42.307 58.9984 42.4882 58.8352 42.5988 58.6499C42.6071 58.7633 42.6265 58.8767 42.6569 58.9901C42.6901 59.1035 42.7274 59.1962 42.7689 59.2681H43.6651V59.2017C43.6153 59.08 43.5752 58.9403 43.5448 58.7826C43.5171 58.6222 43.5033 58.4521 43.5033 58.2723V56.1232C43.5033 55.6253 43.3415 55.2505 43.0178 54.9988C42.6942 54.7471 42.2379 54.6213 41.6487 54.6213C41.0623 54.6213 40.5963 54.7582 40.2505 55.032C39.9048 55.3031 39.7319 55.6212 39.7319 55.9863V56.0112H40.6571V55.9863C40.6571 55.8093 40.7318 55.6544 40.8812 55.5216C41.0305 55.3861 41.2795 55.3183 41.628 55.3183C41.9765 55.3183 42.2213 55.393 42.3623 55.5423C42.5061 55.6917 42.5781 55.8853 42.5781 56.1232V56.4717H41.5408C40.9406 56.4717 40.4455 56.6003 40.0555 56.8576C39.6655 57.1148 39.4705 57.4757 39.4705 57.9404ZM40.3957 57.8948C40.3957 57.6514 40.4995 57.4578 40.7069 57.3139C40.9171 57.1701 41.2241 57.0982 41.628 57.0982H42.5781V57.6998C42.5781 57.9294 42.4481 58.1465 42.1881 58.3512C41.9281 58.5531 41.6363 58.654 41.3126 58.654C41.0001 58.654 40.7691 58.5876 40.6198 58.4549C40.4704 58.3194 40.3957 58.1326 40.3957 57.8948ZM44.7645 59.2681H45.6856V52.8953H44.7645V59.2681ZM46.6813 57.0733C46.6813 57.7565 46.8791 58.3138 47.2746 58.7453C47.6729 59.1768 48.2427 59.3925 48.984 59.3925C49.4376 59.3925 49.8248 59.304 50.1457 59.127C50.4693 58.95 50.703 58.7536 50.8468 58.5379L50.2452 58.0566C50.118 58.2225 49.9479 58.3664 49.7349 58.4881C49.5247 58.6098 49.2744 58.6706 48.984 58.6706C48.5165 58.6706 48.1708 58.5171 47.9467 58.2101C47.7227 57.9003 47.6107 57.5214 47.6107 57.0733V56.9364C47.6107 56.4883 47.7172 56.1107 47.9302 55.8037C48.1431 55.4939 48.4501 55.3391 48.8512 55.3391C49.2578 55.3391 49.5468 55.4566 49.7183 55.6917C49.8898 55.924 49.9756 56.2034 49.9756 56.5298V56.5422H47.2788V57.2351H50.9091V56.8659C50.9091 56.1771 50.7307 55.6309 50.3739 55.227C50.0198 54.8232 49.5137 54.6213 48.8554 54.6213C48.2026 54.6213 47.6771 54.837 47.2788 55.2685C46.8805 55.7 46.6813 56.2573 46.6813 56.9405V57.0733ZM51.826 59.2681H52.7512V56.1481C52.8646 55.9296 53.0181 55.7526 53.2117 55.617C53.4081 55.4815 53.6349 55.4137 53.8921 55.4137C54.1936 55.4137 54.426 55.4926 54.5891 55.6502C54.7551 55.8051 54.8381 56.0637 54.8381 56.4261V59.2681H55.7633V56.4385C55.7633 55.7968 55.6195 55.3404 55.3318 55.0694C55.0441 54.7983 54.6583 54.6628 54.1743 54.6628C53.8755 54.6628 53.6031 54.7209 53.3569 54.837C53.1108 54.9504 52.9033 55.1136 52.7346 55.3266H52.7138L52.6765 54.7458H51.826V59.2681ZM56.6843 57.0733C56.6843 57.7316 56.8641 58.2765 57.2237 58.708C57.586 59.1367 58.0687 59.351 58.6717 59.351C59.0008 59.351 59.2885 59.2874 59.5346 59.1602C59.7836 59.033 59.9661 58.8781 60.0823 58.6955H60.103L60.1362 59.2681H60.9909V52.8953H60.0657V55.2644C59.9302 55.0818 59.7462 54.9366 59.5139 54.8287C59.2816 54.7181 59.0008 54.6628 58.6717 54.6628C58.0715 54.6628 57.5902 54.8771 57.2278 55.3059C56.8655 55.7346 56.6843 56.2795 56.6843 56.9405V57.0733ZM57.6344 57.0733V56.9364C57.6344 56.5021 57.7354 56.137 57.9373 55.8411C58.142 55.5451 58.4587 55.3971 58.8874 55.3971C59.1778 55.3971 59.424 55.4732 59.6259 55.6253C59.8306 55.7775 59.9772 55.9503 60.0657 56.1439V57.8699C59.9744 58.0635 59.8278 58.2364 59.6259 58.3885C59.424 58.5406 59.1778 58.6167 58.8874 58.6167C58.4559 58.6167 58.1392 58.4687 57.9373 58.1728C57.7354 57.8768 57.6344 57.5103 57.6344 57.0733ZM62.2148 59.2681H63.14V56.173C63.2285 55.9794 63.3641 55.8162 63.5466 55.6834C63.7292 55.5506 63.9505 55.4843 64.2105 55.4843C64.2851 55.4843 64.3529 55.487 64.4138 55.4926C64.4774 55.4981 64.5382 55.5078 64.5963 55.5216V54.6794C64.5686 54.6683 64.5202 54.6559 64.4511 54.642C64.3819 54.6282 64.3169 54.6213 64.2561 54.6213C63.9933 54.6213 63.7679 54.6904 63.5798 54.8287C63.3917 54.967 63.2396 55.1275 63.1234 55.31H63.1027L63.0695 54.7458H62.2148V59.2681ZM65.3639 59.2681H66.2849V54.7458H65.3639V59.2681ZM65.2767 53.4845C65.2767 53.6283 65.3237 53.75 65.4178 53.8496C65.5146 53.9492 65.6501 53.999 65.8244 53.999C65.9986 53.999 66.1328 53.9506 66.2268 53.8537C66.3209 53.7542 66.3679 53.6311 66.3679 53.4845C66.3679 53.3407 66.3209 53.219 66.2268 53.1194C66.1328 53.0198 65.9986 52.97 65.8244 52.97C65.6501 52.97 65.5146 53.0198 65.4178 53.1194C65.3237 53.2162 65.2767 53.3379 65.2767 53.4845ZM67.2848 57.0733C67.2848 57.7565 67.4826 58.3138 67.8781 58.7453C68.2764 59.1768 68.8462 59.3925 69.5874 59.3925C70.041 59.3925 70.4283 59.304 70.7491 59.127C71.0727 58.95 71.3065 58.7536 71.4503 58.5379L70.8487 58.0566C70.7215 58.2225 70.5514 58.3664 70.3384 58.4881C70.1282 58.6098 69.8779 58.6706 69.5874 58.6706C69.12 58.6706 68.7743 58.5171 68.5502 58.2101C68.3262 57.9003 68.2141 57.5214 68.2141 57.0733V56.9364C68.2141 56.4883 68.3206 56.1107 68.5336 55.8037C68.7466 55.4939 69.0536 55.3391 69.4547 55.3391C69.8613 55.3391 70.1503 55.4566 70.3218 55.6917C70.4933 55.924 70.579 56.2034 70.579 56.5298V56.5422H67.8822V57.2351H71.5125V56.8659C71.5125 56.1771 71.3341 55.6309 70.9773 55.227C70.6233 54.8232 70.1171 54.6213 69.4588 54.6213C68.8061 54.6213 68.2805 54.837 67.8822 55.2685C67.4839 55.7 67.2848 56.2573 67.2848 56.9405V57.0733ZM72.4294 59.2681H73.3546V56.173C73.4432 55.9794 73.5787 55.8162 73.7612 55.6834C73.9438 55.5506 74.1651 55.4843 74.4251 55.4843C74.4997 55.4843 74.5675 55.487 74.6284 55.4926C74.692 55.4981 74.7528 55.5078 74.8109 55.5216V54.6794C74.7833 54.6683 74.7348 54.6559 74.6657 54.642C74.5966 54.6282 74.5316 54.6213 74.4707 54.6213C74.2079 54.6213 73.9825 54.6904 73.7944 54.8287C73.6063 54.967 73.4542 55.1275 73.338 55.31H73.3173L73.2841 54.7458H72.4294V59.2681Z" fill="#FAFAFA"/>
</svg>
