<?xml version="1.0" standalone="no"?>
<!DOCTYPE svg PUBLIC "-//W3C//DTD SVG 20010904//EN"
 "http://www.w3.org/TR/2001/REC-SVG-20010904/DTD/svg10.dtd">
<svg version="1.0" xmlns="http://www.w3.org/2000/svg"
 width="512.000000pt" height="512.000000pt" viewBox="0 0 512.000000 512.000000"
 preserveAspectRatio="xMidYMid meet">

<g transform="translate(0.000000,512.000000) scale(0.100000,-0.100000)"
fill="#cc2936" stroke="none">
<path d="M1046 3497 c-22 -12 -48 -34 -59 -48 -28 -38 -33 -106 -10 -149 10
-19 332 -396 716 -837 536 -617 708 -809 745 -830 39 -23 58 -28 117 -28 131
0 84 -46 863 847 383 440 707 819 720 842 43 75 17 157 -64 203 l-39 23 -1475
0 -1475 0 -39 -23z"/>
</g>
</svg>
