<svg version="1.0" xmlns="http://www.w3.org/2000/svg"
                            width="30.000000pt" height="30.000000pt" viewBox="0 0 500.000000 500.000000"
                            preserveAspectRatio="xMidYMid meet">

                            <g transform="translate(0.000000,500.000000) scale(0.100000,-0.100000)"
                            fill="#000000" stroke="none">
                            <path d="M2305 4994 c-403 -46 -681 -128 -984 -291 -157 -84 -461 -296 -461
                            -322 0 -3 173 -5 385 -4 l384 3 388 200 388 199 3 111 3 110 -38 -1 c-21 -1
                            -51 -4 -68 -5z"/>
                            <path d="M2592 4891 l3 -112 388 -199 388 -200 384 -3 c212 -1 385 1 385 4 0
                            12 -138 119 -248 193 -359 243 -768 384 -1220 421 l-83 7 3 -111z"/>
                            <path d="M1113 4202 l-451 -2 -84 -101 c-175 -212 -322 -464 -419 -722 -27
                            -71 -49 -133 -49 -138 0 -11 406 -718 421 -734 12 -12 715 103 728 119 8 10
                            511 879 540 934 11 20 -1 58 -104 330 -64 169 -120 309 -123 312 -4 3 -210 4
                            -459 2z"/>
                            <path d="M3425 4200 c-2 -3 -56 -143 -120 -313 l-117 -307 30 -53 c101 -178
                            565 -973 571 -980 9 -9 639 -112 645 -106 13 15 456 790 456 798 0 5 -22 67
                            -49 138 -97 258 -244 510 -419 722 l-84 101 -455 2 c-250 2 -456 1 -458 -2z"/>
                            <path d="M1731 2990 c-154 -269 -281 -494 -281 -501 0 -6 116 -211 258 -455
                            l257 -444 535 0 535 0 258 444 c141 244 257 449 257 455 0 7 -127 232 -281
                            501 l-282 490 -487 0 -487 0 -282 -490z"/>
                            <path d="M41 2939 c-22 -111 -32 -199 -38 -359 -11 -300 33 -595 134 -890 35
                            -104 136 -337 153 -354 5 -5 52 17 114 54 92 54 106 66 106 89 0 14 -9 195
                            -20 402 l-19 376 -210 368 -209 367 -11 -53z"/>
                            <path d="M4719 2592 l-226 -397 -12 -275 c-6 -151 -14 -314 -18 -361 l-6 -86
                            121 -73 c67 -39 125 -69 130 -66 14 9 126 268 161 371 95 286 138 581 128 875
                            -6 151 -28 344 -45 390 -5 14 -61 -76 -233 -378z"/>
                            <path d="M1700 1129 c-102 -126 -191 -240 -199 -253 -14 -23 -4 -43 209 -416
                            163 -286 230 -394 247 -401 13 -5 87 -19 166 -31 204 -31 550 -31 754 0 79 12
                            153 26 166 31 16 6 81 112 231 375 l208 366 -38 49 c-22 27 -122 153 -224 280
                            l-185 230 -575 0 -575 0 -185 -230z"/>
                            <path d="M503 1247 l-122 -70 17 -29 c34 -58 151 -211 236 -308 214 -245 529
                            -478 827 -611 117 -53 239 -101 239 -94 0 10 -444 772 -459 787 -12 12 -460
                            301 -606 390 -5 3 -65 -26 -132 -65z"/>
                            <path d="M4057 1082 l-339 -217 -209 -363 c-115 -200 -209 -365 -209 -367 0
                            -7 122 41 239 94 298 133 613 366 827 611 85 97 202 250 237 308 l16 29 -107
                            61 c-59 34 -110 62 -112 61 -3 0 -157 -98 -343 -217z"/>
                            </g>
                            </svg>