<svg width="85" height="53" viewBox="0 0 85 53" fill="none" xmlns="http://www.w3.org/2000/svg">
<rect width="85" height="53" fill="#0C1B59"/>
<path d="M56.736 30.8438L53.5899 11.1562H56.264L58.6236 26.4688L60.6685 11.1562H63.5L60.3539 30.8438H56.736Z" fill="#FAFAFA"/>
<path d="M30.9382 11.1562V31H33.6124V22.25H37.5449V19.75H33.6124V13.8125H38.1742V11.1562H30.9382Z" fill="#FAFAFA"/>
<path d="M46.8258 20.8438C46.8258 23.1737 44.9243 25.0625 42.5787 25.0625C40.233 25.0625 38.3315 23.1737 38.3315 20.8438C38.3315 18.5138 40.233 16.625 42.5787 16.625C44.9243 16.625 46.8258 18.5138 46.8258 20.8438Z" fill="#FAFAFA"/>
<path d="M44.6236 11H52.8034V13.8125H44.6236V11Z" fill="#FAFAFA"/>
<path d="M47.4551 13.8125H49.9719V31H47.4551V13.8125Z" fill="#FAFAFA"/>
<path fill-rule="evenodd" clip-rule="evenodd" d="M21.5 30.8438L23.7022 16.3125V19.75H25.4326C25.7472 19.75 26.3764 19.5625 26.3764 18.8125V14.5938C26.3764 14.3333 26.2191 13.8125 25.5899 13.8125H24.1742L24.4888 11H26.5337C27.3727 11 29.0506 11.5 29.0506 13.5V19.75C29.0506 20.2188 28.7674 21.1562 27.6348 21.1562H27.4775C27.9494 21.1562 28.8933 21.4375 28.8933 22.5625V28.8125C28.8933 29.4896 28.4843 30.8438 26.8483 30.8438H21.5ZM23.5449 22.5625V28.5H25.5899C25.8521 28.5 26.3764 28.3438 26.3764 27.7188V23.5C26.3764 23.1875 26.1876 22.5625 25.4326 22.5625H23.5449Z" fill="#FAFAFA"/>
<path d="M19.4284 39H20.2169V37.0459H21.2042C21.7915 37.0459 22.2441 36.9054 22.5617 36.6243C22.8817 36.3432 23.0417 35.9741 23.0417 35.517C23.0417 35.0599 22.8817 34.6942 22.5617 34.42C22.2441 34.1457 21.7915 34.0086 21.2042 34.0086H19.4284V39ZM20.2169 36.422V34.6291H21.2042C21.5973 34.6291 21.8704 34.7136 22.0235 34.8828C22.1766 35.0519 22.2532 35.2633 22.2532 35.517C22.2532 35.7684 22.1755 35.9821 22.0201 36.158C21.867 36.334 21.595 36.422 21.2042 36.422H20.2169ZM22.3732 39H23.2748L21.955 36.6106L21.1288 36.6963L22.3732 39ZM23.717 37.1796C23.717 37.7464 23.8816 38.2092 24.2107 38.5681C24.5398 38.9246 25.014 39.1028 25.6334 39.1028C26.0105 39.1028 26.3316 39.0297 26.5967 38.8834C26.8641 38.7372 27.0584 38.576 27.1795 38.4001L26.6824 37.9955C26.5773 38.135 26.4367 38.2549 26.2607 38.3555C26.0848 38.4561 25.8756 38.5063 25.6334 38.5063C25.2426 38.5063 24.9535 38.3784 24.7661 38.1224C24.5786 37.8664 24.4849 37.5522 24.4849 37.1796V37.0699C24.4849 36.6974 24.5741 36.3832 24.7523 36.1272C24.9306 35.8712 25.1866 35.7432 25.5203 35.7432C25.8631 35.7432 26.1053 35.8415 26.247 36.0381C26.3887 36.2323 26.4596 36.4654 26.4596 36.7374L26.463 36.7408H24.2141V37.3168H27.2343V37.0082C27.2343 36.4392 27.0858 35.9866 26.7887 35.6507C26.4939 35.3147 26.0722 35.1467 25.5237 35.1467C24.982 35.1467 24.5455 35.3261 24.2141 35.685C23.8827 36.0438 23.717 36.5054 23.717 37.0699V37.1796ZM24.8723 34.2828L25.3043 34.6119L26.3602 33.6349L25.7568 33.1241L24.8723 34.2828ZM27.7554 37.8824V37.9064C27.7554 38.2675 27.896 38.5578 28.1771 38.7772C28.4605 38.9943 28.8696 39.1028 29.4044 39.1028C29.9437 39.1028 30.3483 38.9954 30.6179 38.7806C30.8876 38.5635 31.0225 38.2858 31.0225 37.9476C31.0225 37.6207 30.9105 37.3648 30.6865 37.1796C30.4625 36.9945 30.1277 36.8597 29.6821 36.7751C29.2273 36.6906 28.9393 36.6071 28.8182 36.5249C28.6993 36.4403 28.6399 36.3295 28.6399 36.1923C28.6399 36.0598 28.6982 35.9478 28.8147 35.8564C28.9336 35.7649 29.1267 35.7192 29.3941 35.7192C29.6615 35.7192 29.858 35.7718 29.9837 35.8769C30.1117 35.9821 30.1757 36.1249 30.1757 36.3055V36.326H30.9368V36.302C30.9368 35.9569 30.7974 35.6781 30.5185 35.4656C30.2397 35.253 29.8649 35.1467 29.3941 35.1467C28.9301 35.1467 28.561 35.2507 28.2868 35.4587C28.0148 35.6644 27.8788 35.9249 27.8788 36.2403C27.8788 36.5466 27.992 36.7911 28.2182 36.9739C28.4445 37.1568 28.7804 37.2905 29.2261 37.375C29.6741 37.4596 29.9575 37.5442 30.0763 37.6287C30.1951 37.7133 30.2546 37.8356 30.2546 37.9955C30.2546 38.1555 30.1803 38.2847 30.0317 38.3829C29.8855 38.4789 29.6763 38.5269 29.4044 38.5269C29.1393 38.5269 28.9256 38.4743 28.7633 38.3692C28.601 38.2641 28.5199 38.1098 28.5199 37.9064V37.8824H27.7554ZM31.7664 37.591C31.7664 38.1235 31.8864 38.5029 32.1263 38.7292C32.3663 38.9554 32.6863 39.0686 33.0862 39.0686C33.3331 39.0686 33.5593 39.0206 33.765 38.9246C33.973 38.8286 34.1478 38.6915 34.2895 38.5132H34.3067L34.3341 39H35.0403V35.2496H34.2758V37.8378C34.1798 38.0161 34.0496 38.1624 33.885 38.2767C33.7227 38.3909 33.5353 38.4481 33.3228 38.4481C33.0714 38.4481 32.876 38.3829 32.7366 38.2527C32.5994 38.1201 32.5309 37.9018 32.5309 37.5979V35.2496H31.7664V37.591ZM36.0516 39H36.8161V36.4152C36.9121 36.2346 37.0366 36.0883 37.1898 35.9764C37.3452 35.8621 37.5269 35.8049 37.7348 35.8049C37.9771 35.8049 38.1634 35.8701 38.2936 36.0003C38.4262 36.1306 38.4925 36.3489 38.4925 36.6551V39H39.2569V36.4152C39.3529 36.2346 39.4786 36.0883 39.634 35.9764C39.7895 35.8621 39.9712 35.8049 40.1791 35.8049C40.4191 35.8049 40.6042 35.8701 40.7345 36.0003C40.8648 36.1306 40.931 36.3489 40.9333 36.6551V39H41.6978V36.662C41.6978 36.1295 41.5801 35.7501 41.3447 35.5238C41.1093 35.2953 40.7882 35.181 40.3814 35.181C40.1208 35.181 39.8843 35.2324 39.6718 35.3353C39.4615 35.4358 39.2752 35.5993 39.113 35.8255H39.0993C39.001 35.6038 38.8547 35.4416 38.6604 35.3387C38.4685 35.2336 38.2376 35.181 37.968 35.181C37.728 35.181 37.5086 35.229 37.3097 35.325C37.1132 35.421 36.9441 35.5581 36.8024 35.7364H36.7852L36.7578 35.2496H36.0516V39ZM42.4623 37.1796C42.4623 37.7464 42.6268 38.2092 42.9559 38.5681C43.2851 38.9246 43.7593 39.1028 44.3786 39.1028C44.7557 39.1028 45.0768 39.0297 45.342 38.8834C45.6094 38.7372 45.8036 38.576 45.9247 38.4001L45.4277 37.9955C45.3225 38.135 45.182 38.2549 45.006 38.3555C44.83 38.4561 44.6209 38.5063 44.3786 38.5063C43.9878 38.5063 43.6987 38.3784 43.5113 38.1224C43.3239 37.8664 43.2302 37.5522 43.2302 37.1796V37.0699C43.2302 36.6974 43.3193 36.3832 43.4976 36.1272C43.6759 35.8712 43.9318 35.7432 44.2655 35.7432C44.6083 35.7432 44.8506 35.8415 44.9923 36.0381C45.134 36.2323 45.2048 36.4654 45.2048 36.7374L45.2083 36.7408H42.9594V37.3168H45.9796V37.0082C45.9796 36.4392 45.831 35.9866 45.5339 35.6507C45.2391 35.3147 44.8174 35.1467 44.2689 35.1467C43.7273 35.1467 43.2908 35.3261 42.9594 35.685C42.628 36.0438 42.4623 36.5054 42.4623 37.0699V37.1796ZM43.6176 34.2828L44.0495 34.6119L45.1054 33.6349L44.5021 33.1241L43.6176 34.2828ZM47.9337 35.2496L49.4078 39H50.0591L51.5332 35.2496H50.803L49.9117 37.6733C49.8774 37.767 49.8477 37.8516 49.8226 37.927C49.7997 38.0024 49.7814 38.087 49.7677 38.1807H49.7472C49.7312 38.0892 49.7117 38.0058 49.6889 37.9304C49.666 37.8527 49.6375 37.767 49.6032 37.6733L48.7016 35.2496H47.9337ZM52.0578 39H52.8222V35.2496H52.0578V39ZM51.9892 34.2108C51.9892 34.332 52.028 34.4337 52.1057 34.5159C52.1835 34.5959 52.2954 34.6359 52.4417 34.6359C52.5857 34.6359 52.6965 34.5959 52.7742 34.5159C52.8519 34.4337 52.8908 34.332 52.8908 34.2108C52.8908 34.092 52.8519 33.9926 52.7742 33.9126C52.6965 33.8303 52.5857 33.7892 52.4417 33.7892C52.2954 33.7892 52.1835 33.8303 52.1057 33.9126C52.028 33.9926 51.9892 34.092 51.9892 34.2108ZM53.6519 37.1796C53.6519 37.7259 53.8016 38.1772 54.1009 38.5338C54.4003 38.8903 54.8014 39.0686 55.3042 39.0686C55.5762 39.0686 55.815 39.016 56.0207 38.9109C56.2287 38.8035 56.3818 38.6743 56.4801 38.5235H56.4938L56.5247 39H57.2274V33.7343H56.4664V35.6815C56.3521 35.5307 56.1978 35.4096 56.0036 35.3181C55.8093 35.2267 55.5762 35.181 55.3042 35.181C54.8037 35.181 54.4026 35.3593 54.1009 35.7158C53.8016 36.0723 53.6519 36.5237 53.6519 37.0699V37.1796ZM54.4335 37.1796V37.0699C54.4335 36.7088 54.518 36.406 54.6872 36.1615C54.8563 35.9146 55.1214 35.7912 55.4825 35.7912C55.7248 35.7912 55.9304 35.8541 56.0996 35.9798C56.2687 36.1055 56.391 36.2495 56.4664 36.4117V37.8378C56.391 38.0001 56.2676 38.1441 56.0961 38.2698C55.927 38.3955 55.7225 38.4583 55.4825 38.4583C55.1214 38.4583 54.8563 38.3361 54.6872 38.0915C54.518 37.847 54.4335 37.543 54.4335 37.1796ZM58.0262 37.1796C58.0262 37.7464 58.1908 38.2092 58.5199 38.5681C58.849 38.9246 59.3232 39.1028 59.9426 39.1028C60.3196 39.1028 60.6408 39.0297 60.9059 38.8834C61.1733 38.7372 61.3675 38.576 61.4887 38.4001L60.9916 37.9955C60.8864 38.135 60.7459 38.2549 60.5699 38.3555C60.3939 38.4561 60.1848 38.5063 59.9426 38.5063C59.5517 38.5063 59.2626 38.3784 59.0752 38.1224C58.8878 37.8664 58.7941 37.5522 58.7941 37.1796V37.0699C58.7941 36.6974 58.8832 36.3832 59.0615 36.1272C59.2398 35.8712 59.4957 35.7432 59.8294 35.7432C60.1722 35.7432 60.4145 35.8415 60.5562 36.0381C60.6979 36.2323 60.7687 36.4654 60.7687 36.7374L60.7722 36.7408H58.5233V37.3168H61.5435V37.0082C61.5435 36.4392 61.395 35.9866 61.0978 35.6507C60.803 35.3147 60.3814 35.1467 59.8328 35.1467C59.2912 35.1467 58.8547 35.3261 58.5233 35.685C58.1919 36.0438 58.0262 36.5054 58.0262 37.0699V37.1796ZM62.0852 37.1796C62.0852 37.7464 62.2566 38.2092 62.5994 38.5681C62.9422 38.9246 63.4004 39.1028 63.9741 39.1028C64.5454 39.1028 65.0025 38.9246 65.3454 38.5681C65.6905 38.2092 65.863 37.7464 65.863 37.1796V37.0699C65.863 36.5054 65.6905 36.0438 65.3454 35.685C65.0025 35.3261 64.5443 35.1467 63.9707 35.1467C63.3993 35.1467 62.9422 35.3261 62.5994 35.685C62.2566 36.0438 62.0852 36.5054 62.0852 37.0699V37.1796ZM62.8668 37.0699C62.8668 36.702 62.9593 36.3912 63.1445 36.1375C63.3319 35.8838 63.6084 35.7569 63.9741 35.7569C64.3375 35.7569 64.6117 35.8838 64.7968 36.1375C64.9843 36.3912 65.078 36.702 65.078 37.0699V37.1796C65.078 37.5476 64.9843 37.8584 64.7968 38.1121C64.6117 38.3658 64.3375 38.4926 63.9741 38.4926C63.6084 38.4926 63.3319 38.3658 63.1445 38.1121C62.9593 37.8584 62.8668 37.5476 62.8668 37.1796V37.0699Z" fill="#FAFAFA"/>
</svg>
