<svg width="51" height="51" viewBox="0 0 51 51" fill="none" xmlns="http://www.w3.org/2000/svg">
<g clip-path="url(#clip0_194_2808)">
<path d="M50.4195 25.8916C50.4195 12.062 39.2145 0.856934 25.3848 0.856934C11.5551 0.856934 0.350098 12.062 0.350098 25.8916C0.350098 38.3867 9.50491 48.7438 21.4731 50.6234V33.1284H15.1135V25.8916H21.4731V20.3759C21.4731 14.1021 25.2081 10.6366 30.9287 10.6366C33.6685 10.6366 36.5332 11.1252 36.5332 11.1252V17.2829H33.3756C30.2666 17.2829 29.2965 19.213 29.2965 21.1926V25.8916H36.2396L35.129 33.1284H29.2965V50.6234C41.2645 48.7438 50.4195 38.3867 50.4195 25.8916Z" fill="#FAFAFA"/>
</g>
<defs>
<clipPath id="clip0_194_2808">
<rect width="50.0694" height="50.0694" fill="white" transform="translate(0.384766 0.891602)"/>
</clipPath>
</defs>
</svg>
