<svg width="50" height="160" viewBox="0 0 50 160" fill="none" xmlns="http://www.w3.org/2000/svg">
<line x1="27" y1="80" x2="27" y2="160" stroke="#CF3476" stroke-width="4"/>
<line x1="23" y1="80" x2="23" y2="160" stroke="#0C1B59" stroke-width="4"/>
<line x1="23" y1="8.74228e-08" x2="23" y2="80" stroke="#0C1B59" stroke-width="4"/>
<line x1="27" y1="8.74228e-08" x2="27" y2="80" stroke="#CF3476" stroke-width="4"/>
<circle cx="25" cy="40" r="25" fill="#989592"/>
<circle cx="25" cy="40" r="24" fill="#E9E7E4"/>
<path d="M23.7434 24.0512C21.1642 24.3456 19.385 24.8704 17.4458 25.9136C16.441 26.4512 14.4954 27.808 14.4954 27.9744C14.4954 27.9936 15.6026 28.0064 16.9594 28L19.417 27.9808L21.9002 26.7008L24.3834 25.4272L24.4026 24.7168L24.4218 24.0128L24.1786 24.0192C24.0442 24.0256 23.8522 24.0448 23.7434 24.0512Z" fill="#0C1B59"/>
<path d="M25.5802 24.7104L25.5994 25.4272L28.0826 26.7008L30.5658 27.9808L33.0234 28C34.3802 28.0064 35.4874 27.9936 35.4874 27.9744C35.4874 27.8976 34.6042 27.2128 33.9002 26.7392C31.6026 25.184 28.985 24.2816 26.0922 24.0448L25.561 24L25.5802 24.7104Z" fill="#0C1B59"/>
<path d="M16.1145 29.12L13.2281 29.1328L12.6905 29.7792C11.5705 31.136 10.6297 32.7488 10.0089 34.4C9.83611 34.8544 9.69531 35.2512 9.69531 35.2832C9.69531 35.3536 12.2937 39.8784 12.3897 39.9808C12.4665 40.0576 16.9657 39.3216 17.0489 39.2192C17.1001 39.1552 20.3193 33.5936 20.5049 33.2416C20.5753 33.1136 20.4985 32.8704 19.8393 31.1296C19.4297 30.048 19.0713 29.152 19.0521 29.1328C19.0265 29.1136 17.7081 29.1072 16.1145 29.12Z" fill="#0C1B59"/>
<path d="M30.9113 29.1329C30.8985 29.1521 30.5529 30.0481 30.1433 31.1361L29.3945 33.1009L29.5865 33.4401C30.2329 34.5793 33.2025 39.6673 33.2409 39.7121C33.2985 39.7697 37.3305 40.4289 37.3689 40.3905C37.4521 40.2945 40.2873 35.3345 40.2873 35.2833C40.2873 35.2513 40.1465 34.8545 39.9737 34.4001C39.3529 32.7489 38.4121 31.1361 37.2921 29.7793L36.7545 29.1329L33.8425 29.1201C32.2425 29.1073 30.9241 29.1137 30.9113 29.1329Z" fill="#0C1B59"/>
<path d="M20.0696 36.8768C19.084 38.5984 18.2712 40.0384 18.2712 40.0832C18.2712 40.1216 19.0136 41.4336 19.9224 42.9952L21.5672 45.8368H24.9912H28.4152L30.0664 42.9952C30.9688 41.4336 31.7112 40.1216 31.7112 40.0832C31.7112 40.0384 30.8984 38.5984 29.9128 36.8768L28.108 33.7408H24.9912H21.8744L20.0696 36.8768Z" fill="#0C1B59"/>
<path d="M9.25375 37.2032C9.11295 37.9136 9.04895 38.4768 9.01055 39.5008C8.94015 41.4208 9.22175 43.3088 9.86815 45.1968C10.0921 45.8624 10.7385 47.3536 10.8473 47.4624C10.8793 47.4944 11.1801 47.3536 11.5769 47.1168C12.1657 46.7712 12.2553 46.6944 12.2553 46.5472C12.2553 46.4576 12.1977 45.2992 12.1273 43.9744L12.0057 41.568L10.6617 39.2128L9.32415 36.864L9.25375 37.2032Z" fill="#0C1B59"/>
<path d="M39.1929 39.424L37.7465 41.9648L37.6697 43.7248C37.6313 44.6912 37.5801 45.7344 37.5545 46.0352L37.5161 46.5856L38.2905 47.0528C38.7193 47.3024 39.0905 47.4944 39.1225 47.4752C39.2121 47.4176 39.9289 45.76 40.1529 45.1008C40.7609 43.2704 41.0361 41.3824 40.9721 39.5008C40.9337 38.5344 40.7929 37.2992 40.6841 37.0048C40.6521 36.9152 40.2937 37.4912 39.1929 39.424Z" fill="#0C1B59"/>
<path d="M19.8714 48.7872C19.2186 49.5936 18.649 50.3232 18.5978 50.4064C18.5082 50.5536 18.5722 50.6816 19.9354 53.0688C20.9786 54.8992 21.4074 55.5904 21.5162 55.6352C21.5994 55.6672 22.073 55.7568 22.5786 55.8336C23.8842 56.032 26.0986 56.032 27.4042 55.8336C27.9098 55.7568 28.3834 55.6672 28.4666 55.6352C28.569 55.5968 28.985 54.9184 29.945 53.2352L31.2762 50.8928L31.033 50.5792C30.8922 50.4064 30.2522 49.6 29.5994 48.7872L28.4154 47.3152H24.7354H21.0554L19.8714 48.7872Z" fill="#0C1B59"/>
<path d="M12.2105 48.032L11.4297 48.48L11.5385 48.6656C11.7561 49.0368 12.5049 50.016 13.0489 50.6368C14.4185 52.2048 16.4345 53.696 18.3417 54.5472C19.0905 54.8864 19.8713 55.1936 19.8713 55.1488C19.8713 55.0848 17.0297 50.208 16.9337 50.112C16.8569 50.0352 13.9897 48.1856 13.0553 47.616C13.0233 47.5968 12.6393 47.7824 12.2105 48.032Z" fill="#0C1B59"/>
<path d="M34.9561 49.088L32.7865 50.4768L31.4489 52.8C30.7129 54.08 30.1113 55.136 30.1113 55.1488C30.1113 55.1936 30.8921 54.8864 31.6409 54.5472C33.5481 53.696 35.5641 52.2048 36.9337 50.6368C37.4777 50.016 38.2265 49.0368 38.4505 48.6656L38.5529 48.48L37.8681 48.0896C37.4905 47.872 37.1641 47.6928 37.1513 47.6992C37.1321 47.6992 36.1465 48.3264 34.9561 49.088Z" fill="#0C1B59"/>
</svg>
