<svg width="51" height="51" viewBox="0 0 51 51" fill="none" xmlns="http://www.w3.org/2000/svg">
<g clip-path="url(#clip0_194_2909)">
<path d="M25.4792 13.0545C18.3751 13.0545 12.645 18.7859 12.645 25.8916C12.645 32.9972 18.3751 38.7287 25.4792 38.7287C32.5833 38.7287 38.3134 32.9972 38.3134 25.8916C38.3134 18.7859 32.5833 13.0545 25.4792 13.0545ZM25.4792 34.2374C20.8884 34.2374 17.1353 30.4948 17.1353 25.8916C17.1353 21.2886 20.8772 17.5458 25.4792 17.5458C30.0813 17.5458 33.8232 21.2886 33.8232 25.8916C33.8232 30.4948 30.07 34.2374 25.4792 34.2374ZM41.8321 12.5294C41.8321 14.1941 40.4917 15.5236 38.8384 15.5236C37.1741 15.5236 35.845 14.1829 35.845 12.5294C35.845 10.8758 37.1854 9.53513 38.8384 9.53513C40.4917 9.53513 41.8321 10.8758 41.8321 12.5294ZM50.3324 15.5683C50.1426 11.5574 49.2266 8.00451 46.289 5.07733C43.3624 2.15015 39.8103 1.234 35.8002 1.0329C31.6675 0.798278 19.2799 0.798278 15.147 1.0329C11.1482 1.22283 7.59613 2.13897 4.65841 5.06617C1.72072 7.99335 0.815952 11.5462 0.614892 15.5571C0.380323 19.6909 0.380323 32.0812 0.614892 36.2149C0.804782 40.226 1.72072 43.7787 4.65841 46.706C7.59613 49.633 11.137 50.5493 15.147 50.7503C19.2799 50.9849 31.6675 50.9849 35.8002 50.7503C39.8103 50.5603 43.3624 49.6443 46.289 46.706C49.2153 43.7787 50.1313 40.226 50.3324 36.2149C50.5669 32.0812 50.5669 19.7021 50.3324 15.5683ZM44.9932 40.6503C44.122 42.8404 42.4352 44.5272 40.2349 45.4099C36.9395 46.717 29.1207 46.4153 25.4792 46.4153C21.8378 46.4153 14.0077 46.706 10.7237 45.4099C8.53441 44.5385 6.84775 42.8514 5.9653 40.6503C4.65841 37.3545 4.96 29.5339 4.96 25.8916C4.96 22.2494 4.6696 14.4175 5.9653 11.1328C6.83655 8.94301 8.52322 7.25595 10.7237 6.37333C14.0189 5.06617 21.8378 5.36781 25.4792 5.36781C29.1207 5.36781 36.9508 5.07733 40.2349 6.37333C42.4241 7.24479 44.1107 8.93182 44.9932 11.1328C46.3 14.4287 45.9983 22.2494 45.9983 25.8916C45.9983 29.5339 46.3 37.3658 44.9932 40.6503Z" fill="#FAFAFA"/>
</g>
<defs>
<clipPath id="clip0_194_2909">
<rect width="50.0694" height="50.0694" fill="white" transform="translate(0.473633 0.891602)"/>
</clipPath>
</defs>
</svg>
