<svg width="24" height="24" viewBox="0 0 24 24" fill="none" xmlns="http://www.w3.org/2000/svg">
<g clip-path="url(#clip0_8_635)">
<path d="M16.18 0.0198697C18.212 0.0198697 20.28 -0.0480172 22.34 0.0598031C22.34 0.28343 22.384 0.423197 22.332 0.483098C18.9 4.63618 15.464 8.78127 11.988 12.9783C11.16 12.7107 10.66 12.1037 10.052 11.6724C9.47201 11.2611 8.93201 10.7939 8.31201 10.3027C8.48801 9.97128 8.59601 9.6638 8.78401 9.4202C11.04 6.50107 13.308 3.59391 15.576 0.686758C15.744 0.475111 15.94 0.28343 16.18 0.0198697Z" fill="#FAFAFA"/>
<path d="M3.30801 17.3191C4.72801 15.0429 6.12401 12.8984 7.72401 10.7939C8.11201 11.0535 8.38801 11.2132 8.63601 11.4089C9.53201 12.1237 10.416 12.8545 11.288 13.5653C10.472 15.0269 7.36401 18.4652 5.91601 19.5114C5.00801 18.9683 4.24401 18.2056 3.30801 17.3191Z" fill="#FAFAFA"/>
<path d="M21.896 23.6006C21.292 23.6326 20.86 23.6725 20.424 23.6725C14.528 23.6765 8.63199 23.6765 2.73599 23.6725C2.35199 23.6725 1.96399 23.6685 1.58399 23.6126C1.47599 23.5967 1.31999 23.381 1.32399 23.2612C1.32799 23.1334 1.47199 22.9298 1.59199 22.8978C1.85199 22.8299 2.13599 22.8339 2.40799 22.8339C8.52399 22.8299 14.644 22.8299 20.76 22.8379C21.084 22.8379 21.412 22.8978 21.72 22.9897C21.796 23.0096 21.804 23.2612 21.896 23.6006Z" fill="#FAFAFA"/>
<path d="M3.13199 18.2576C3.88799 18.6849 4.52399 19.2439 5.21599 19.9148C4.26799 20.8053 3.11199 21.2126 2.01999 21.8835C2.08399 20.5378 2.37199 19.6193 3.13199 18.2576Z" fill="#FAFAFA"/>
</g>
<defs>
<clipPath id="clip0_8_635">
<rect width="24" height="24" fill="white"/>
</clipPath>
</defs>
</svg>
