<svg width="50" height="160" viewBox="0 0 50 160" fill="none" xmlns="http://www.w3.org/2000/svg">
<line x1="27" y1="80" x2="27" y2="160" stroke="#CF3476" stroke-width="4"/>
<line x1="23" y1="80" x2="23" y2="160" stroke="#0C1B59" stroke-width="4"/>
<line x1="23" y1="8.74228e-08" x2="23" y2="80" stroke="#0C1B59" stroke-width="4"/>
<line x1="27" y1="8.74228e-08" x2="27" y2="80" stroke="#CF3476" stroke-width="4"/>
<circle cx="25" cy="40" r="25" fill="#989592"/>
<circle cx="25" cy="40" r="24" fill="#E9E7E4"/>
<line x1="5.18976" y1="51.4471" x2="5.18976" y2="28.237" stroke="#000033" stroke-width="0.606802"/>
<line x1="7.52579" y1="30.457" x2="5.29126" y2="28.4632" stroke="#000033" stroke-width="0.606802"/>
<line x1="44.6318" y1="28.5405" x2="5.49309" y2="28.5405" stroke="#000033" stroke-width="0.606802"/>
<line x1="44.6319" y1="51.4471" x2="44.6319" y2="28.237" stroke="#000033" stroke-width="0.606802"/>
<line x1="42.1721" y1="30.4231" x2="44.7511" y2="28.4509" stroke="#000033" stroke-width="0.606802"/>
<line x1="42.287" y1="30.228" x2="39.4539" y2="48.1024" stroke="#000033" stroke-width="0.606802"/>
<line x1="10.3088" y1="48.238" x2="7.42817" y2="30.2789" stroke="#000033" stroke-width="0.606802"/>
<line x1="10.2405" y1="47.8865" x2="15.0899" y2="47.8865" stroke="#000033" stroke-width="0.606802"/>
<line x1="34.9739" y1="47.8865" x2="39.8233" y2="47.8865" stroke="#000033" stroke-width="0.606802"/>
<line x1="10.4021" y1="47.9318" x2="5.22614" y2="51.1892" stroke="#000033" stroke-width="0.606802"/>
<line x1="39.3245" y1="47.6412" x2="44.5697" y2="51.196" stroke="#000033" stroke-width="0.606802"/>
<path d="M24.1107 33.2779C22.3368 33.4803 21.1131 33.8413 19.7793 34.5588C19.0882 34.9285 17.75 35.8617 17.75 35.9761C17.75 35.9893 18.5115 35.9981 19.4447 35.9937L21.1351 35.9805L22.843 35.1002L24.5509 34.2242L24.5641 33.7356L24.5773 33.2514L24.4101 33.2558C24.3176 33.2602 24.1856 33.2735 24.1107 33.2779Z" fill="#000033"/>
<path d="M25.374 33.7312L25.3873 34.2242L27.0952 35.1002L28.8031 35.9805L30.4935 35.9937C31.4267 35.9981 32.1882 35.9893 32.1882 35.9761C32.1882 35.9233 31.5807 35.4523 31.0965 35.1266C29.5162 34.057 27.7159 33.4363 25.7262 33.2735L25.3608 33.2426L25.374 33.7312Z" fill="#000033"/>
<path d="M18.8636 36.7641L16.8783 36.7729L16.5086 37.2174C15.7382 38.1506 15.0912 39.2599 14.6642 40.3955C14.5453 40.708 14.4485 40.9809 14.4485 41.0029C14.4485 41.0514 16.2357 44.1634 16.3017 44.2338C16.3545 44.2866 19.449 43.7804 19.5063 43.71C19.5415 43.666 21.7556 39.8409 21.8833 39.5988C21.9317 39.5108 21.8789 39.3435 21.4255 38.1462C21.1438 37.4023 20.8973 36.7861 20.8841 36.7729C20.8665 36.7597 19.9597 36.7553 18.8636 36.7641Z" fill="#000033"/>
<path d="M29.0408 36.7728C29.032 36.786 28.7943 37.4023 28.5126 38.1506L27.9976 39.5019L28.1296 39.7352C28.5742 40.5187 30.6167 44.0181 30.6431 44.0489C30.6827 44.0885 33.4559 44.5419 33.4823 44.5155C33.5396 44.4495 35.4896 41.0381 35.4896 41.0029C35.4896 40.9809 35.3928 40.708 35.2739 40.3955C34.8469 39.2598 34.1998 38.1506 33.4295 37.2174L33.0597 36.7728L31.0569 36.764C29.9564 36.7552 29.0496 36.7596 29.0408 36.7728Z" fill="#000033"/>
<path d="M21.5839 42.0989C20.906 43.283 20.3469 44.2734 20.3469 44.3042C20.3469 44.3306 20.8575 45.233 21.4826 46.307L22.6139 48.2614H24.9689H27.3239L28.4596 46.307C29.0803 45.233 29.5909 44.3306 29.5909 44.3042C29.5909 44.2734 29.0319 43.283 28.354 42.0989L27.1126 39.9421H24.9689H22.8252L21.5839 42.0989Z" fill="#000033"/>
<path d="M14.1447 42.3235C14.0479 42.8121 14.0039 43.1994 13.9775 43.9037C13.929 45.2242 14.1227 46.5227 14.5673 47.8213C14.7214 48.279 15.166 49.3046 15.2408 49.3795C15.2628 49.4015 15.4697 49.3046 15.7426 49.1418C16.1476 48.9041 16.2092 48.8513 16.2092 48.75C16.2092 48.6884 16.1696 47.8917 16.1212 46.9805L16.0376 45.3255L15.1132 43.7056L14.1932 42.0902L14.1447 42.3235Z" fill="#000033"/>
<path d="M34.7368 43.8509L33.742 45.5984L33.6891 46.8088C33.6627 47.4735 33.6275 48.191 33.6099 48.3979L33.5835 48.7764L34.1161 49.0977C34.4111 49.2694 34.6664 49.4015 34.6884 49.3882C34.75 49.3486 35.243 48.2086 35.3971 47.7552C35.8153 46.4963 36.0045 45.1978 35.9605 43.9037C35.9341 43.239 35.8373 42.3895 35.7624 42.187C35.7404 42.1254 35.4939 42.5215 34.7368 43.8509Z" fill="#000033"/>
<path d="M21.4474 50.2906C20.9984 50.8452 20.6066 51.347 20.5714 51.4042C20.5098 51.5055 20.5538 51.5935 21.4914 53.2354C22.2089 54.4943 22.5038 54.9697 22.5787 55.0005C22.6359 55.0225 22.9616 55.0841 23.3094 55.1369C24.2074 55.2734 25.7304 55.2734 26.6284 55.1369C26.9762 55.0841 27.3019 55.0225 27.3591 55.0005C27.4296 54.9741 27.7157 54.5075 28.376 53.3498L29.2916 51.7388L29.1243 51.5231C29.0275 51.4042 28.5873 50.8496 28.1383 50.2906L27.3239 49.2782H24.7928H22.2617L21.4474 50.2906Z" fill="#000033"/>
<path d="M16.1784 49.7712L15.6414 50.0793L15.7162 50.207C15.8659 50.4623 16.3809 51.1358 16.755 51.5627C17.697 52.6411 19.0836 53.6668 20.3954 54.2522C20.9104 54.4855 21.4475 54.6968 21.4475 54.6659C21.4475 54.6219 19.493 51.2678 19.427 51.2018C19.3742 51.149 17.4021 49.8769 16.7594 49.4851C16.7374 49.4719 16.4733 49.5995 16.1784 49.7712Z" fill="#000033"/>
<path d="M31.8227 50.4975L30.3305 51.4527L29.4105 53.0505C28.9043 53.9309 28.4905 54.6571 28.4905 54.6659C28.4905 54.6968 29.0275 54.4855 29.5425 54.2522C30.8543 53.6668 32.2409 52.6411 33.1829 51.5627C33.5571 51.1358 34.0721 50.4623 34.2262 50.207L34.2966 50.0793L33.8256 49.8108C33.5659 49.6612 33.3414 49.5379 33.3326 49.5423C33.3194 49.5423 32.6415 49.9737 31.8227 50.4975Z" fill="#000033"/>
</svg>
