<svg width="50" height="160" viewBox="0 0 50 160" fill="none" xmlns="http://www.w3.org/2000/svg">
<line x1="27" y1="80" x2="27" y2="160" stroke="#CF3476" stroke-width="4"/>
<line x1="23" y1="80" x2="23" y2="160" stroke="#0C1B59" stroke-width="4"/>
<line x1="23" y1="8.74228e-08" x2="23" y2="80" stroke="#0C1B59" stroke-width="4"/>
<line x1="27" y1="8.74228e-08" x2="27" y2="80" stroke="#CF3476" stroke-width="4"/>
<circle cx="25" cy="40" r="25" fill="#989592"/>
<circle cx="25" cy="40" r="24" fill="#E9E7E4"/>
<g clip-path="url(#clip0_1252_23420)">
<path fill-rule="evenodd" clip-rule="evenodd" d="M29.0336 29.0001L28.5959 35.9279L27.6875 29.046L29.0336 29.0001ZM9 33.2393C9 34.5568 10.0651 35.6255 11.3811 35.6314C10.6131 36.9591 10.1735 38.5006 10.1735 40.1448C10.1735 45.1302 14.2149 49.1716 19.2003 49.1716C21.9827 49.1716 24.4711 47.9127 26.1269 45.9334L37.0282 51.9246L41 47.321L29.9873 37.7074L28.6784 38.2039L28.2271 37.7074V36.0826L25.8859 34.0796C24.2345 32.2604 21.8508 31.118 19.2003 31.118C17.1597 31.118 15.2772 31.7951 13.7653 32.937C13.6167 31.7586 12.6108 30.8472 11.3921 30.8472C10.071 30.8472 9 31.9182 9 33.2393ZM11.819 34.9474C12.2033 34.4025 12.6465 33.9022 13.1392 33.4555C13.1479 33.3846 13.1523 33.3125 13.1523 33.2393C13.1523 32.2671 12.3643 31.4791 11.3921 31.4791C10.42 31.4791 9.63188 32.2671 9.63188 33.2393C9.63188 34.2114 10.42 34.9995 11.3921 34.9995C11.5393 34.9995 11.6823 34.9814 11.819 34.9474ZM19.2003 47.4566C23.2384 47.4566 26.512 44.183 26.512 40.1449C26.512 36.1067 23.2384 32.8332 19.2003 32.8332C15.1621 32.8332 11.8886 36.1067 11.8886 40.1449C11.8886 44.183 15.1621 47.4566 19.2003 47.4566ZM19.2003 46.1024C22.4906 46.1024 25.158 43.435 25.158 40.1447C25.158 36.8543 22.4906 34.187 19.2003 34.187C15.9099 34.187 13.2426 36.8543 13.2426 40.1447C13.2426 43.435 15.9099 46.1024 19.2003 46.1024ZM29.4869 36.4882L34.1056 31.3061L33.018 30.5117L29.4869 36.4882ZM37.424 36.9784L30.4836 37.1099L37.268 35.6406L37.424 36.9784Z" fill="#000033"/>
</g>
<defs>
<clipPath id="clip0_1252_23420">
<rect width="32" height="32" fill="white" transform="translate(9 24)"/>
</clipPath>
</defs>
</svg>
