<svg width="50" height="145" viewBox="0 0 50 145" fill="none" xmlns="http://www.w3.org/2000/svg">
<line x1="23" y1="65" x2="23" y2="145" stroke="#0C1B59" stroke-width="4"/>
<line x1="27" y1="65" x2="27" y2="145" stroke="#CF3476" stroke-width="4"/>
<line x1="23" y1="5" x2="23" y2="65" stroke="#0C1B59" stroke-width="4"/>
<line x1="27" y1="5" x2="27" y2="65" stroke="#CF3476" stroke-width="4"/>
<circle cx="25" cy="25" r="25" fill="#989592"/>
<circle cx="25" cy="25" r="24" fill="#E9E7E4"/>
<g clip-path="url(#clip0_1249_23404)">
<path fill-rule="evenodd" clip-rule="evenodd" d="M29.0336 14L28.5959 20.9279L27.6875 14.0459L29.0336 14ZM9 18.2392C9 19.5567 10.0651 20.6254 11.3811 20.6313C10.6131 21.959 10.1735 23.5005 10.1735 25.1447C10.1735 30.1301 14.2149 34.1715 19.2003 34.1715C21.9827 34.1715 24.4711 32.9126 26.1269 30.9334L37.0282 36.9246L41 32.3209L29.9873 22.7073L28.6784 23.2038L28.2271 22.7073V21.0825L25.8859 19.0795C24.2345 17.2603 21.8508 16.1179 19.2003 16.1179C17.1597 16.1179 15.2772 16.795 13.7653 17.9369C13.6167 16.7585 12.6108 15.8471 11.3921 15.8471C10.071 15.8471 9 16.9181 9 18.2392ZM11.819 19.9473C12.2033 19.4025 12.6465 18.9021 13.1392 18.4554C13.1479 18.3845 13.1523 18.3124 13.1523 18.2392C13.1523 17.267 12.3643 16.479 11.3921 16.479C10.42 16.479 9.63188 17.267 9.63188 18.2392C9.63188 19.2113 10.42 19.9994 11.3921 19.9994C11.5393 19.9994 11.6823 19.9813 11.819 19.9473ZM19.2003 32.4565C23.2384 32.4565 26.512 29.1829 26.512 25.1448C26.512 21.1067 23.2384 17.8331 19.2003 17.8331C15.1621 17.8331 11.8886 21.1067 11.8886 25.1448C11.8886 29.1829 15.1621 32.4565 19.2003 32.4565ZM19.2003 31.1023C22.4906 31.1023 25.158 28.4349 25.158 25.1446C25.158 21.8542 22.4906 19.1869 19.2003 19.1869C15.9099 19.1869 13.2426 21.8542 13.2426 25.1446C13.2426 28.4349 15.9099 31.1023 19.2003 31.1023ZM29.4869 21.4881L34.1056 16.306L33.018 15.5116L29.4869 21.4881ZM37.424 21.9783L30.4836 22.1098L37.268 20.6405L37.424 21.9783Z" fill="#000033"/>
</g>
<defs>
<clipPath id="clip0_1249_23404">
<rect width="32" height="32" fill="white" transform="translate(9 9)"/>
</clipPath>
</defs>
</svg>
