<svg width="50" height="160" viewBox="0 0 50 160" fill="none" xmlns="http://www.w3.org/2000/svg">
<line x1="27" y1="80" x2="27" y2="160" stroke="#CF3476" stroke-width="4"/>
<line x1="23" y1="80" x2="23" y2="160" stroke="#0C1B59" stroke-width="4"/>
<line x1="23" y1="8.74228e-08" x2="23" y2="80" stroke="#0C1B59" stroke-width="4"/>
<line x1="27" y1="8.74228e-08" x2="27" y2="80" stroke="#CF3476" stroke-width="4"/>
<circle cx="25" cy="40" r="25" fill="#989592"/>
<circle cx="25" cy="40" r="24" fill="#E9E7E4"/>
<path d="M24.504 27.0026C24.1827 27.0173 23.8587 27.0386 23.6774 27.0559C21.5107 27.2613 19.4667 27.9893 17.6574 29.2013C16.2374 30.1519 15.016 31.3759 14.0667 32.7986C13.3334 33.8986 12.7907 35.0559 12.412 36.3239C12.356 36.5119 12.248 36.9159 12.2187 37.0506L12.2107 37.0879H14.5214H16.8307L16.8694 36.9839C17.0494 36.4986 17.3627 35.8746 17.672 35.3933C19.5814 32.4173 23.0867 30.9213 26.5707 31.5959C29.156 32.0973 31.4027 33.8079 32.5907 36.1799C32.712 36.4226 32.7974 36.6053 32.7974 36.6226C32.7974 36.6293 32.0894 36.6359 31.184 36.6373L29.5694 36.6413L32.3587 39.7919C33.892 41.5239 35.152 42.9399 35.1587 42.9386C35.164 42.9359 36.4747 41.5186 38.0707 39.7879L40.9734 36.6413L39.232 36.6373L37.492 36.6346L37.4774 36.5773C37.256 35.7266 36.8267 34.6626 36.36 33.8079C35.4907 32.2146 34.3107 30.8293 32.8694 29.7119C30.8174 28.1213 28.34 27.1906 25.704 27.0213C25.476 27.0066 24.68 26.9946 24.504 27.0026Z" fill="#4DA167"/>
<path d="M11.7907 40.4773C10.2587 42.2093 9.00134 43.6306 9.00001 43.6359C8.99734 43.6426 9.74534 43.6479 10.6893 43.6479H12.3827L12.4173 43.7639C12.436 43.8293 12.5027 44.0306 12.564 44.2146C13.4707 46.9119 15.284 49.2746 17.6707 50.8679C19.5053 52.0933 21.592 52.8266 23.784 53.0133C24.5893 53.0826 25.5267 53.0733 26.3053 52.9879C26.7347 52.9399 27.0893 52.8866 27.484 52.8066C30.9867 52.1039 34.0573 49.9773 35.964 46.9346C36.38 46.2706 36.7893 45.4519 37.0787 44.7013C37.2387 44.2839 37.4973 43.4733 37.5373 43.2573L37.5467 43.2079H35.2213H32.8973L32.832 43.3639C32.7387 43.5906 32.484 44.1039 32.356 44.3213C31.9733 44.9746 31.5627 45.5159 31.0573 46.0333C30.1653 46.9466 29.116 47.6293 27.8973 48.0906C27.2493 48.3359 26.4773 48.5119 25.7173 48.5893C25.4347 48.6173 24.6933 48.6293 24.384 48.6093C21.5 48.4293 18.9387 46.8466 17.4693 44.3399C17.372 44.1733 17.1387 43.7253 17.124 43.6786L17.116 43.6479L18.7573 43.6453L20.3973 43.6413L17.4893 40.4879C15.8893 38.7533 14.58 37.3333 14.5787 37.3319C14.5787 37.3319 13.324 38.7466 11.7907 40.4773Z" fill="#CC2936"/>
</svg>
