
        <svg version="1.0" xmlns="http://www.w3.org/2000/svg"
        width="30.000000pt" height="30.000000pt" viewBox="0 0 2400.000000 1958.000000"
        preserveAspectRatio="xMidYMid meet">

        <g transform="translate(0.000000,1958.000000) scale(0.100000,-0.100000)"
        fill="#4da167" stroke="none">
        <path d="M11640 19574 c-241 -11 -484 -27 -620 -40 -1625 -154 -3158 -700
        -4515 -1609 -1065 -713 -1981 -1631 -2693 -2698 -550 -825 -957 -1693 -1241
        -2644 -42 -141 -123 -444 -145 -545 l-6 -28 1733 0 1732 0 29 78 c135 364 370
        832 602 1193 1432 2232 4061 3354 6674 2848 1939 -376 3624 -1659 4515 -3438
        91 -182 155 -319 155 -332 0 -5 -531 -10 -1210 -11 l-1211 -3 2092 -2363
        c1150 -1299 2095 -2361 2100 -2360 4 2 987 1065 2184 2363 l2177 2360 -1306 3
        -1305 2 -11 43 c-166 638 -488 1436 -838 2077 -652 1195 -1537 2234 -2618
        3072 -1539 1193 -3397 1891 -5374 2018 -171 11 -768 20 -900 14z"/>
        <path fill="#cc2936" d="M2105 9468 c-1149 -1299 -2092 -2365 -2093 -2369 -2 -5 559 -9 1267
        -9 l1270 0 26 -87 c14 -49 64 -200 110 -338 680 -2023 2040 -3795 3830 -4990
        1376 -919 2941 -1469 4585 -1609 604 -52 1307 -45 1891 19 322 36 588 76 884
        136 2627 527 4930 2122 6360 4404 312 498 619 1112 836 1675 120 313 314 921
        344 1083 l7 37 -1744 0 -1743 0 -49 -117 c-70 -170 -261 -555 -357 -718 -287
        -490 -595 -896 -974 -1284 -669 -685 -1456 -1197 -2370 -1543 -486 -184 -1065
        -316 -1635 -374 -212 -21 -768 -30 -1000 -15 -2163 135 -4084 1322 -5186 3202
        -73 125 -248 461 -259 496 l-6 23 1231 2 1230 3 -2181 2365 c-1200 1301 -2182
        2366 -2183 2367 0 0 -941 -1061 -2091 -2359z"/>
        </g>
        </svg>