<svg width="51" height="51" viewBox="0 0 51 51" fill="none" xmlns="http://www.w3.org/2000/svg">
<g clip-path="url(#clip0_194_3016)">
<path d="M45.4505 14.204C45.4823 14.6982 45.4823 15.1925 45.4823 15.6866C45.4823 30.7597 35.1572 48.1273 16.2856 48.1273C10.4717 48.1273 5.07083 46.2563 0.52771 43.0088C1.35376 43.1146 2.14793 43.1501 3.00576 43.1501C7.80297 43.1501 12.2191 41.3499 15.7455 38.2786C11.2342 38.1728 7.45356 34.8899 6.15095 30.3714C6.78641 30.4772 7.42176 30.5478 8.08899 30.5478C9.01029 30.5478 9.93169 30.4065 10.7894 30.1597C6.08749 29.1005 2.56091 24.5116 2.56091 18.9695V18.8284C3.92697 19.6756 5.5156 20.2051 7.19928 20.2756C4.4353 18.2282 2.62447 14.7335 2.62447 10.7799C2.62447 8.66191 3.13269 6.72042 4.0223 5.02601C9.07378 11.9448 16.6668 16.4631 25.1811 16.9574C25.0223 16.1102 24.9269 15.2278 24.9269 14.3453C24.9269 8.06181 29.5019 2.94336 35.1887 2.94336C38.1433 2.94336 40.812 4.32006 42.6864 6.54395C45.0056 6.04979 47.2294 5.09663 49.1992 3.79057C48.4366 6.43813 46.8164 8.66201 44.6879 10.0739C46.753 9.82695 48.7545 9.19141 50.5971 8.30899C49.1994 10.5681 47.452 12.5801 45.4505 14.204Z" fill="#FAFAFA"/>
</g>
<defs>
<clipPath id="clip0_194_3016">
<rect width="50.0694" height="50.0694" fill="white" transform="translate(0.562378 0.891602)"/>
</clipPath>
</defs>
</svg>
