<svg width="50" height="160" viewBox="0 0 50 160" fill="none" xmlns="http://www.w3.org/2000/svg">
<line x1="27" y1="80" x2="27" y2="160" stroke="#CF3476" stroke-width="4"/>
<line x1="23" y1="80" x2="23" y2="160" stroke="#0C1B59" stroke-width="4"/>
<line x1="23" y1="8.74228e-08" x2="23" y2="80" stroke="#0C1B59" stroke-width="4"/>
<line x1="27" y1="8.74228e-08" x2="27" y2="80" stroke="#CF3476" stroke-width="4"/>
<circle cx="25" cy="40" r="25" fill="#989592"/>
<circle cx="25" cy="40" r="24" fill="#E9E7E4"/>
<path d="M33.75 26H11.25C10.5596 26 10 26.551 10 27.2308V56.7692C10 57.449 10.5596 58 11.25 58H33.75C34.4404 58 35 57.449 35 56.7692V27.2308C35 26.551 34.4404 26 33.75 26Z" fill="#F3A712"/>
<path d="M39.3067 23H17.2267C16.5492 23 16 23.551 16 24.2308V53.7692C16 54.449 16.5492 55 17.2267 55H39.3067C39.9841 55 40.5333 54.449 40.5333 53.7692V24.2308C40.5333 23.551 39.9841 23 39.3067 23Z" fill="#CC2936"/>
</svg>
