<svg width="51" height="51" viewBox="0 0 51 51" fill="none" xmlns="http://www.w3.org/2000/svg">
<g clip-path="url(#clip0_194_3129)">
<path d="M49.6397 12.6649C49.0639 10.4806 47.3673 8.76036 45.2132 8.17656C41.3084 7.11572 25.6513 7.11572 25.6513 7.11572C25.6513 7.11572 9.99421 7.11572 6.08948 8.17656C3.93529 8.76045 2.23867 10.4806 1.66282 12.6649C0.616577 16.6241 0.616577 24.8845 0.616577 24.8845C0.616577 24.8845 0.616577 33.145 1.66282 37.1041C2.23867 39.2883 3.93529 40.9368 6.08948 41.5207C9.99421 42.5815 25.6513 42.5815 25.6513 42.5815C25.6513 42.5815 41.3084 42.5815 45.2132 41.5207C47.3673 40.9368 49.0639 39.2883 49.6397 37.1041C50.686 33.145 50.686 24.8845 50.686 24.8845C50.686 24.8845 50.686 16.6241 49.6397 12.6649ZM20.5305 32.3842V17.3846L33.6169 24.8846L20.5305 32.3842Z" fill="#FAFAFA"/>
</g>
<defs>
<clipPath id="clip0_194_3129">
<rect width="50.0694" height="50.0694" fill="white" transform="translate(0.651245 0.891602)"/>
</clipPath>
</defs>
</svg>
